%TF.GenerationSoftware,KiCad,Pcbnew,8.0.1*%
%TF.CreationDate,2024-03-31T20:21:14-04:00*%
%TF.ProjectId,Reflow Plate,5265666c-6f77-4205-906c-6174652e6b69,rev?*%
%TF.SameCoordinates,Original*%
%TF.FileFunction,Copper,L1,Top*%
%TF.FilePolarity,Positive*%
%FSLAX46Y46*%
G04 Gerber Fmt 4.6, Leading zero omitted, Abs format (unit mm)*
G04 Created by KiCad (PCBNEW 8.0.1) date 2024-03-31 20:21:14*
%MOMM*%
%LPD*%
G01*
G04 APERTURE LIST*
G04 Aperture macros list*
%AMRoundRect*
0 Rectangle with rounded corners*
0 $1 Rounding radius*
0 $2 $3 $4 $5 $6 $7 $8 $9 X,Y pos of 4 corners*
0 Add a 4 corners polygon primitive as box body*
4,1,4,$2,$3,$4,$5,$6,$7,$8,$9,$2,$3,0*
0 Add four circle primitives for the rounded corners*
1,1,$1+$1,$2,$3*
1,1,$1+$1,$4,$5*
1,1,$1+$1,$6,$7*
1,1,$1+$1,$8,$9*
0 Add four rect primitives between the rounded corners*
20,1,$1+$1,$2,$3,$4,$5,0*
20,1,$1+$1,$4,$5,$6,$7,0*
20,1,$1+$1,$6,$7,$8,$9,0*
20,1,$1+$1,$8,$9,$2,$3,0*%
G04 Aperture macros list end*
%TA.AperFunction,Conductor*%
%ADD10C,0.200000*%
%TD*%
%TA.AperFunction,EtchedComponent*%
%ADD11C,0.000000*%
%TD*%
%TA.AperFunction,SMDPad,CuDef*%
%ADD12RoundRect,0.135000X0.185000X-0.135000X0.185000X0.135000X-0.185000X0.135000X-0.185000X-0.135000X0*%
%TD*%
%TA.AperFunction,SMDPad,CuDef*%
%ADD13RoundRect,0.225000X0.225000X0.375000X-0.225000X0.375000X-0.225000X-0.375000X0.225000X-0.375000X0*%
%TD*%
%TA.AperFunction,SMDPad,CuDef*%
%ADD14RoundRect,0.135000X-0.135000X-0.185000X0.135000X-0.185000X0.135000X0.185000X-0.135000X0.185000X0*%
%TD*%
%TA.AperFunction,SMDPad,CuDef*%
%ADD15RoundRect,0.135000X0.135000X0.185000X-0.135000X0.185000X-0.135000X-0.185000X0.135000X-0.185000X0*%
%TD*%
%TA.AperFunction,SMDPad,CuDef*%
%ADD16RoundRect,0.150000X-0.512500X-0.150000X0.512500X-0.150000X0.512500X0.150000X-0.512500X0.150000X0*%
%TD*%
%TA.AperFunction,SMDPad,CuDef*%
%ADD17R,1.000000X0.750000*%
%TD*%
%TA.AperFunction,ComponentPad*%
%ADD18R,1.700000X1.700000*%
%TD*%
%TA.AperFunction,ComponentPad*%
%ADD19O,1.700000X1.700000*%
%TD*%
%TA.AperFunction,SMDPad,CuDef*%
%ADD20R,0.812800X0.254000*%
%TD*%
%TA.AperFunction,SMDPad,CuDef*%
%ADD21R,0.025400X0.025400*%
%TD*%
%TA.AperFunction,ComponentPad*%
%ADD22C,5.700000*%
%TD*%
%TA.AperFunction,SMDPad,CuDef*%
%ADD23RoundRect,0.317500X-0.317500X-1.587500X0.317500X-1.587500X0.317500X1.587500X-0.317500X1.587500X0*%
%TD*%
%TA.AperFunction,SMDPad,CuDef*%
%ADD24RoundRect,0.250000X1.500000X0.550000X-1.500000X0.550000X-1.500000X-0.550000X1.500000X-0.550000X0*%
%TD*%
%TA.AperFunction,SMDPad,CuDef*%
%ADD25RoundRect,0.075000X-0.662500X-0.075000X0.662500X-0.075000X0.662500X0.075000X-0.662500X0.075000X0*%
%TD*%
%TA.AperFunction,SMDPad,CuDef*%
%ADD26RoundRect,0.075000X-0.075000X-0.662500X0.075000X-0.662500X0.075000X0.662500X-0.075000X0.662500X0*%
%TD*%
%TA.AperFunction,SMDPad,CuDef*%
%ADD27RoundRect,0.135000X-0.185000X0.135000X-0.185000X-0.135000X0.185000X-0.135000X0.185000X0.135000X0*%
%TD*%
%TA.AperFunction,SMDPad,CuDef*%
%ADD28RoundRect,0.250000X-0.350000X0.850000X-0.350000X-0.850000X0.350000X-0.850000X0.350000X0.850000X0*%
%TD*%
%TA.AperFunction,SMDPad,CuDef*%
%ADD29RoundRect,0.250000X-1.125000X1.275000X-1.125000X-1.275000X1.125000X-1.275000X1.125000X1.275000X0*%
%TD*%
%TA.AperFunction,SMDPad,CuDef*%
%ADD30RoundRect,0.249997X-2.650003X2.950003X-2.650003X-2.950003X2.650003X-2.950003X2.650003X2.950003X0*%
%TD*%
%TA.AperFunction,SMDPad,CuDef*%
%ADD31RoundRect,0.062500X-0.350000X-0.062500X0.350000X-0.062500X0.350000X0.062500X-0.350000X0.062500X0*%
%TD*%
%TA.AperFunction,HeatsinkPad*%
%ADD32R,1.700000X2.500000*%
%TD*%
%TA.AperFunction,SMDPad,CuDef*%
%ADD33R,1.900000X0.400000*%
%TD*%
%TA.AperFunction,SMDPad,CuDef*%
%ADD34RoundRect,0.225000X-0.225000X-0.375000X0.225000X-0.375000X0.225000X0.375000X-0.225000X0.375000X0*%
%TD*%
%TA.AperFunction,SMDPad,CuDef*%
%ADD35RoundRect,0.140000X-0.170000X0.140000X-0.170000X-0.140000X0.170000X-0.140000X0.170000X0.140000X0*%
%TD*%
%TA.AperFunction,SMDPad,CuDef*%
%ADD36RoundRect,0.140000X0.140000X0.170000X-0.140000X0.170000X-0.140000X-0.170000X0.140000X-0.170000X0*%
%TD*%
%TA.AperFunction,SMDPad,CuDef*%
%ADD37RoundRect,0.135000X-0.226274X-0.035355X-0.035355X-0.226274X0.226274X0.035355X0.035355X0.226274X0*%
%TD*%
%TA.AperFunction,ComponentPad*%
%ADD38O,4.100000X1.600000*%
%TD*%
%TA.AperFunction,ComponentPad*%
%ADD39O,1.600000X4.100000*%
%TD*%
%TA.AperFunction,SMDPad,CuDef*%
%ADD40RoundRect,0.135000X0.035355X-0.226274X0.226274X-0.035355X-0.035355X0.226274X-0.226274X0.035355X0*%
%TD*%
%TA.AperFunction,SMDPad,CuDef*%
%ADD41RoundRect,0.317500X0.317500X1.587500X-0.317500X1.587500X-0.317500X-1.587500X0.317500X-1.587500X0*%
%TD*%
%TA.AperFunction,SMDPad,CuDef*%
%ADD42RoundRect,0.140000X-0.140000X-0.170000X0.140000X-0.170000X0.140000X0.170000X-0.140000X0.170000X0*%
%TD*%
%TA.AperFunction,SMDPad,CuDef*%
%ADD43RoundRect,0.140000X0.170000X-0.140000X0.170000X0.140000X-0.170000X0.140000X-0.170000X-0.140000X0*%
%TD*%
%TA.AperFunction,SMDPad,CuDef*%
%ADD44R,0.600000X1.450000*%
%TD*%
%TA.AperFunction,SMDPad,CuDef*%
%ADD45R,0.300000X1.450000*%
%TD*%
%TA.AperFunction,ComponentPad*%
%ADD46O,1.000000X2.100000*%
%TD*%
%TA.AperFunction,ComponentPad*%
%ADD47O,1.000000X1.600000*%
%TD*%
%TA.AperFunction,ViaPad*%
%ADD48C,0.600000*%
%TD*%
%TA.AperFunction,Conductor*%
%ADD49C,0.300000*%
%TD*%
%TA.AperFunction,Conductor*%
%ADD50C,0.250000*%
%TD*%
%TA.AperFunction,Conductor*%
%ADD51C,0.350000*%
%TD*%
%TA.AperFunction,Conductor*%
%ADD52C,0.150000*%
%TD*%
%TA.AperFunction,Conductor*%
%ADD53C,1.000000*%
%TD*%
%TA.AperFunction,Conductor*%
%ADD54C,0.500000*%
%TD*%
G04 APERTURE END LIST*
D10*
%TO.N,Net-(D2-A)*%
X113970800Y-46523200D02*
X112141000Y-46583600D01*
X112141000Y-44348400D01*
X113944400Y-44348400D01*
X113970800Y-46523200D01*
%TA.AperFunction,Conductor*%
G36*
X113970800Y-46523200D02*
G01*
X112141000Y-46583600D01*
X112141000Y-44348400D01*
X113944400Y-44348400D01*
X113970800Y-46523200D01*
G37*
%TD.AperFunction*%
%TO.N,VBUS*%
X117246400Y-45516800D02*
X119278400Y-45516800D01*
X119278400Y-48768000D01*
X117246400Y-48768000D01*
X117246400Y-45516800D01*
%TA.AperFunction,Conductor*%
G36*
X117246400Y-45516800D02*
G01*
X119278400Y-45516800D01*
X119278400Y-48768000D01*
X117246400Y-48768000D01*
X117246400Y-45516800D01*
G37*
%TD.AperFunction*%
%TO.N,Net-(D3-A)*%
X123698000Y-43738800D02*
X128168400Y-43738800D01*
X128168400Y-49072800D01*
X123698000Y-49072800D01*
X123698000Y-43738800D01*
%TA.AperFunction,Conductor*%
G36*
X123698000Y-43738800D02*
G01*
X128168400Y-43738800D01*
X128168400Y-49072800D01*
X123698000Y-49072800D01*
X123698000Y-43738800D01*
G37*
%TD.AperFunction*%
D11*
%TA.AperFunction,EtchedComponent*%
%TD*%
%TO.C,MOSFET1*%
G36*
X112141000Y-46685200D02*
G01*
X110312200Y-46685200D01*
X110312200Y-44246800D01*
X112141000Y-44246800D01*
X112141000Y-46685200D01*
G37*
%TD.AperFunction*%
D12*
%TO.P,R6,1*%
%TO.N,+3V3*%
X157607000Y-37594000D03*
%TO.P,R6,2*%
%TO.N,BOOT0*%
X157607000Y-36574000D03*
%TD*%
D13*
%TO.P,D1,1,K*%
%TO.N,VBUS*%
X117270800Y-48260000D03*
%TO.P,D1,2,A*%
%TO.N,Net-(D1-A)*%
X113970800Y-48260000D03*
%TD*%
D14*
%TO.P,R10,1*%
%TO.N,Net-(U3-PA12)*%
X158746315Y-41043281D03*
%TO.P,R10,2*%
%TO.N,USB_D+*%
X159766315Y-41043281D03*
%TD*%
D15*
%TO.P,R11,1*%
%TO.N,USB_D+*%
X159768000Y-39878000D03*
%TO.P,R11,2*%
%TO.N,+3V3*%
X158748000Y-39878000D03*
%TD*%
%TO.P,R14,1*%
%TO.N,/HeatMon*%
X164721000Y-47498000D03*
%TO.P,R14,2*%
%TO.N,HeaterMeasure*%
X163701000Y-47498000D03*
%TD*%
D16*
%TO.P,U2,1,IN*%
%TO.N,VBUS*%
X140594500Y-37785000D03*
%TO.P,U2,2,GND*%
%TO.N,GND*%
X140594500Y-38735000D03*
%TO.P,U2,3,EN*%
%TO.N,VBUS*%
X140594500Y-39685000D03*
%TO.P,U2,4,NC*%
%TO.N,unconnected-(U2-NC-Pad4)*%
X142869500Y-39685000D03*
%TO.P,U2,5,OUT*%
%TO.N,+3V3*%
X142869500Y-37785000D03*
%TD*%
D17*
%TO.P,SW3,1,1*%
%TO.N,+3V3*%
X185245000Y-41245000D03*
X179245000Y-41245000D03*
%TO.P,SW3,2,2*%
%TO.N,BTN_A*%
X185245000Y-37495000D03*
X179245000Y-37495000D03*
%TD*%
D18*
%TO.P,J7,1,Pin_1*%
%TO.N,GND*%
X135890000Y-39380000D03*
D19*
%TO.P,J7,2,Pin_2*%
%TO.N,+3V3*%
X135890000Y-41920000D03*
%TO.P,J7,3,Pin_3*%
%TO.N,SCL1*%
X135890000Y-44460000D03*
%TO.P,J7,4,Pin_4*%
%TO.N,SDA1*%
X135890000Y-47000000D03*
%TD*%
D12*
%TO.P,R5,1*%
%TO.N,GND*%
X157861000Y-48135000D03*
%TO.P,R5,2*%
%TO.N,Net-(U3-PB2)*%
X157861000Y-47115000D03*
%TD*%
D20*
%TO.P,MOSFET1,1,S*%
%TO.N,Net-(J2-VBUS-PadA4)*%
X109448600Y-44491001D03*
%TO.P,MOSFET1,2,S*%
X109448600Y-45140999D03*
%TO.P,MOSFET1,3,S*%
X109448600Y-45791001D03*
%TO.P,MOSFET1,4,G*%
%TO.N,Net-(MOSFET1-G)*%
X109448600Y-46440999D03*
%TO.P,MOSFET1,5,D*%
%TO.N,Net-(D2-A)*%
X112547400Y-46440999D03*
%TO.P,MOSFET1,6,D*%
X112547400Y-45791001D03*
%TO.P,MOSFET1,7,D*%
X112547400Y-45140999D03*
%TO.P,MOSFET1,8,D*%
X112547400Y-44491001D03*
D21*
%TO.P,MOSFET1,9*%
%TO.N,N/C*%
X110998000Y-45466000D03*
%TD*%
D22*
%TO.P,REF\u002A\u002A,1*%
%TO.N,N/C*%
X95250000Y-130302000D03*
%TD*%
D14*
%TO.P,R9,1*%
%TO.N,Net-(U3-PA11)*%
X158748000Y-42037000D03*
%TO.P,R9,2*%
%TO.N,USB_D-*%
X159768000Y-42037000D03*
%TD*%
D13*
%TO.P,D2,1,K*%
%TO.N,VBUS*%
X117270800Y-46024800D03*
%TO.P,D2,2,A*%
%TO.N,Net-(D2-A)*%
X113970800Y-46024800D03*
%TD*%
D23*
%TO.P,J3,1,Pin_1*%
%TO.N,/Heater*%
X119176800Y-53594000D03*
%TO.P,J3,3,Pin_3*%
%TO.N,unconnected-(J3-Pin_3-Pad3)*%
X121716800Y-53594000D03*
%TO.P,J3,5,Pin_5*%
%TO.N,/Heater*%
X124256800Y-53594000D03*
%TD*%
D24*
%TO.P,C4,1*%
%TO.N,VBUS*%
X119895600Y-41300400D03*
%TO.P,C4,2*%
%TO.N,GND*%
X114495600Y-41300400D03*
%TD*%
D22*
%TO.P,REF\u002A\u002A,1*%
%TO.N,N/C*%
X95250000Y-56642000D03*
%TD*%
D15*
%TO.P,R4,1*%
%TO.N,Heater_CTRL*%
X129288000Y-37820600D03*
%TO.P,R4,2*%
%TO.N,GND*%
X128268000Y-37820600D03*
%TD*%
D22*
%TO.P,REF\u002A\u002A,1*%
%TO.N,N/C*%
X184150000Y-56642000D03*
%TD*%
D25*
%TO.P,U3,1,VBAT*%
%TO.N,+3V3*%
X148872500Y-39795000D03*
%TO.P,U3,2,PC13*%
%TO.N,unconnected-(U3-PC13-Pad2)*%
X148872500Y-40295000D03*
%TO.P,U3,3,PC14*%
%TO.N,unconnected-(U3-PC14-Pad3)*%
X148872500Y-40795000D03*
%TO.P,U3,4,PC15*%
%TO.N,unconnected-(U3-PC15-Pad4)*%
X148872500Y-41295000D03*
%TO.P,U3,5,PD0*%
%TO.N,Net-(U3-PD0)*%
X148872500Y-41795000D03*
%TO.P,U3,6,PD1*%
%TO.N,Net-(U3-PD1)*%
X148872500Y-42295000D03*
%TO.P,U3,7,NRST*%
%TO.N,Net-(U3-NRST)*%
X148872500Y-42795000D03*
%TO.P,U3,8,VSSA*%
%TO.N,GND*%
X148872500Y-43295000D03*
%TO.P,U3,9,VDDA*%
%TO.N,+3V3*%
X148872500Y-43795000D03*
%TO.P,U3,10,PA0*%
%TO.N,WKUP*%
X148872500Y-44295000D03*
%TO.P,U3,11,PA1*%
%TO.N,NTC_Measure*%
X148872500Y-44795000D03*
%TO.P,U3,12,PA2*%
%TO.N,unconnected-(U3-PA2-Pad12)*%
X148872500Y-45295000D03*
D26*
%TO.P,U3,13,PA3*%
%TO.N,Heater_CTRL*%
X150285000Y-46707500D03*
%TO.P,U3,14,PA4*%
%TO.N,unconnected-(U3-PA4-Pad14)*%
X150785000Y-46707500D03*
%TO.P,U3,15,PA5*%
%TO.N,VCCMeasure*%
X151285000Y-46707500D03*
%TO.P,U3,16,PA6*%
%TO.N,unconnected-(U3-PA6-Pad16)*%
X151785000Y-46707500D03*
%TO.P,U3,17,PA7*%
%TO.N,HeaterMeasure*%
X152285000Y-46707500D03*
%TO.P,U3,18,PB0*%
%TO.N,unconnected-(U3-PB0-Pad18)*%
X152785000Y-46707500D03*
%TO.P,U3,19,PB1*%
%TO.N,unconnected-(U3-PB1-Pad19)*%
X153285000Y-46707500D03*
%TO.P,U3,20,PB2*%
%TO.N,Net-(U3-PB2)*%
X153785000Y-46707500D03*
%TO.P,U3,21,PB10*%
%TO.N,SCL1*%
X154285000Y-46707500D03*
%TO.P,U3,22,PB11*%
%TO.N,SDA1*%
X154785000Y-46707500D03*
%TO.P,U3,23,VSS*%
%TO.N,GND*%
X155285000Y-46707500D03*
%TO.P,U3,24,VDD*%
%TO.N,+3V3*%
X155785000Y-46707500D03*
D25*
%TO.P,U3,25,PB12*%
%TO.N,unconnected-(U3-PB12-Pad25)*%
X157197500Y-45295000D03*
%TO.P,U3,26,PB13*%
%TO.N,BTN_B*%
X157197500Y-44795000D03*
%TO.P,U3,27,PB14*%
%TO.N,BTN_A*%
X157197500Y-44295000D03*
%TO.P,U3,28,PB15*%
%TO.N,unconnected-(U3-PB15-Pad28)*%
X157197500Y-43795000D03*
%TO.P,U3,29,PA8*%
%TO.N,unconnected-(U3-PA8-Pad29)*%
X157197500Y-43295000D03*
%TO.P,U3,30,PA9*%
%TO.N,unconnected-(U3-PA9-Pad30)*%
X157197500Y-42795000D03*
%TO.P,U3,31,PA10*%
%TO.N,unconnected-(U3-PA10-Pad31)*%
X157197500Y-42295000D03*
%TO.P,U3,32,PA11*%
%TO.N,Net-(U3-PA11)*%
X157197500Y-41795000D03*
%TO.P,U3,33,PA12*%
%TO.N,Net-(U3-PA12)*%
X157197500Y-41295000D03*
%TO.P,U3,34,PA13*%
%TO.N,SWDIO*%
X157197500Y-40795000D03*
%TO.P,U3,35,VSS*%
%TO.N,GND*%
X157197500Y-40295000D03*
%TO.P,U3,36,VDD*%
%TO.N,+3V3*%
X157197500Y-39795000D03*
D26*
%TO.P,U3,37,PA14*%
%TO.N,SWCLK*%
X155785000Y-38382500D03*
%TO.P,U3,38,PA15*%
%TO.N,unconnected-(U3-PA15-Pad38)*%
X155285000Y-38382500D03*
%TO.P,U3,39,PB3*%
%TO.N,unconnected-(U3-PB3-Pad39)*%
X154785000Y-38382500D03*
%TO.P,U3,40,PB4*%
%TO.N,unconnected-(U3-PB4-Pad40)*%
X154285000Y-38382500D03*
%TO.P,U3,41,PB5*%
%TO.N,unconnected-(U3-PB5-Pad41)*%
X153785000Y-38382500D03*
%TO.P,U3,42,PB6*%
%TO.N,unconnected-(U3-PB6-Pad42)*%
X153285000Y-38382500D03*
%TO.P,U3,43,PB7*%
%TO.N,unconnected-(U3-PB7-Pad43)*%
X152785000Y-38382500D03*
%TO.P,U3,44,BOOT0*%
%TO.N,BOOT0*%
X152285000Y-38382500D03*
%TO.P,U3,45,PB8*%
%TO.N,unconnected-(U3-PB8-Pad45)*%
X151785000Y-38382500D03*
%TO.P,U3,46,PB9*%
%TO.N,unconnected-(U3-PB9-Pad46)*%
X151285000Y-38382500D03*
%TO.P,U3,47,VSS*%
%TO.N,GND*%
X150785000Y-38382500D03*
%TO.P,U3,48,VDD*%
%TO.N,+3V3*%
X150285000Y-38382500D03*
%TD*%
D15*
%TO.P,R15,1*%
%TO.N,HeaterMeasure*%
X162181000Y-47498000D03*
%TO.P,R15,2*%
%TO.N,GND*%
X161161000Y-47498000D03*
%TD*%
D27*
%TO.P,R2,1*%
%TO.N,Net-(J2-VBUS-PadA4)*%
X108305600Y-45362400D03*
%TO.P,R2,2*%
%TO.N,Net-(MOSFET1-G)*%
X108305600Y-46382400D03*
%TD*%
%TO.P,R1,1*%
%TO.N,Net-(U1-GATE)*%
X107086400Y-45362401D03*
%TO.P,R1,2*%
%TO.N,Net-(MOSFET1-G)*%
X107086400Y-46382399D03*
%TD*%
D28*
%TO.P,Q2,1,G*%
%TO.N,Heater_CTRL*%
X131058000Y-39664000D03*
D29*
%TO.P,Q2,2,D*%
%TO.N,Net-(D3-A)*%
X130303000Y-44289000D03*
X127253000Y-44289000D03*
D30*
X128778000Y-45964000D03*
D29*
X130303000Y-47639000D03*
X127253000Y-47639000D03*
D28*
%TO.P,Q2,3,S*%
%TO.N,GND*%
X126498000Y-39664000D03*
%TD*%
D31*
%TO.P,U1,1,VIN*%
%TO.N,Net-(U1-VIN)*%
X102779100Y-45329600D03*
%TO.P,U1,2,D+*%
%TO.N,USB_D+*%
X102779100Y-45829600D03*
%TO.P,U1,3,D-*%
%TO.N,USB_D-*%
X102779100Y-46329600D03*
%TO.P,U1,4,CC1*%
%TO.N,Net-(J2-CC1)*%
X102779100Y-46829600D03*
%TO.P,U1,5,CC2*%
%TO.N,Net-(J2-CC2)*%
X102779100Y-47329600D03*
%TO.P,U1,6,SDA*%
%TO.N,SDA1*%
X105704100Y-47329600D03*
%TO.P,U1,7,SCL*%
%TO.N,SCL1*%
X105704100Y-46829600D03*
%TO.P,U1,8,VSET*%
%TO.N,unconnected-(U1-VSET-Pad8)*%
X105704100Y-46329600D03*
%TO.P,U1,9,ISET*%
%TO.N,unconnected-(U1-ISET-Pad9)*%
X105704100Y-45829600D03*
%TO.P,U1,10,GATE*%
%TO.N,Net-(U1-GATE)*%
X105704100Y-45329600D03*
D32*
%TO.P,U1,11,GND*%
%TO.N,GND*%
X104241600Y-46329600D03*
%TD*%
D33*
%TO.P,Y1,1,1*%
%TO.N,Net-(U3-PD0)*%
X146608800Y-40845086D03*
%TO.P,Y1,2,2*%
%TO.N,GND*%
X146608800Y-42045086D03*
%TO.P,Y1,3,3*%
%TO.N,Net-(U3-PD1)*%
X146608800Y-43245086D03*
%TD*%
D34*
%TO.P,D3,1,K*%
%TO.N,VBUS*%
X121336800Y-44246800D03*
%TO.P,D3,2,A*%
%TO.N,Net-(D3-A)*%
X124636800Y-44246800D03*
%TD*%
D15*
%TO.P,R3,1*%
%TO.N,Net-(J2-VBUS-PadA4)*%
X104751600Y-44094400D03*
%TO.P,R3,2*%
%TO.N,Net-(U1-VIN)*%
X103731600Y-44094400D03*
%TD*%
D35*
%TO.P,C1,1*%
%TO.N,VBUS*%
X139192000Y-37747000D03*
%TO.P,C1,2*%
%TO.N,GND*%
X139192000Y-38707000D03*
%TD*%
D17*
%TO.P,SW4,1,1*%
%TO.N,+3V3*%
X179245000Y-43845000D03*
X185245000Y-43845000D03*
%TO.P,SW4,2,2*%
%TO.N,BTN_B*%
X179245000Y-47595000D03*
X185245000Y-47595000D03*
%TD*%
D36*
%TO.P,C7,1*%
%TO.N,+3V3*%
X147419000Y-44450000D03*
%TO.P,C7,2*%
%TO.N,GND*%
X146459000Y-44450000D03*
%TD*%
D37*
%TO.P,R12,1*%
%TO.N,VBUS*%
X141625376Y-41549376D03*
%TO.P,R12,2*%
%TO.N,VCCMeasure*%
X142346624Y-42270624D03*
%TD*%
D38*
%TO.P,J1,1*%
%TO.N,Net-(D1-A)*%
X97410000Y-48035000D03*
%TO.P,J1,2*%
%TO.N,GND*%
X97410000Y-42135000D03*
D39*
%TO.P,J1,3*%
%TO.N,N/C*%
X92710000Y-45085000D03*
%TD*%
D23*
%TO.P,J4,1,Pin_1*%
%TO.N,/Heater*%
X166370000Y-53594000D03*
%TO.P,J4,3,Pin_3*%
X168910000Y-53594000D03*
%TO.P,J4,5,Pin_5*%
X171450000Y-53594000D03*
%TD*%
D40*
%TO.P,R13,1*%
%TO.N,VCCMeasure*%
X143022376Y-42905624D03*
%TO.P,R13,2*%
%TO.N,GND*%
X143743624Y-42184376D03*
%TD*%
D17*
%TO.P,SW2,1,1*%
%TO.N,BOOT0*%
X171625000Y-37495000D03*
X177625000Y-37495000D03*
%TO.P,SW2,2,2*%
%TO.N,GND*%
X171625000Y-41245000D03*
X177625000Y-41245000D03*
%TD*%
D35*
%TO.P,C6,1*%
%TO.N,GND*%
X144780000Y-42573000D03*
%TO.P,C6,2*%
%TO.N,Net-(U3-PD1)*%
X144780000Y-43533000D03*
%TD*%
D41*
%TO.P,J6,1,Pin_1*%
%TO.N,/HeatMon*%
X171450000Y-47498000D03*
%TO.P,J6,3,Pin_3*%
X168910000Y-47498000D03*
%TO.P,J6,5,Pin_5*%
X166370000Y-47498000D03*
%TD*%
D42*
%TO.P,C11,1*%
%TO.N,+3V3*%
X150015000Y-36830000D03*
%TO.P,C11,2*%
%TO.N,GND*%
X150975000Y-36830000D03*
%TD*%
D22*
%TO.P,REF\u002A\u002A,1*%
%TO.N,N/C*%
X184150000Y-130302000D03*
%TD*%
D41*
%TO.P,J5,1,Pin_1*%
%TO.N,Net-(D3-A)*%
X124256800Y-47498000D03*
%TO.P,J5,3,Pin_3*%
%TO.N,unconnected-(J5-Pin_3-Pad3)*%
X121716800Y-47498000D03*
%TO.P,J5,5,Pin_5*%
%TO.N,VBUS*%
X119176800Y-47498000D03*
%TD*%
D14*
%TO.P,R7,1*%
%TO.N,+3V3*%
X157351000Y-46228000D03*
%TO.P,R7,2*%
%TO.N,NTC_Measure*%
X158371000Y-46228000D03*
%TD*%
D35*
%TO.P,C2,1*%
%TO.N,+3V3*%
X144145000Y-38255000D03*
%TO.P,C2,2*%
%TO.N,GND*%
X144145000Y-39215000D03*
%TD*%
D43*
%TO.P,C5,1*%
%TO.N,GND*%
X144780000Y-41501000D03*
%TO.P,C5,2*%
%TO.N,Net-(U3-PD0)*%
X144780000Y-40541000D03*
%TD*%
D35*
%TO.P,C8,1*%
%TO.N,+3V3*%
X156845000Y-47145000D03*
%TO.P,C8,2*%
%TO.N,GND*%
X156845000Y-48105000D03*
%TD*%
D36*
%TO.P,C10,1*%
%TO.N,+3V3*%
X147800000Y-38735000D03*
%TO.P,C10,2*%
%TO.N,GND*%
X146840000Y-38735000D03*
%TD*%
D42*
%TO.P,C9,1*%
%TO.N,+3V3*%
X157635000Y-38735000D03*
%TO.P,C9,2*%
%TO.N,GND*%
X158595000Y-38735000D03*
%TD*%
D44*
%TO.P,J2,A1,GND*%
%TO.N,GND*%
X110438000Y-42399000D03*
%TO.P,J2,A4,VBUS*%
%TO.N,Net-(J2-VBUS-PadA4)*%
X109638000Y-42399000D03*
D45*
%TO.P,J2,A5,CC1*%
%TO.N,Net-(J2-CC1)*%
X108438000Y-42399000D03*
%TO.P,J2,A6,D+*%
%TO.N,USB_D+*%
X107438000Y-42399000D03*
%TO.P,J2,A7,D-*%
%TO.N,USB_D-*%
X106938000Y-42399000D03*
%TO.P,J2,A8,SBU1*%
%TO.N,unconnected-(J2-SBU1-PadA8)*%
X105938000Y-42399000D03*
D44*
%TO.P,J2,A9,VBUS*%
%TO.N,Net-(J2-VBUS-PadA4)*%
X104738000Y-42399000D03*
%TO.P,J2,A12,GND*%
%TO.N,GND*%
X103938000Y-42399000D03*
%TO.P,J2,B1,GND*%
X103938000Y-42399000D03*
%TO.P,J2,B4,VBUS*%
%TO.N,Net-(J2-VBUS-PadA4)*%
X104738000Y-42399000D03*
D45*
%TO.P,J2,B5,CC2*%
%TO.N,Net-(J2-CC2)*%
X105438000Y-42399000D03*
%TO.P,J2,B6,D+*%
%TO.N,USB_D+*%
X106438000Y-42399000D03*
%TO.P,J2,B7,D-*%
%TO.N,USB_D-*%
X107938000Y-42399000D03*
%TO.P,J2,B8,SBU2*%
%TO.N,unconnected-(J2-SBU2-PadB8)*%
X108938000Y-42399000D03*
D44*
%TO.P,J2,B9,VBUS*%
%TO.N,Net-(J2-VBUS-PadA4)*%
X109638000Y-42399000D03*
%TO.P,J2,B12,GND*%
%TO.N,GND*%
X110438000Y-42399000D03*
D46*
%TO.P,J2,S1,SHIELD*%
X111508000Y-41484000D03*
D47*
X111508000Y-37304000D03*
D46*
X102868000Y-41484000D03*
D47*
X102868000Y-37304000D03*
%TD*%
D48*
%TO.N,+3V3*%
X178054000Y-43688000D03*
X143675000Y-37785000D03*
X157197500Y-39172500D03*
X148894800Y-39065200D03*
X156407500Y-46707500D03*
%TO.N,VCCMeasure*%
X143383000Y-43688000D03*
X151284728Y-45593000D03*
%TO.N,GND*%
X174625000Y-40005000D03*
X128143000Y-40309800D03*
X114604800Y-43535600D03*
X151130000Y-42037000D03*
X182245000Y-45720000D03*
X141579600Y-42468800D03*
X173101000Y-45720000D03*
X104165400Y-39243000D03*
X172720000Y-42926000D03*
X159766000Y-38862000D03*
X137464800Y-43180000D03*
X115671600Y-46024800D03*
X109067600Y-47345600D03*
X150876000Y-43942000D03*
X159893000Y-45720000D03*
X138303000Y-47879000D03*
X148564600Y-37769800D03*
X161798000Y-40894000D03*
X163957000Y-42926000D03*
X145288000Y-44450000D03*
X164338000Y-45847000D03*
X129819400Y-42037000D03*
X103733600Y-45364400D03*
X126466600Y-42062400D03*
X117271800Y-41656000D03*
X182245000Y-39370000D03*
X174625000Y-36957000D03*
X140411200Y-43662600D03*
X139090400Y-39979600D03*
X110464600Y-43662600D03*
X99415600Y-45186600D03*
X158750000Y-37592000D03*
X161671000Y-42672000D03*
X132384800Y-44627800D03*
X115417600Y-38760400D03*
X103784400Y-47091600D03*
X117830600Y-44018200D03*
X185420000Y-42545000D03*
X130886200Y-37693600D03*
X104698800Y-47091600D03*
X118948200Y-38887400D03*
X180340000Y-42545000D03*
X145034000Y-37566600D03*
X142722600Y-38735000D03*
X126568200Y-37541200D03*
X143383000Y-40894000D03*
X177673000Y-44704000D03*
X156591000Y-38100000D03*
X178435000Y-42545000D03*
X134188200Y-41478200D03*
X121132600Y-42849800D03*
X123063000Y-37541200D03*
X133883400Y-39674800D03*
X133883400Y-43738800D03*
X159766000Y-47498000D03*
X122859800Y-42138600D03*
X124637800Y-38938200D03*
X113309400Y-36830000D03*
X174625000Y-38354000D03*
X154305000Y-43942000D03*
X101015800Y-41732200D03*
X160020000Y-42926000D03*
X149557098Y-47444632D03*
X115671600Y-48209200D03*
X145389600Y-39090600D03*
X163449000Y-48641000D03*
X129235200Y-39141400D03*
%TO.N,USB_D+*%
X107263000Y-40648914D03*
X161336521Y-41736479D03*
X102362000Y-43992800D03*
%TO.N,Net-(U3-PB2)*%
X158623000Y-47117000D03*
X153785000Y-45593000D03*
%TO.N,USB_D-*%
X101498400Y-43992800D03*
X108113000Y-40648914D03*
X160735479Y-42337521D03*
%TO.N,NTC_Measure*%
X149860000Y-44795000D03*
X158877000Y-45466000D03*
%TO.N,VBUS*%
X121107200Y-41300400D03*
X119176800Y-48768000D03*
X118694200Y-41325800D03*
X119176800Y-46228000D03*
%TO.N,SDA1*%
X107899200Y-47244000D03*
%TO.N,SCL1*%
X106934000Y-47244000D03*
%TO.N,Net-(J2-CC2)*%
X105410000Y-41249600D03*
X100787200Y-46228000D03*
%TO.N,Net-(J2-CC1)*%
X108915200Y-41148000D03*
X101498400Y-46583600D03*
%TO.N,/Heater*%
X124256800Y-52324000D03*
X119176800Y-54864000D03*
X119176800Y-52324000D03*
X124256800Y-54864000D03*
%TO.N,Net-(D1-A)*%
X112217200Y-48564800D03*
X111404400Y-48564800D03*
X113030000Y-48564800D03*
%TO.N,Net-(D3-A)*%
X124256800Y-48768000D03*
X124256800Y-46228000D03*
%TO.N,HeaterMeasure*%
X152284476Y-45593000D03*
X162941000Y-47498000D03*
%TD*%
D49*
%TO.N,+3V3*%
X157197500Y-39795000D02*
X158665000Y-39795000D01*
X148872500Y-39087500D02*
X148872500Y-39795000D01*
D50*
X179245000Y-41245000D02*
X179245000Y-43845000D01*
D10*
X147447000Y-44450000D02*
X147419000Y-44450000D01*
D49*
X150285000Y-37100000D02*
X150285000Y-38382500D01*
X150285000Y-43152410D02*
X149642410Y-43795000D01*
X156845000Y-46925500D02*
X157351000Y-46419500D01*
X150285000Y-39776400D02*
X150285000Y-43152410D01*
D50*
X142869500Y-37785000D02*
X143675000Y-37785000D01*
X144250000Y-38150000D02*
X147215000Y-38150000D01*
D49*
X156845000Y-47145000D02*
X156845000Y-46925500D01*
X178054000Y-43688000D02*
X179088000Y-43688000D01*
X157351000Y-46419500D02*
X157351000Y-46228000D01*
X179088000Y-43688000D02*
X179245000Y-43845000D01*
X149642410Y-43795000D02*
X148872500Y-43795000D01*
X156407500Y-46707500D02*
X156845000Y-47145000D01*
X147800000Y-38735000D02*
X148520000Y-38735000D01*
D10*
X148102000Y-43795000D02*
X147447000Y-44450000D01*
D49*
X150266400Y-39795000D02*
X150285000Y-39776400D01*
X150285000Y-38382500D02*
X149577500Y-38382500D01*
X148894800Y-39065200D02*
X148872500Y-39087500D01*
X157197500Y-39795000D02*
X157197500Y-39172500D01*
X154658410Y-43152410D02*
X150285000Y-43152410D01*
D10*
X157607000Y-38707000D02*
X157635000Y-38735000D01*
X157607000Y-37594000D02*
X157607000Y-38707000D01*
D49*
X148872500Y-39795000D02*
X150266400Y-39795000D01*
D10*
X148872500Y-43795000D02*
X148102000Y-43795000D01*
D49*
X155785000Y-44279000D02*
X154658410Y-43152410D01*
D50*
X147215000Y-38150000D02*
X147800000Y-38735000D01*
D49*
X155785000Y-46707500D02*
X155785000Y-44279000D01*
X158665000Y-39795000D02*
X158748000Y-39878000D01*
D50*
X185245000Y-43845000D02*
X179245000Y-43845000D01*
D49*
X149577500Y-38382500D02*
X148894800Y-39065200D01*
X150285000Y-38382500D02*
X150285000Y-39776400D01*
X148520000Y-38735000D02*
X148872500Y-39087500D01*
X150015000Y-36830000D02*
X150285000Y-37100000D01*
D50*
X179245000Y-41245000D02*
X185245000Y-41245000D01*
D49*
X157197500Y-39172500D02*
X157635000Y-38735000D01*
X155785000Y-46707500D02*
X156407500Y-46707500D01*
D50*
X144145000Y-38255000D02*
X144250000Y-38150000D01*
X143675000Y-37785000D02*
X144145000Y-38255000D01*
D10*
%TO.N,VCCMeasure*%
X143022376Y-42905624D02*
X143022376Y-43327376D01*
X142387376Y-42270624D02*
X143022376Y-42905624D01*
X143022376Y-43327376D02*
X143383000Y-43688000D01*
X151284728Y-45593000D02*
X151285000Y-45593272D01*
X142346624Y-42270624D02*
X142387376Y-42270624D01*
X151285000Y-45593272D02*
X151285000Y-46707500D01*
D51*
%TO.N,GND*%
X144780000Y-42573000D02*
X144752000Y-42573000D01*
X144788086Y-42045086D02*
X144780000Y-42037000D01*
X144780000Y-41501000D02*
X144625000Y-41501000D01*
D52*
X148872500Y-43295000D02*
X148043670Y-43295000D01*
D50*
X155285000Y-44922000D02*
X155285000Y-46707500D01*
D49*
X157197500Y-40295000D02*
X155865000Y-40295000D01*
D51*
X143743624Y-42184376D02*
X143891000Y-42037000D01*
X144625000Y-41501000D02*
X143891000Y-40767000D01*
D53*
X111508000Y-41484000D02*
X114312000Y-41484000D01*
D52*
X148043670Y-43295000D02*
X147523670Y-43815000D01*
D53*
X114312000Y-41484000D02*
X114495600Y-41300400D01*
D52*
X147523670Y-43815000D02*
X147094000Y-43815000D01*
D51*
X144780000Y-42037000D02*
X144780000Y-41501000D01*
D54*
X111508000Y-42111200D02*
X111508000Y-41484000D01*
D49*
X150785000Y-38382500D02*
X150785000Y-37020000D01*
D51*
X144780000Y-42573000D02*
X144780000Y-42037000D01*
D50*
X155801000Y-48105000D02*
X156845000Y-48105000D01*
D51*
X146608800Y-42045086D02*
X144788086Y-42045086D01*
D50*
X154305000Y-43942000D02*
X155285000Y-44922000D01*
X155285000Y-47589000D02*
X155801000Y-48105000D01*
D52*
X147094000Y-43815000D02*
X146459000Y-44450000D01*
D49*
X150785000Y-37020000D02*
X150975000Y-36830000D01*
D51*
X143743624Y-42184376D02*
X143743624Y-43032624D01*
D54*
X111220200Y-42399000D02*
X111508000Y-42111200D01*
D50*
X155285000Y-46707500D02*
X155285000Y-47589000D01*
D51*
X144752000Y-42573000D02*
X144018000Y-43307000D01*
D54*
X110438000Y-42399000D02*
X111220200Y-42399000D01*
D51*
X143743624Y-43032624D02*
X144018000Y-43307000D01*
X143891000Y-42037000D02*
X144780000Y-42037000D01*
D52*
%TO.N,Net-(U3-PA12)*%
X157197500Y-41295000D02*
X158494596Y-41295000D01*
X158494596Y-41295000D02*
X158746315Y-41043281D01*
%TO.N,Net-(U3-PA11)*%
X157197500Y-41795000D02*
X158506000Y-41795000D01*
X158506000Y-41795000D02*
X158748000Y-42037000D01*
D54*
%TO.N,Net-(J2-VBUS-PadA4)*%
X108305600Y-44491001D02*
X109448600Y-44491001D01*
X104751600Y-42412600D02*
X104751600Y-44094400D01*
X109638000Y-42399000D02*
X109638000Y-44301601D01*
X108305600Y-44491001D02*
X107908999Y-44094400D01*
X109638000Y-44301601D02*
X109448600Y-44491001D01*
X109448600Y-44491001D02*
X109448600Y-45720000D01*
X107908999Y-44094400D02*
X104751600Y-44094400D01*
X104738000Y-42399000D02*
X104751600Y-42412600D01*
D10*
X108305600Y-45362400D02*
X108305600Y-44491001D01*
%TO.N,Net-(U1-VIN)*%
X102779100Y-45329600D02*
X102779100Y-45046900D01*
X102779100Y-45046900D02*
X103731600Y-44094400D01*
D52*
%TO.N,USB_D+*%
X107438000Y-42399000D02*
X107438000Y-41311499D01*
X106513000Y-41449000D02*
X107363000Y-41449000D01*
D10*
X161336521Y-41736479D02*
X161053678Y-41736479D01*
X102779100Y-45829600D02*
X102754101Y-45854599D01*
D52*
X107438000Y-41524000D02*
X107438000Y-42399000D01*
D10*
X102779100Y-45829600D02*
X102319200Y-45829600D01*
X161053678Y-41736479D02*
X160633181Y-41315982D01*
D52*
X106438000Y-41524000D02*
X106513000Y-41449000D01*
D10*
X101955600Y-44399200D02*
X102362000Y-43992800D01*
D52*
X107438000Y-41311499D02*
X107488000Y-41261499D01*
D10*
X160039016Y-41315982D02*
X159766315Y-41043281D01*
X101955600Y-45466000D02*
X101955600Y-44399200D01*
D52*
X106438000Y-42399000D02*
X106438000Y-41524000D01*
D10*
X102319200Y-45829600D02*
X101955600Y-45466000D01*
D52*
X107363000Y-41449000D02*
X107438000Y-41524000D01*
D10*
X160633181Y-41315982D02*
X160039016Y-41315982D01*
D52*
X107488000Y-41261499D02*
X107488000Y-40873914D01*
X159766315Y-41043281D02*
X159766315Y-39879685D01*
X159766315Y-39879685D02*
X159768000Y-39878000D01*
X107488000Y-40873914D02*
X107263000Y-40648914D01*
D50*
%TO.N,Net-(U3-PB2)*%
X157863000Y-47117000D02*
X157861000Y-47115000D01*
X158623000Y-47117000D02*
X157863000Y-47117000D01*
X153785000Y-45593000D02*
X153785000Y-46707500D01*
D10*
%TO.N,USB_D-*%
X101498400Y-45770800D02*
X101498400Y-43992800D01*
D52*
X106938000Y-42399000D02*
X106938000Y-43274000D01*
D10*
X102779100Y-46329600D02*
X102057200Y-46329600D01*
D52*
X107938000Y-43274000D02*
X107938000Y-42399000D01*
X107888000Y-40873914D02*
X108113000Y-40648914D01*
X107863000Y-43349000D02*
X107938000Y-43274000D01*
X107938000Y-42399000D02*
X107938000Y-41311499D01*
D10*
X160735479Y-42054678D02*
X160446785Y-41765984D01*
D52*
X107013000Y-43349000D02*
X107863000Y-43349000D01*
D10*
X102779100Y-46329600D02*
X102754101Y-46304601D01*
X160446785Y-41765984D02*
X160039016Y-41765984D01*
X101752400Y-46024800D02*
X101498400Y-45770800D01*
X160039016Y-41765984D02*
X159768000Y-42037000D01*
X102057200Y-46329600D02*
X101752400Y-46024800D01*
D52*
X107888000Y-41261499D02*
X107888000Y-40873914D01*
X106938000Y-43274000D02*
X107013000Y-43349000D01*
D10*
X160735479Y-42337521D02*
X160735479Y-42054678D01*
D52*
X107938000Y-41311499D02*
X107888000Y-41261499D01*
D50*
%TO.N,Heater_CTRL*%
X131058000Y-39160800D02*
X131058000Y-39664000D01*
X129288000Y-37820600D02*
X129717800Y-37820600D01*
X129717800Y-37820600D02*
X131058000Y-39160800D01*
X132729600Y-39664000D02*
X133604000Y-40538400D01*
X131058000Y-39664000D02*
X132729600Y-39664000D01*
X144602200Y-46736000D02*
X150256500Y-46736000D01*
X133604000Y-40538400D02*
X138404600Y-40538400D01*
X150256500Y-46736000D02*
X150285000Y-46707500D01*
X138404600Y-40538400D02*
X144602200Y-46736000D01*
D52*
%TO.N,BOOT0*%
X167335200Y-36449000D02*
X152501600Y-36449000D01*
X152501600Y-36449000D02*
X152285000Y-36665600D01*
X168381200Y-37495000D02*
X167335200Y-36449000D01*
X152285000Y-36665600D02*
X152285000Y-38382500D01*
X171625000Y-37495000D02*
X168381200Y-37495000D01*
X177625000Y-37495000D02*
X171625000Y-37495000D01*
D49*
%TO.N,NTC_Measure*%
X158877000Y-45466000D02*
X158877000Y-45722000D01*
X158877000Y-45722000D02*
X158371000Y-46228000D01*
X149860000Y-44795000D02*
X148872500Y-44795000D01*
D50*
%TO.N,VBUS*%
X139192000Y-37747000D02*
X132285800Y-37747000D01*
D53*
X119176800Y-42019200D02*
X119895600Y-41300400D01*
X119176800Y-47498000D02*
X119176800Y-44145200D01*
D50*
X120853200Y-41300400D02*
X119895600Y-41300400D01*
X125476000Y-36677600D02*
X120853200Y-41300400D01*
D53*
X119176800Y-47498000D02*
X117321600Y-47498000D01*
X117321600Y-47498000D02*
X117270800Y-47447200D01*
D50*
X131216400Y-36677600D02*
X125476000Y-36677600D01*
D10*
X140883600Y-39685000D02*
X141507000Y-39061600D01*
D53*
X117270800Y-47447200D02*
X117270800Y-48260000D01*
X117270800Y-46024800D02*
X117270800Y-47447200D01*
X119278400Y-44246800D02*
X119176800Y-44145200D01*
D10*
X141507000Y-39061600D02*
X141507000Y-38415158D01*
D53*
X121336800Y-44246800D02*
X119278400Y-44246800D01*
D50*
X132285800Y-37747000D02*
X131216400Y-36677600D01*
D10*
X140594500Y-39685000D02*
X141625376Y-40715876D01*
D53*
X119176800Y-44145200D02*
X119176800Y-42019200D01*
D10*
X140594500Y-39685000D02*
X140883600Y-39685000D01*
X141625376Y-40715876D02*
X141625376Y-41549376D01*
D50*
X139192000Y-37747000D02*
X140556500Y-37747000D01*
D10*
X141507000Y-38415158D02*
X140876842Y-37785000D01*
X140876842Y-37785000D02*
X140594500Y-37785000D01*
D50*
X140556500Y-37747000D02*
X140594500Y-37785000D01*
D52*
%TO.N,SDA1*%
X105704100Y-47329600D02*
X106003600Y-47329600D01*
X106476800Y-47802800D02*
X107340400Y-47802800D01*
D10*
X154785000Y-46707500D02*
X154785000Y-48161000D01*
D52*
X107340400Y-47802800D02*
X107899200Y-47244000D01*
X106003600Y-47329600D02*
X106476800Y-47802800D01*
D10*
X154305000Y-48641000D02*
X137531000Y-48641000D01*
X154785000Y-48161000D02*
X154305000Y-48641000D01*
X137531000Y-48641000D02*
X135890000Y-47000000D01*
D52*
%TO.N,SCL1*%
X106519600Y-46829600D02*
X106934000Y-47244000D01*
D10*
X154285000Y-47899000D02*
X154285000Y-46707500D01*
D52*
X105704100Y-46829600D02*
X106519600Y-46829600D01*
D10*
X154051000Y-48133000D02*
X154285000Y-47899000D01*
X139563000Y-48133000D02*
X154051000Y-48133000D01*
X135890000Y-44460000D02*
X139563000Y-48133000D01*
D52*
%TO.N,Net-(J2-CC2)*%
X100787200Y-46228000D02*
X100787200Y-46716463D01*
X105438000Y-42399000D02*
X105438000Y-41277600D01*
X105438000Y-41277600D02*
X105410000Y-41249600D01*
X101400337Y-47329600D02*
X102779100Y-47329600D01*
X100787200Y-46716463D02*
X101400337Y-47329600D01*
%TO.N,Net-(J2-CC1)*%
X108438000Y-41625200D02*
X108915200Y-41148000D01*
X101744400Y-46829600D02*
X102779100Y-46829600D01*
X101498400Y-46583600D02*
X101744400Y-46829600D01*
X108438000Y-42399000D02*
X108438000Y-41625200D01*
D10*
%TO.N,/Heater*%
X168910000Y-132842000D02*
X171450000Y-132842000D01*
X186690000Y-61722000D02*
X179070000Y-61722000D01*
X107950000Y-56642000D02*
X107950000Y-132842000D01*
X133350000Y-132842000D02*
X135890000Y-132842000D01*
X120650000Y-56642000D02*
X123190000Y-56642000D01*
X168910000Y-56642000D02*
X168910000Y-132842000D01*
X173990000Y-132842000D02*
X176530000Y-132842000D01*
X166370000Y-56642000D02*
X168910000Y-56642000D01*
X148590000Y-56642000D02*
X148590000Y-132842000D01*
X102870000Y-64262000D02*
X102870000Y-132842000D01*
X100330000Y-125222000D02*
X100330000Y-64262000D01*
X120650000Y-132842000D02*
X120650000Y-56642000D01*
X151130000Y-56642000D02*
X153670000Y-56642000D01*
X118668800Y-54102000D02*
X100330000Y-54102000D01*
X125730000Y-132842000D02*
X125730000Y-56642000D01*
X163830000Y-132842000D02*
X166370000Y-132842000D01*
X181610000Y-125222000D02*
X181610000Y-64262000D01*
X165862000Y-54102000D02*
X166370000Y-53594000D01*
X128270000Y-56642000D02*
X128270000Y-132842000D01*
X165862000Y-54102000D02*
X124764800Y-54102000D01*
X179070000Y-64262000D02*
X179070000Y-125222000D01*
X163830000Y-56642000D02*
X163830000Y-132842000D01*
X118110000Y-132842000D02*
X120650000Y-132842000D01*
X176530000Y-64262000D02*
X179070000Y-64262000D01*
X110490000Y-56642000D02*
X113030000Y-56642000D01*
X173990000Y-56642000D02*
X173990000Y-132842000D01*
X153670000Y-56642000D02*
X153670000Y-132842000D01*
X135890000Y-56642000D02*
X138430000Y-56642000D01*
X140970000Y-132842000D02*
X140970000Y-56642000D01*
X146050000Y-132842000D02*
X146050000Y-56642000D01*
X105410000Y-132842000D02*
X105410000Y-56642000D01*
X158750000Y-56642000D02*
X158750000Y-132842000D01*
X118110000Y-56642000D02*
X118110000Y-132842000D01*
X184150000Y-125222000D02*
X186690000Y-125222000D01*
X128270000Y-132842000D02*
X130810000Y-132842000D01*
X110490000Y-132842000D02*
X110490000Y-56642000D01*
X97790000Y-125222000D02*
X100330000Y-125222000D01*
X166370000Y-132842000D02*
X166370000Y-56642000D01*
X105410000Y-56642000D02*
X107950000Y-56642000D01*
X171450000Y-56642000D02*
X173990000Y-56642000D01*
X95250000Y-125222000D02*
X95250000Y-64262000D01*
X184150000Y-64262000D02*
X184150000Y-125222000D01*
X130810000Y-132842000D02*
X130810000Y-56642000D01*
X124764800Y-54102000D02*
X124256800Y-53594000D01*
X115570000Y-56642000D02*
X118110000Y-56642000D01*
X138430000Y-132842000D02*
X140970000Y-132842000D01*
X107950000Y-132842000D02*
X110490000Y-132842000D01*
X179070000Y-54102000D02*
X171958000Y-54102000D01*
X97790000Y-64262000D02*
X97790000Y-125222000D01*
X161290000Y-56642000D02*
X163830000Y-56642000D01*
X100330000Y-61722000D02*
X92710000Y-61722000D01*
X92710000Y-125222000D02*
X95250000Y-125222000D01*
X179070000Y-61722000D02*
X179070000Y-54102000D01*
X176530000Y-132842000D02*
X176530000Y-64262000D01*
X148590000Y-132842000D02*
X151130000Y-132842000D01*
X115570000Y-132842000D02*
X115570000Y-56642000D01*
X100330000Y-64262000D02*
X102870000Y-64262000D01*
X92710000Y-61722000D02*
X92710000Y-125222000D01*
X161290000Y-132842000D02*
X161290000Y-56642000D01*
X100330000Y-54102000D02*
X100330000Y-61722000D01*
X140970000Y-56642000D02*
X143510000Y-56642000D01*
X179070000Y-125222000D02*
X181610000Y-125222000D01*
X113030000Y-132842000D02*
X115570000Y-132842000D01*
X181610000Y-64262000D02*
X184150000Y-64262000D01*
X130810000Y-56642000D02*
X133350000Y-56642000D01*
X143510000Y-132842000D02*
X146050000Y-132842000D01*
X186690000Y-125222000D02*
X186690000Y-61722000D01*
X158750000Y-132842000D02*
X161290000Y-132842000D01*
X156210000Y-56642000D02*
X158750000Y-56642000D01*
X133350000Y-56642000D02*
X133350000Y-132842000D01*
X156210000Y-132842000D02*
X156210000Y-56642000D01*
X95250000Y-64262000D02*
X97790000Y-64262000D01*
X102870000Y-132842000D02*
X105410000Y-132842000D01*
X135890000Y-132842000D02*
X135890000Y-56642000D01*
X153670000Y-132842000D02*
X156210000Y-132842000D01*
X119176800Y-53594000D02*
X118668800Y-54102000D01*
X123190000Y-56642000D02*
X123190000Y-132842000D01*
X138430000Y-56642000D02*
X138430000Y-132842000D01*
X113030000Y-56642000D02*
X113030000Y-132842000D01*
X143510000Y-56642000D02*
X143510000Y-132842000D01*
D53*
X171450000Y-53594000D02*
X166370000Y-53594000D01*
D10*
X125730000Y-56642000D02*
X128270000Y-56642000D01*
X123190000Y-132842000D02*
X125730000Y-132842000D01*
X171958000Y-54102000D02*
X171450000Y-53594000D01*
X171450000Y-132842000D02*
X171450000Y-56642000D01*
X146050000Y-56642000D02*
X148590000Y-56642000D01*
X151130000Y-132842000D02*
X151130000Y-56642000D01*
D53*
%TO.N,Net-(D1-A)*%
X111404400Y-48564800D02*
X113666000Y-48564800D01*
X113666000Y-48564800D02*
X113970800Y-48260000D01*
X97439000Y-48006000D02*
X97410000Y-48035000D01*
D10*
%TO.N,Net-(U3-PD0)*%
X146608800Y-40845086D02*
X145084086Y-40845086D01*
X145084086Y-40845086D02*
X144780000Y-40541000D01*
X147223388Y-40845086D02*
X146608800Y-40845086D01*
X148872500Y-41795000D02*
X148173302Y-41795000D01*
X148173302Y-41795000D02*
X147223388Y-40845086D01*
%TO.N,Net-(U3-PD1)*%
X147223216Y-43245086D02*
X146608800Y-43245086D01*
X148173302Y-42295000D02*
X147223216Y-43245086D01*
X145067914Y-43245086D02*
X144780000Y-43533000D01*
X146608800Y-43245086D02*
X145067914Y-43245086D01*
X148872500Y-42295000D02*
X148173302Y-42295000D01*
%TO.N,Net-(MOSFET1-G)*%
X109448600Y-46440999D02*
X108364199Y-46440999D01*
X108364199Y-46440999D02*
X108305600Y-46382400D01*
X107086400Y-46382399D02*
X107086401Y-46382400D01*
X107086401Y-46382400D02*
X108305600Y-46382400D01*
%TO.N,Net-(U1-GATE)*%
X107086400Y-45362401D02*
X106525601Y-45362401D01*
X106492800Y-45329600D02*
X105704100Y-45329600D01*
X106525601Y-45362401D02*
X106492800Y-45329600D01*
%TO.N,BTN_B*%
X179245000Y-47595000D02*
X185245000Y-47595000D01*
X157197500Y-44795000D02*
X176445000Y-44795000D01*
X176445000Y-44795000D02*
X179245000Y-47595000D01*
%TO.N,BTN_A*%
X157197500Y-44295000D02*
X161318000Y-44295000D01*
X179245000Y-37495000D02*
X185245000Y-37495000D01*
X166497000Y-39116000D02*
X177635351Y-39116000D01*
X161318000Y-44295000D02*
X166497000Y-39116000D01*
X179245000Y-37506351D02*
X179245000Y-37495000D01*
X177635351Y-39116000D02*
X179245000Y-37506351D01*
%TO.N,HeaterMeasure*%
X152285000Y-45593524D02*
X152285000Y-46707500D01*
X163701000Y-47498000D02*
X162941000Y-47498000D01*
X162181000Y-47498000D02*
X162941000Y-47498000D01*
X152284476Y-45593000D02*
X152285000Y-45593524D01*
%TO.N,/HeatMon*%
X164721000Y-47498000D02*
X166370000Y-47498000D01*
%TD*%
%TA.AperFunction,Conductor*%
%TO.N,GND*%
G36*
X102576012Y-35879407D02*
G01*
X102611976Y-35928907D01*
X102611976Y-35990093D01*
X102576012Y-36039593D01*
X102555706Y-36050964D01*
X102394326Y-36117808D01*
X102394314Y-36117814D01*
X102230537Y-36227249D01*
X102230533Y-36227252D01*
X102091252Y-36366533D01*
X102091249Y-36366537D01*
X101981814Y-36530314D01*
X101981808Y-36530326D01*
X101906429Y-36712309D01*
X101906429Y-36712311D01*
X101868000Y-36905506D01*
X101868000Y-37053999D01*
X101868001Y-37054000D01*
X102568000Y-37054000D01*
X102568000Y-37554000D01*
X101868001Y-37554000D01*
X101868000Y-37554001D01*
X101868000Y-37702493D01*
X101906429Y-37895688D01*
X101906429Y-37895690D01*
X101981808Y-38077673D01*
X101981814Y-38077685D01*
X102091249Y-38241462D01*
X102091252Y-38241466D01*
X102230533Y-38380747D01*
X102230537Y-38380750D01*
X102394314Y-38490185D01*
X102394326Y-38490191D01*
X102576304Y-38565568D01*
X102576315Y-38565571D01*
X102618000Y-38573862D01*
X102618000Y-37770988D01*
X102627940Y-37788205D01*
X102683795Y-37844060D01*
X102752204Y-37883556D01*
X102828504Y-37904000D01*
X102907496Y-37904000D01*
X102983796Y-37883556D01*
X103052205Y-37844060D01*
X103108060Y-37788205D01*
X103118000Y-37770988D01*
X103118000Y-38573861D01*
X103159684Y-38565571D01*
X103159695Y-38565568D01*
X103341673Y-38490191D01*
X103341685Y-38490185D01*
X103505462Y-38380750D01*
X103505466Y-38380747D01*
X103644747Y-38241466D01*
X103644750Y-38241462D01*
X103754185Y-38077685D01*
X103754191Y-38077673D01*
X103829570Y-37895690D01*
X103829570Y-37895688D01*
X103867999Y-37702493D01*
X103868000Y-37702490D01*
X103868000Y-37554001D01*
X103867999Y-37554000D01*
X103168000Y-37554000D01*
X103168000Y-37054000D01*
X103867999Y-37054000D01*
X103868000Y-37053999D01*
X103868000Y-36905509D01*
X103867999Y-36905506D01*
X103829570Y-36712311D01*
X103829570Y-36712309D01*
X103754191Y-36530326D01*
X103754185Y-36530314D01*
X103644750Y-36366537D01*
X103644747Y-36366533D01*
X103505466Y-36227252D01*
X103505462Y-36227249D01*
X103341685Y-36117814D01*
X103341673Y-36117808D01*
X103180294Y-36050964D01*
X103133768Y-36011228D01*
X103119484Y-35951733D01*
X103142899Y-35895205D01*
X103195067Y-35863235D01*
X103218179Y-35860500D01*
X111157821Y-35860500D01*
X111216012Y-35879407D01*
X111251976Y-35928907D01*
X111251976Y-35990093D01*
X111216012Y-36039593D01*
X111195706Y-36050964D01*
X111034326Y-36117808D01*
X111034314Y-36117814D01*
X110870537Y-36227249D01*
X110870533Y-36227252D01*
X110731252Y-36366533D01*
X110731249Y-36366537D01*
X110621814Y-36530314D01*
X110621808Y-36530326D01*
X110546429Y-36712309D01*
X110546429Y-36712311D01*
X110508000Y-36905506D01*
X110508000Y-37053999D01*
X110508001Y-37054000D01*
X111208000Y-37054000D01*
X111208000Y-37554000D01*
X110508001Y-37554000D01*
X110508000Y-37554001D01*
X110508000Y-37702493D01*
X110546429Y-37895688D01*
X110546429Y-37895690D01*
X110621808Y-38077673D01*
X110621814Y-38077685D01*
X110731249Y-38241462D01*
X110731252Y-38241466D01*
X110870533Y-38380747D01*
X110870537Y-38380750D01*
X111034314Y-38490185D01*
X111034326Y-38490191D01*
X111216304Y-38565568D01*
X111216315Y-38565571D01*
X111258000Y-38573862D01*
X111258000Y-37770988D01*
X111267940Y-37788205D01*
X111323795Y-37844060D01*
X111392204Y-37883556D01*
X111468504Y-37904000D01*
X111547496Y-37904000D01*
X111623796Y-37883556D01*
X111692205Y-37844060D01*
X111748060Y-37788205D01*
X111758000Y-37770988D01*
X111758000Y-38573861D01*
X111799684Y-38565571D01*
X111799695Y-38565568D01*
X111981673Y-38490191D01*
X111981685Y-38490185D01*
X112145462Y-38380750D01*
X112145466Y-38380747D01*
X112284747Y-38241466D01*
X112284750Y-38241462D01*
X112394185Y-38077685D01*
X112394191Y-38077673D01*
X112469570Y-37895690D01*
X112469570Y-37895688D01*
X112507999Y-37702493D01*
X112508000Y-37702490D01*
X112508000Y-37554001D01*
X112507999Y-37554000D01*
X111808000Y-37554000D01*
X111808000Y-37054000D01*
X112507999Y-37054000D01*
X112508000Y-37053999D01*
X112508000Y-36905509D01*
X112507999Y-36905506D01*
X112469570Y-36712311D01*
X112469570Y-36712309D01*
X112394191Y-36530326D01*
X112394185Y-36530314D01*
X112284750Y-36366537D01*
X112284747Y-36366533D01*
X112145466Y-36227252D01*
X112145462Y-36227249D01*
X111981685Y-36117814D01*
X111981673Y-36117808D01*
X111820294Y-36050964D01*
X111773768Y-36011228D01*
X111759484Y-35951733D01*
X111782899Y-35895205D01*
X111835067Y-35863235D01*
X111858179Y-35860500D01*
X150597305Y-35860500D01*
X150655496Y-35879407D01*
X150691460Y-35928907D01*
X150691460Y-35990093D01*
X150655496Y-36039593D01*
X150624926Y-36054569D01*
X150578801Y-36067969D01*
X150439624Y-36150279D01*
X150439622Y-36150280D01*
X150337657Y-36252245D01*
X150283141Y-36280022D01*
X150252167Y-36280022D01*
X150222754Y-36275363D01*
X150185736Y-36269500D01*
X149844262Y-36269500D01*
X149752825Y-36283983D01*
X149752821Y-36283984D01*
X149642610Y-36340140D01*
X149555140Y-36427610D01*
X149498983Y-36537823D01*
X149484500Y-36629263D01*
X149484500Y-37030737D01*
X149498983Y-37122174D01*
X149498984Y-37122178D01*
X149547044Y-37216500D01*
X149555141Y-37232391D01*
X149642609Y-37319859D01*
X149752825Y-37376017D01*
X149800987Y-37383645D01*
X149855504Y-37411422D01*
X149883281Y-37465939D01*
X149884500Y-37481426D01*
X149884500Y-37883000D01*
X149865593Y-37941191D01*
X149816093Y-37977155D01*
X149785500Y-37982000D01*
X149636306Y-37982000D01*
X149636290Y-37981999D01*
X149630227Y-37981999D01*
X149524773Y-37981999D01*
X149423353Y-38009175D01*
X149423342Y-38009178D01*
X149423341Y-38009177D01*
X149422917Y-38009291D01*
X149422914Y-38009292D01*
X149422913Y-38009293D01*
X149331587Y-38062020D01*
X149331584Y-38062022D01*
X149257019Y-38136586D01*
X149257020Y-38136587D01*
X149257018Y-38136589D01*
X149257017Y-38136589D01*
X148942502Y-38451103D01*
X148887986Y-38478880D01*
X148827554Y-38469309D01*
X148802498Y-38451105D01*
X148765913Y-38414520D01*
X148765910Y-38414518D01*
X148765908Y-38414516D01*
X148674591Y-38361794D01*
X148674593Y-38361794D01*
X148635070Y-38351204D01*
X148572727Y-38334500D01*
X148572725Y-38334500D01*
X148302757Y-38334500D01*
X148244566Y-38315593D01*
X148232759Y-38305509D01*
X148172391Y-38245141D01*
X148062175Y-38188983D01*
X148062176Y-38188983D01*
X147970737Y-38174500D01*
X147970735Y-38174500D01*
X147811545Y-38174500D01*
X147753354Y-38155593D01*
X147741541Y-38145504D01*
X147445563Y-37849526D01*
X147445563Y-37849525D01*
X147359941Y-37800091D01*
X147359937Y-37800089D01*
X147310415Y-37786819D01*
X147310415Y-37786820D01*
X147287425Y-37780660D01*
X147264436Y-37774500D01*
X147264435Y-37774500D01*
X144530649Y-37774500D01*
X144485704Y-37763710D01*
X144469522Y-37755465D01*
X144437175Y-37738983D01*
X144345737Y-37724500D01*
X144345735Y-37724500D01*
X144309105Y-37724500D01*
X144250914Y-37705593D01*
X144214950Y-37656093D01*
X144213019Y-37647558D01*
X144213010Y-37647561D01*
X144211330Y-37641296D01*
X144211330Y-37641291D01*
X144155861Y-37507375D01*
X144067621Y-37392379D01*
X143952625Y-37304139D01*
X143952621Y-37304137D01*
X143818709Y-37248670D01*
X143818708Y-37248669D01*
X143675000Y-37229750D01*
X143674999Y-37229750D01*
X143530065Y-37248831D01*
X143501656Y-37248459D01*
X143413522Y-37234500D01*
X142325478Y-37234500D01*
X142325476Y-37234501D01*
X142231700Y-37249352D01*
X142231695Y-37249354D01*
X142118659Y-37306949D01*
X142028949Y-37396659D01*
X141971354Y-37509695D01*
X141956500Y-37603477D01*
X141956500Y-37966520D01*
X141956501Y-37966523D01*
X141971352Y-38060299D01*
X141971354Y-38060304D01*
X142028950Y-38173342D01*
X142118658Y-38263050D01*
X142231696Y-38320646D01*
X142325481Y-38335500D01*
X143413518Y-38335499D01*
X143470015Y-38326551D01*
X143530444Y-38336122D01*
X143573709Y-38379386D01*
X143583916Y-38421882D01*
X143584196Y-38421861D01*
X143584334Y-38423625D01*
X143584500Y-38424313D01*
X143584500Y-38425737D01*
X143595022Y-38492168D01*
X143585450Y-38552600D01*
X143567245Y-38577657D01*
X143465280Y-38679622D01*
X143465279Y-38679624D01*
X143382969Y-38818801D01*
X143382969Y-38818802D01*
X143337854Y-38974087D01*
X143335000Y-39010368D01*
X143335000Y-39035500D01*
X143316093Y-39093691D01*
X143266593Y-39129655D01*
X143236000Y-39134500D01*
X142325478Y-39134500D01*
X142325476Y-39134501D01*
X142231700Y-39149352D01*
X142231695Y-39149354D01*
X142118659Y-39206949D01*
X142028949Y-39296659D01*
X141971354Y-39409695D01*
X141956500Y-39503477D01*
X141956500Y-39866520D01*
X141956501Y-39866523D01*
X141971352Y-39960299D01*
X141971354Y-39960304D01*
X142028950Y-40073342D01*
X142118658Y-40163050D01*
X142231696Y-40220646D01*
X142325481Y-40235500D01*
X143413518Y-40235499D01*
X143413521Y-40235499D01*
X143413522Y-40235498D01*
X143460411Y-40228072D01*
X143507299Y-40220647D01*
X143507299Y-40220646D01*
X143507304Y-40220646D01*
X143620342Y-40163050D01*
X143710050Y-40073342D01*
X143730057Y-40034075D01*
X143773319Y-39990812D01*
X143833751Y-39981240D01*
X143845887Y-39983952D01*
X143874082Y-39992143D01*
X143874087Y-39992144D01*
X143895000Y-39993789D01*
X143895000Y-39064000D01*
X143913907Y-39005809D01*
X143942548Y-38985000D01*
X146061210Y-38985000D01*
X146062855Y-39005912D01*
X146062856Y-39005920D01*
X146107969Y-39161197D01*
X146107969Y-39161198D01*
X146190278Y-39300374D01*
X146304625Y-39414721D01*
X146443802Y-39497030D01*
X146589999Y-39539504D01*
X146590000Y-39539504D01*
X146590000Y-38985001D01*
X146589999Y-38985000D01*
X146061210Y-38985000D01*
X143942548Y-38985000D01*
X143963407Y-38969845D01*
X143994000Y-38965000D01*
X144949504Y-38965000D01*
X144949504Y-38964999D01*
X144907030Y-38818802D01*
X144907030Y-38818801D01*
X144821924Y-38674895D01*
X144808576Y-38615183D01*
X144832876Y-38559030D01*
X144885541Y-38527884D01*
X144907137Y-38525500D01*
X146991000Y-38525500D01*
X147049191Y-38544407D01*
X147085155Y-38593907D01*
X147090000Y-38624500D01*
X147090000Y-39539504D01*
X147236197Y-39497030D01*
X147236198Y-39497030D01*
X147375375Y-39414720D01*
X147375377Y-39414719D01*
X147477341Y-39312755D01*
X147531858Y-39284977D01*
X147562827Y-39284977D01*
X147629265Y-39295500D01*
X147935167Y-39295499D01*
X147993357Y-39314406D01*
X148029321Y-39363906D01*
X148029322Y-39425091D01*
X148005171Y-39464502D01*
X147939253Y-39530419D01*
X147890741Y-39634455D01*
X147884500Y-39681862D01*
X147884500Y-39908133D01*
X147884501Y-39908145D01*
X147890740Y-39955541D01*
X147890741Y-39955547D01*
X147912944Y-40003162D01*
X147920400Y-40063891D01*
X147912944Y-40086838D01*
X147890743Y-40134448D01*
X147890741Y-40134453D01*
X147890741Y-40134455D01*
X147885844Y-40171649D01*
X147884500Y-40181861D01*
X147884500Y-40376221D01*
X147865593Y-40434412D01*
X147816093Y-40470376D01*
X147754907Y-40470376D01*
X147730499Y-40458537D01*
X147656542Y-40409121D01*
X147656540Y-40409120D01*
X147656537Y-40409119D01*
X147656536Y-40409119D01*
X147583484Y-40394587D01*
X147583474Y-40394586D01*
X145634126Y-40394586D01*
X145634125Y-40394586D01*
X145634115Y-40394587D01*
X145561063Y-40409119D01*
X145561057Y-40409121D01*
X145494500Y-40453593D01*
X145435611Y-40470201D01*
X145378208Y-40449023D01*
X145344216Y-40398149D01*
X145340893Y-40374131D01*
X145340804Y-40374139D01*
X145340684Y-40372615D01*
X145340499Y-40371277D01*
X145340499Y-40370262D01*
X145334882Y-40334801D01*
X145326017Y-40278825D01*
X145325881Y-40278559D01*
X145303632Y-40234893D01*
X145269859Y-40168609D01*
X145182391Y-40081141D01*
X145072175Y-40024983D01*
X145072176Y-40024983D01*
X144980737Y-40010500D01*
X144803603Y-40010500D01*
X144745412Y-39991593D01*
X144709448Y-39942093D01*
X144709448Y-39880907D01*
X144733600Y-39841496D01*
X144824719Y-39750377D01*
X144824720Y-39750375D01*
X144907030Y-39611198D01*
X144907030Y-39611197D01*
X144949504Y-39465000D01*
X144395001Y-39465000D01*
X144395000Y-39465001D01*
X144395000Y-40022743D01*
X144376093Y-40080934D01*
X144366009Y-40092740D01*
X144324846Y-40133904D01*
X144290140Y-40168610D01*
X144233983Y-40278823D01*
X144219500Y-40370263D01*
X144219500Y-40711738D01*
X144230022Y-40778168D01*
X144220450Y-40838600D01*
X144202245Y-40863657D01*
X144100280Y-40965622D01*
X144100279Y-40965624D01*
X144017969Y-41104801D01*
X144017969Y-41104802D01*
X143972854Y-41260089D01*
X143972693Y-41260973D01*
X143972486Y-41261355D01*
X143971444Y-41264944D01*
X143970671Y-41264719D01*
X143943636Y-41314818D01*
X143888479Y-41341301D01*
X143850685Y-41339071D01*
X143788490Y-41323102D01*
X143628047Y-41323102D01*
X143472652Y-41363000D01*
X143345631Y-41432829D01*
X144027173Y-42114371D01*
X144054950Y-42168888D01*
X144045379Y-42229320D01*
X144027173Y-42254379D01*
X143813627Y-42467925D01*
X143759110Y-42495702D01*
X143698678Y-42486131D01*
X143673619Y-42467925D01*
X142992077Y-41786383D01*
X142941061Y-41879183D01*
X142896458Y-41921068D01*
X142835756Y-41928736D01*
X142784302Y-41901493D01*
X142628707Y-41745897D01*
X142625291Y-41743350D01*
X142603861Y-41727370D01*
X142567992Y-41700623D01*
X142446309Y-41658851D01*
X142446308Y-41658851D01*
X142336149Y-41658851D01*
X142277958Y-41639944D01*
X142241994Y-41590444D01*
X142237149Y-41559851D01*
X142237149Y-41449690D01*
X142195376Y-41328007D01*
X142151112Y-41268646D01*
X142150107Y-41267298D01*
X142004872Y-41122063D01*
X141977095Y-41067546D01*
X141975876Y-41052059D01*
X141975876Y-40669733D01*
X141975181Y-40667139D01*
X141951990Y-40580588D01*
X141942769Y-40564617D01*
X141942769Y-40564616D01*
X141905846Y-40500664D01*
X141500584Y-40095401D01*
X141472807Y-40040885D01*
X141482377Y-39980457D01*
X141492646Y-39960304D01*
X141507500Y-39866519D01*
X141507499Y-39597787D01*
X141526406Y-39539598D01*
X141536489Y-39527791D01*
X141787470Y-39276812D01*
X141833614Y-39196888D01*
X141840149Y-39172500D01*
X141857500Y-39107744D01*
X141857500Y-38369014D01*
X141833614Y-38279870D01*
X141813563Y-38245141D01*
X141813562Y-38245139D01*
X141813562Y-38245138D01*
X141787469Y-38199945D01*
X141536495Y-37948970D01*
X141508718Y-37894454D01*
X141507499Y-37878967D01*
X141507499Y-37603478D01*
X141507498Y-37603476D01*
X141492647Y-37509700D01*
X141492646Y-37509698D01*
X141492646Y-37509696D01*
X141435050Y-37396658D01*
X141345342Y-37306950D01*
X141232304Y-37249354D01*
X141232305Y-37249354D01*
X141138521Y-37234500D01*
X140050478Y-37234500D01*
X140050476Y-37234501D01*
X139956700Y-37249352D01*
X139956695Y-37249354D01*
X139843658Y-37306950D01*
X139843656Y-37306951D01*
X139808103Y-37342504D01*
X139753586Y-37370281D01*
X139738100Y-37371500D01*
X139719758Y-37371500D01*
X139661567Y-37352593D01*
X139649755Y-37342504D01*
X139594392Y-37287142D01*
X139594391Y-37287141D01*
X139484175Y-37230983D01*
X139484176Y-37230983D01*
X139392736Y-37216500D01*
X138991262Y-37216500D01*
X138899825Y-37230983D01*
X138899821Y-37230984D01*
X138789609Y-37287141D01*
X138789607Y-37287142D01*
X138734245Y-37342504D01*
X138679728Y-37370281D01*
X138664242Y-37371500D01*
X132482345Y-37371500D01*
X132424154Y-37352593D01*
X132412341Y-37342504D01*
X131446963Y-36377126D01*
X131446963Y-36377125D01*
X131361341Y-36327691D01*
X131361334Y-36327688D01*
X131313585Y-36314894D01*
X131313584Y-36314894D01*
X131265838Y-36302100D01*
X131265836Y-36302100D01*
X131265835Y-36302100D01*
X125525436Y-36302100D01*
X125426564Y-36302100D01*
X125378813Y-36314895D01*
X125378812Y-36314894D01*
X125331062Y-36327689D01*
X125331058Y-36327691D01*
X125245436Y-36377125D01*
X125245437Y-36377126D01*
X121401657Y-40220904D01*
X121347140Y-40248681D01*
X121331653Y-40249900D01*
X118347733Y-40249900D01*
X118347729Y-40249900D01*
X118347728Y-40249901D01*
X118340549Y-40250672D01*
X118288119Y-40256308D01*
X118288114Y-40256309D01*
X118153270Y-40306602D01*
X118038058Y-40392850D01*
X118038050Y-40392858D01*
X117951802Y-40508070D01*
X117901510Y-40642911D01*
X117901508Y-40642922D01*
X117899675Y-40659977D01*
X117896512Y-40689399D01*
X117895100Y-40702529D01*
X117895100Y-41898266D01*
X117895100Y-41898269D01*
X117895101Y-41898272D01*
X117895447Y-41901493D01*
X117901508Y-41957880D01*
X117901509Y-41957885D01*
X117951802Y-42092729D01*
X118032724Y-42200826D01*
X118038054Y-42207946D01*
X118038057Y-42207948D01*
X118038058Y-42207949D01*
X118153270Y-42294197D01*
X118288111Y-42344489D01*
X118288112Y-42344489D01*
X118288117Y-42344491D01*
X118337883Y-42349841D01*
X118393718Y-42374860D01*
X118424185Y-42427921D01*
X118426300Y-42448274D01*
X118426300Y-45067300D01*
X118407393Y-45125491D01*
X118357893Y-45161455D01*
X118327300Y-45166300D01*
X117292544Y-45166300D01*
X117200256Y-45166300D01*
X117182980Y-45170928D01*
X117157366Y-45174300D01*
X117000321Y-45174300D01*
X117000315Y-45174301D01*
X116943688Y-45180387D01*
X116943686Y-45180388D01*
X116815574Y-45228172D01*
X116815573Y-45228172D01*
X116815572Y-45228173D01*
X116706115Y-45310111D01*
X116706111Y-45310115D01*
X116624173Y-45419571D01*
X116576387Y-45547687D01*
X116574159Y-45568415D01*
X116571517Y-45593000D01*
X116570300Y-45604318D01*
X116570300Y-45735114D01*
X116562765Y-45772998D01*
X116549142Y-45805887D01*
X116521933Y-45942675D01*
X116520300Y-45950882D01*
X116520300Y-47373282D01*
X116520300Y-48333918D01*
X116549142Y-48478913D01*
X116562762Y-48511796D01*
X116562765Y-48511802D01*
X116570300Y-48549686D01*
X116570300Y-48680478D01*
X116570301Y-48680484D01*
X116576387Y-48737111D01*
X116576387Y-48737112D01*
X116576388Y-48737114D01*
X116624172Y-48865226D01*
X116706113Y-48974687D01*
X116808385Y-49051246D01*
X116843638Y-49101255D01*
X116842764Y-49162434D01*
X116806097Y-49211415D01*
X116749056Y-49229500D01*
X114492544Y-49229500D01*
X114434353Y-49210593D01*
X114398389Y-49161093D01*
X114398389Y-49099907D01*
X114433214Y-49051246D01*
X114535487Y-48974687D01*
X114617428Y-48865226D01*
X114665212Y-48737114D01*
X114671300Y-48680485D01*
X114671299Y-48549685D01*
X114678835Y-48511799D01*
X114692458Y-48478913D01*
X114721300Y-48333918D01*
X114721300Y-48186083D01*
X114692458Y-48041088D01*
X114678833Y-48008194D01*
X114671299Y-47970313D01*
X114671299Y-47839521D01*
X114671299Y-47839516D01*
X114665212Y-47782886D01*
X114617428Y-47654774D01*
X114535487Y-47545313D01*
X114487804Y-47509618D01*
X114426028Y-47463373D01*
X114426026Y-47463372D01*
X114297914Y-47415588D01*
X114297913Y-47415587D01*
X114259695Y-47411479D01*
X114241285Y-47409500D01*
X114241281Y-47409500D01*
X113700321Y-47409500D01*
X113700315Y-47409501D01*
X113643688Y-47415587D01*
X113643686Y-47415588D01*
X113515574Y-47463372D01*
X113515573Y-47463372D01*
X113515572Y-47463373D01*
X113406115Y-47545311D01*
X113406111Y-47545315D01*
X113324173Y-47654772D01*
X113324172Y-47654774D01*
X113288691Y-47749898D01*
X113250642Y-47797812D01*
X113195935Y-47814300D01*
X111330481Y-47814300D01*
X111185485Y-47843142D01*
X111048906Y-47899715D01*
X110925985Y-47981848D01*
X110821448Y-48086385D01*
X110739315Y-48209306D01*
X110682742Y-48345885D01*
X110653900Y-48490881D01*
X110653900Y-48638718D01*
X110682742Y-48783714D01*
X110739315Y-48920293D01*
X110739316Y-48920295D01*
X110821449Y-49043216D01*
X110838731Y-49060498D01*
X110866507Y-49115013D01*
X110856936Y-49175445D01*
X110813671Y-49218710D01*
X110768726Y-49229500D01*
X109872912Y-49229500D01*
X109657714Y-49265410D01*
X109451352Y-49336253D01*
X109294824Y-49420963D01*
X109259475Y-49440093D01*
X109229805Y-49463186D01*
X109204996Y-49482495D01*
X109147462Y-49503315D01*
X109088678Y-49486341D01*
X109074191Y-49474377D01*
X108995314Y-49395500D01*
X108995311Y-49395498D01*
X108995309Y-49395496D01*
X108881189Y-49329609D01*
X108881191Y-49329609D01*
X108831799Y-49316375D01*
X108753892Y-49295500D01*
X108622108Y-49295500D01*
X108544200Y-49316375D01*
X108494809Y-49329609D01*
X108380690Y-49395496D01*
X108375540Y-49399449D01*
X108374183Y-49397680D01*
X108328465Y-49420963D01*
X108268036Y-49411378D01*
X108250874Y-49398909D01*
X108250460Y-49399449D01*
X108245309Y-49395496D01*
X108131189Y-49329609D01*
X108131191Y-49329609D01*
X108081799Y-49316375D01*
X108003892Y-49295500D01*
X107872108Y-49295500D01*
X107794200Y-49316375D01*
X107744809Y-49329609D01*
X107630690Y-49395496D01*
X107625540Y-49399449D01*
X107624183Y-49397680D01*
X107578465Y-49420963D01*
X107518036Y-49411378D01*
X107500874Y-49398909D01*
X107500460Y-49399449D01*
X107495309Y-49395496D01*
X107381189Y-49329609D01*
X107381191Y-49329609D01*
X107331799Y-49316375D01*
X107253892Y-49295500D01*
X107122108Y-49295500D01*
X107044200Y-49316375D01*
X106994809Y-49329609D01*
X106880690Y-49395496D01*
X106875540Y-49399449D01*
X106874183Y-49397680D01*
X106828465Y-49420963D01*
X106768036Y-49411378D01*
X106750874Y-49398909D01*
X106750460Y-49399449D01*
X106745309Y-49395496D01*
X106631189Y-49329609D01*
X106631191Y-49329609D01*
X106581799Y-49316375D01*
X106503892Y-49295500D01*
X106372108Y-49295500D01*
X106294200Y-49316375D01*
X106244809Y-49329609D01*
X106130690Y-49395496D01*
X106125540Y-49399449D01*
X106124183Y-49397680D01*
X106078465Y-49420963D01*
X106018036Y-49411378D01*
X106000874Y-49398909D01*
X106000460Y-49399449D01*
X105995309Y-49395496D01*
X105881189Y-49329609D01*
X105881191Y-49329609D01*
X105831799Y-49316375D01*
X105753892Y-49295500D01*
X105622108Y-49295500D01*
X105544200Y-49316375D01*
X105494809Y-49329609D01*
X105380690Y-49395496D01*
X105380685Y-49395500D01*
X105301812Y-49474373D01*
X105247295Y-49502150D01*
X105186863Y-49492578D01*
X105171002Y-49482494D01*
X105116528Y-49440095D01*
X105116525Y-49440093D01*
X104924647Y-49336253D01*
X104805936Y-49295500D01*
X104718289Y-49265411D01*
X104718286Y-49265410D01*
X104718285Y-49265410D01*
X104503088Y-49229500D01*
X104433562Y-49229500D01*
X99019017Y-49229500D01*
X98960826Y-49210593D01*
X98924862Y-49161093D01*
X98924862Y-49099907D01*
X98960826Y-49050407D01*
X98981127Y-49039037D01*
X99157598Y-48965941D01*
X99329655Y-48850977D01*
X99475977Y-48704655D01*
X99590941Y-48532598D01*
X99670130Y-48341420D01*
X99710500Y-48138465D01*
X99710500Y-47931535D01*
X99670130Y-47728580D01*
X99590941Y-47537402D01*
X99475977Y-47365345D01*
X99329655Y-47219023D01*
X99329651Y-47219020D01*
X99157597Y-47104058D01*
X98966418Y-47024869D01*
X98763467Y-46984500D01*
X98763465Y-46984500D01*
X96056535Y-46984500D01*
X96056532Y-46984500D01*
X95853581Y-47024869D01*
X95662402Y-47104058D01*
X95490348Y-47219020D01*
X95344020Y-47365348D01*
X95229058Y-47537402D01*
X95161884Y-47699576D01*
X95149870Y-47728580D01*
X95139145Y-47782500D01*
X95109500Y-47931532D01*
X95109500Y-48138467D01*
X95149869Y-48341418D01*
X95229058Y-48532597D01*
X95327873Y-48680485D01*
X95344023Y-48704655D01*
X95490345Y-48850977D01*
X95662402Y-48965941D01*
X95838870Y-49039036D01*
X95885394Y-49078773D01*
X95899678Y-49138267D01*
X95876263Y-49194795D01*
X95824094Y-49226765D01*
X95800983Y-49229500D01*
X92712985Y-49229500D01*
X92707008Y-49229319D01*
X92691338Y-49228371D01*
X92446036Y-49213533D01*
X92434169Y-49212092D01*
X92179943Y-49165503D01*
X92168336Y-49162642D01*
X91921581Y-49085751D01*
X91910406Y-49081513D01*
X91777015Y-49021479D01*
X91674712Y-48975436D01*
X91664126Y-48969880D01*
X91442941Y-48836168D01*
X91433103Y-48829377D01*
X91229656Y-48669987D01*
X91220707Y-48662060D01*
X91037939Y-48479292D01*
X91030012Y-48470343D01*
X90870622Y-48266896D01*
X90863831Y-48257058D01*
X90792140Y-48138467D01*
X90730117Y-48035870D01*
X90724563Y-48025287D01*
X90719441Y-48013907D01*
X90618482Y-47789584D01*
X90614251Y-47778426D01*
X90537356Y-47531660D01*
X90534496Y-47520056D01*
X90532583Y-47509618D01*
X90487906Y-47265829D01*
X90486466Y-47253962D01*
X90486105Y-47248000D01*
X90470681Y-46992992D01*
X90470500Y-46987015D01*
X90470500Y-46438467D01*
X91659500Y-46438467D01*
X91699869Y-46641418D01*
X91779058Y-46832597D01*
X91894020Y-47004651D01*
X91894023Y-47004655D01*
X92040345Y-47150977D01*
X92212402Y-47265941D01*
X92403580Y-47345130D01*
X92606535Y-47385500D01*
X92606536Y-47385500D01*
X92813464Y-47385500D01*
X92813465Y-47385500D01*
X93016420Y-47345130D01*
X93207598Y-47265941D01*
X93379655Y-47150977D01*
X93525977Y-47004655D01*
X93640941Y-46832598D01*
X93720130Y-46641420D01*
X93760500Y-46438465D01*
X93760500Y-46228000D01*
X100231950Y-46228000D01*
X100250869Y-46371708D01*
X100250870Y-46371709D01*
X100293389Y-46474362D01*
X100306339Y-46505625D01*
X100394579Y-46620621D01*
X100394583Y-46620624D01*
X100394584Y-46620625D01*
X100422967Y-46642404D01*
X100457623Y-46692828D01*
X100461700Y-46720946D01*
X100461700Y-46759316D01*
X100474547Y-46807261D01*
X100483883Y-46842106D01*
X100526731Y-46916320D01*
X100526733Y-46916322D01*
X100526735Y-46916325D01*
X101139870Y-47529459D01*
X101139872Y-47529462D01*
X101200475Y-47590065D01*
X101249778Y-47618530D01*
X101274699Y-47632918D01*
X101274701Y-47632918D01*
X101274702Y-47632919D01*
X101288507Y-47636618D01*
X101357481Y-47655100D01*
X101357483Y-47655101D01*
X101357484Y-47655101D01*
X101449253Y-47655101D01*
X101449269Y-47655100D01*
X102230537Y-47655100D01*
X102272376Y-47664376D01*
X102346840Y-47699099D01*
X102392421Y-47705100D01*
X103165778Y-47705099D01*
X103211360Y-47699099D01*
X103211361Y-47699099D01*
X103278024Y-47668013D01*
X103311399Y-47652450D01*
X103389450Y-47574399D01*
X103436099Y-47474360D01*
X103442100Y-47428779D01*
X103442099Y-47230422D01*
X103436099Y-47184840D01*
X103422231Y-47155100D01*
X103406535Y-47121438D01*
X103399078Y-47060709D01*
X103406533Y-47037762D01*
X103436099Y-46974360D01*
X103442100Y-46928779D01*
X103442099Y-46730422D01*
X103441463Y-46725594D01*
X103436099Y-46684840D01*
X103436098Y-46684838D01*
X103406535Y-46621438D01*
X103399078Y-46560709D01*
X103406533Y-46537762D01*
X103436099Y-46474360D01*
X103442100Y-46428779D01*
X103442099Y-46230422D01*
X103436099Y-46184840D01*
X103426836Y-46164975D01*
X103406535Y-46121438D01*
X103399078Y-46060709D01*
X103406533Y-46037762D01*
X103436099Y-45974360D01*
X103442100Y-45928779D01*
X103442099Y-45730422D01*
X103441319Y-45724500D01*
X103436099Y-45684840D01*
X103436098Y-45684838D01*
X103406535Y-45621438D01*
X103399078Y-45560709D01*
X103406533Y-45537762D01*
X103436099Y-45474360D01*
X103442100Y-45428779D01*
X103442099Y-45230422D01*
X103436099Y-45184840D01*
X103436099Y-45184838D01*
X103389451Y-45084803D01*
X103389450Y-45084802D01*
X103389450Y-45084801D01*
X103383166Y-45078517D01*
X103355391Y-45024003D01*
X103364962Y-44963571D01*
X103383169Y-44938512D01*
X103627786Y-44693896D01*
X103682302Y-44666119D01*
X103697789Y-44664900D01*
X103903178Y-44664900D01*
X103903182Y-44664900D01*
X103978118Y-44653982D01*
X104093702Y-44597476D01*
X104171598Y-44519579D01*
X104226113Y-44491804D01*
X104286545Y-44501375D01*
X104311600Y-44519578D01*
X104389498Y-44597476D01*
X104505082Y-44653982D01*
X104580018Y-44664900D01*
X104580021Y-44664900D01*
X104923178Y-44664900D01*
X104923182Y-44664900D01*
X104998118Y-44653982D01*
X105098395Y-44604958D01*
X105141875Y-44594900D01*
X107660677Y-44594900D01*
X107718868Y-44613807D01*
X107730681Y-44623896D01*
X107884800Y-44778015D01*
X107912577Y-44832532D01*
X107903006Y-44892964D01*
X107884802Y-44918019D01*
X107842722Y-44960100D01*
X107802522Y-45000300D01*
X107784939Y-45036267D01*
X107742395Y-45080240D01*
X107682129Y-45090809D01*
X107627161Y-45063935D01*
X107607058Y-45036264D01*
X107589476Y-45000299D01*
X107498502Y-44909325D01*
X107382918Y-44852819D01*
X107307982Y-44841901D01*
X106864818Y-44841901D01*
X106795325Y-44852026D01*
X106789882Y-44852819D01*
X106674299Y-44909324D01*
X106674296Y-44909326D01*
X106631080Y-44952542D01*
X106576563Y-44980319D01*
X106545540Y-44978695D01*
X106545376Y-44979947D01*
X106538944Y-44979100D01*
X106538943Y-44979100D01*
X106199051Y-44979100D01*
X106157213Y-44969825D01*
X106136360Y-44960101D01*
X106090779Y-44954100D01*
X106090777Y-44954100D01*
X105317425Y-44954100D01*
X105317415Y-44954101D01*
X105271840Y-44960100D01*
X105271838Y-44960100D01*
X105171803Y-45006748D01*
X105171801Y-45006750D01*
X105093750Y-45084801D01*
X105047101Y-45184840D01*
X105042290Y-45221387D01*
X105041100Y-45230422D01*
X105041100Y-45428773D01*
X105041101Y-45428785D01*
X105047100Y-45474357D01*
X105047100Y-45474358D01*
X105047101Y-45474360D01*
X105056574Y-45494674D01*
X105076665Y-45537761D01*
X105084121Y-45598491D01*
X105076665Y-45621438D01*
X105049311Y-45680100D01*
X105047101Y-45684840D01*
X105043075Y-45715424D01*
X105041100Y-45730422D01*
X105041100Y-45928773D01*
X105041101Y-45928785D01*
X105047100Y-45974357D01*
X105076665Y-46037761D01*
X105084121Y-46098491D01*
X105076665Y-46121438D01*
X105053475Y-46171170D01*
X105047101Y-46184840D01*
X105044632Y-46203598D01*
X105041100Y-46230422D01*
X105041100Y-46428773D01*
X105041101Y-46428785D01*
X105047100Y-46474357D01*
X105076665Y-46537761D01*
X105084121Y-46598491D01*
X105076665Y-46621438D01*
X105047102Y-46684837D01*
X105047101Y-46684840D01*
X105041736Y-46725595D01*
X105041100Y-46730422D01*
X105041100Y-46928773D01*
X105041101Y-46928785D01*
X105047100Y-46974357D01*
X105047100Y-46974358D01*
X105047101Y-46974360D01*
X105053002Y-46987015D01*
X105076665Y-47037761D01*
X105084121Y-47098491D01*
X105076665Y-47121438D01*
X105049401Y-47179907D01*
X105047101Y-47184840D01*
X105043411Y-47212872D01*
X105041100Y-47230422D01*
X105041100Y-47428773D01*
X105041101Y-47428785D01*
X105047100Y-47474359D01*
X105047100Y-47474361D01*
X105093748Y-47574396D01*
X105093749Y-47574397D01*
X105093750Y-47574399D01*
X105171801Y-47652450D01*
X105271840Y-47699099D01*
X105317421Y-47705100D01*
X105877764Y-47705099D01*
X105935955Y-47724006D01*
X105947767Y-47734095D01*
X106276937Y-48063264D01*
X106276942Y-48063268D01*
X106351157Y-48106116D01*
X106351155Y-48106116D01*
X106351159Y-48106117D01*
X106351161Y-48106118D01*
X106433947Y-48128300D01*
X106433949Y-48128300D01*
X107383251Y-48128300D01*
X107383253Y-48128300D01*
X107466039Y-48106118D01*
X107466041Y-48106116D01*
X107466043Y-48106116D01*
X107540262Y-48063265D01*
X107578341Y-48025186D01*
X107780798Y-47822726D01*
X107835312Y-47794950D01*
X107863716Y-47794578D01*
X107899200Y-47799250D01*
X108042909Y-47780330D01*
X108176825Y-47724861D01*
X108291821Y-47636621D01*
X108380061Y-47521625D01*
X108435530Y-47387709D01*
X108454450Y-47244000D01*
X108452662Y-47230422D01*
X108435530Y-47100291D01*
X108410468Y-47039785D01*
X108405668Y-46978788D01*
X108437637Y-46926619D01*
X108494165Y-46903205D01*
X108501932Y-46902900D01*
X108527178Y-46902900D01*
X108527182Y-46902900D01*
X108602118Y-46891982D01*
X108717702Y-46835476D01*
X108732684Y-46820493D01*
X108787199Y-46792718D01*
X108802686Y-46791499D01*
X108895772Y-46791499D01*
X108934231Y-46803168D01*
X108935448Y-46800232D01*
X108944455Y-46803961D01*
X108944460Y-46803965D01*
X109000008Y-46815014D01*
X109017515Y-46818497D01*
X109017520Y-46818497D01*
X109017526Y-46818499D01*
X109017527Y-46818499D01*
X109879673Y-46818499D01*
X109879674Y-46818499D01*
X109952740Y-46803965D01*
X109965436Y-46795482D01*
X110024324Y-46778872D01*
X110081728Y-46800049D01*
X110102754Y-46822794D01*
X110113833Y-46839375D01*
X110131534Y-46865866D01*
X110214424Y-46921251D01*
X110312200Y-46940700D01*
X110312201Y-46940700D01*
X112140998Y-46940700D01*
X112141000Y-46940700D01*
X112141516Y-46940597D01*
X112157578Y-46938746D01*
X112301366Y-46933999D01*
X113982528Y-46878506D01*
X113997055Y-46876360D01*
X114011517Y-46875299D01*
X114241279Y-46875299D01*
X114241284Y-46875299D01*
X114297914Y-46869212D01*
X114426026Y-46821428D01*
X114535487Y-46739487D01*
X114617428Y-46630026D01*
X114665212Y-46501914D01*
X114671300Y-46445285D01*
X114671299Y-45604316D01*
X114665212Y-45547686D01*
X114617428Y-45419574D01*
X114535487Y-45310113D01*
X114489733Y-45275862D01*
X114426028Y-45228173D01*
X114426026Y-45228172D01*
X114373650Y-45208636D01*
X114325738Y-45170587D01*
X114309257Y-45117082D01*
X114299874Y-44344085D01*
X114289022Y-44261130D01*
X114286241Y-44254791D01*
X114254251Y-44181861D01*
X114242013Y-44153960D01*
X114242009Y-44153956D01*
X114242008Y-44153954D01*
X114162755Y-44067863D01*
X114162754Y-44067862D01*
X114162753Y-44067861D01*
X114059831Y-44012162D01*
X114059828Y-44012161D01*
X113944400Y-43992900D01*
X112158796Y-43992900D01*
X112145857Y-43991625D01*
X112145843Y-43991777D01*
X112141001Y-43991300D01*
X112141000Y-43991300D01*
X110312200Y-43991300D01*
X110312197Y-43991300D01*
X110256814Y-44002317D01*
X110196053Y-43995125D01*
X110151123Y-43953593D01*
X110138500Y-43905219D01*
X110138500Y-43714507D01*
X110157407Y-43656316D01*
X110167496Y-43644503D01*
X110188000Y-43623999D01*
X110188000Y-43158613D01*
X110188477Y-43148904D01*
X110188500Y-43148670D01*
X110188500Y-41649326D01*
X110188476Y-41649083D01*
X110188000Y-41639384D01*
X110188000Y-41596292D01*
X110206907Y-41538101D01*
X110256407Y-41502137D01*
X110261350Y-41500673D01*
X110300135Y-41490281D01*
X110431365Y-41414515D01*
X110518998Y-41326881D01*
X110573513Y-41299106D01*
X110633945Y-41308677D01*
X110677210Y-41351942D01*
X110688000Y-41396887D01*
X110688000Y-43623999D01*
X110688001Y-43624000D01*
X110785824Y-43624000D01*
X110845370Y-43617598D01*
X110845381Y-43617596D01*
X110980088Y-43567353D01*
X110980090Y-43567352D01*
X111095184Y-43481192D01*
X111095192Y-43481184D01*
X111181352Y-43366090D01*
X111181353Y-43366088D01*
X111231596Y-43231381D01*
X111231598Y-43231370D01*
X111238000Y-43171824D01*
X111238000Y-43067099D01*
X111256907Y-43008908D01*
X111258000Y-43007748D01*
X111258000Y-42200988D01*
X111267940Y-42218205D01*
X111323795Y-42274060D01*
X111392204Y-42313556D01*
X111468504Y-42334000D01*
X111547496Y-42334000D01*
X111623796Y-42313556D01*
X111692205Y-42274060D01*
X111748060Y-42218205D01*
X111758000Y-42200988D01*
X111758000Y-43003861D01*
X111799684Y-42995571D01*
X111799695Y-42995568D01*
X111981673Y-42920191D01*
X111981685Y-42920185D01*
X112145462Y-42810750D01*
X112145466Y-42810747D01*
X112284747Y-42671466D01*
X112284750Y-42671462D01*
X112394185Y-42507684D01*
X112394187Y-42507680D01*
X112398208Y-42497972D01*
X112437943Y-42451445D01*
X112497438Y-42437159D01*
X112541647Y-42451593D01*
X112676477Y-42534757D01*
X112842906Y-42589906D01*
X112945612Y-42600399D01*
X114245598Y-42600399D01*
X114245600Y-42600398D01*
X114745600Y-42600398D01*
X114745601Y-42600399D01*
X116045586Y-42600399D01*
X116148287Y-42589907D01*
X116148299Y-42589904D01*
X116314724Y-42534756D01*
X116463940Y-42442719D01*
X116587919Y-42318740D01*
X116679956Y-42169524D01*
X116735106Y-42003093D01*
X116745600Y-41900387D01*
X116745600Y-41550401D01*
X116745599Y-41550400D01*
X114745601Y-41550400D01*
X114745600Y-41550401D01*
X114745600Y-42600398D01*
X114245600Y-42600398D01*
X114245600Y-41550401D01*
X114245599Y-41550400D01*
X112551001Y-41550400D01*
X112551000Y-41550401D01*
X112551000Y-41635000D01*
X112532093Y-41693191D01*
X112482593Y-41729155D01*
X112452000Y-41734000D01*
X111808000Y-41734000D01*
X111808000Y-41234000D01*
X112202599Y-41234000D01*
X112202600Y-41233999D01*
X112202600Y-41149400D01*
X112221507Y-41091209D01*
X112271007Y-41055245D01*
X112301600Y-41050400D01*
X114245599Y-41050400D01*
X114245600Y-41050399D01*
X114745600Y-41050399D01*
X114745601Y-41050400D01*
X116745598Y-41050400D01*
X116745599Y-41050399D01*
X116745599Y-40700413D01*
X116735107Y-40597712D01*
X116735104Y-40597700D01*
X116679956Y-40431275D01*
X116587919Y-40282059D01*
X116463940Y-40158080D01*
X116314724Y-40066043D01*
X116148293Y-40010893D01*
X116045587Y-40000400D01*
X114745601Y-40000400D01*
X114745600Y-40000401D01*
X114745600Y-41050399D01*
X114245600Y-41050399D01*
X114245600Y-40000401D01*
X114245599Y-40000400D01*
X112945613Y-40000400D01*
X112842912Y-40010892D01*
X112842900Y-40010895D01*
X112676475Y-40066043D01*
X112527258Y-40158081D01*
X112527255Y-40158083D01*
X112406779Y-40278559D01*
X112352263Y-40306336D01*
X112291831Y-40296764D01*
X112266772Y-40278558D01*
X112145471Y-40157256D01*
X112145462Y-40157249D01*
X111981685Y-40047814D01*
X111981673Y-40047808D01*
X111799691Y-39972429D01*
X111758000Y-39964136D01*
X111758000Y-40767011D01*
X111748060Y-40749795D01*
X111692205Y-40693940D01*
X111623796Y-40654444D01*
X111547496Y-40634000D01*
X111468504Y-40634000D01*
X111392204Y-40654444D01*
X111323795Y-40693940D01*
X111267940Y-40749795D01*
X111258000Y-40767011D01*
X111258000Y-39964136D01*
X111216308Y-39972429D01*
X111034326Y-40047808D01*
X111034314Y-40047814D01*
X110870537Y-40157249D01*
X110870533Y-40157252D01*
X110731252Y-40296533D01*
X110731249Y-40296537D01*
X110621810Y-40460322D01*
X110613017Y-40481552D01*
X110573280Y-40528078D01*
X110513785Y-40542361D01*
X110457257Y-40518946D01*
X110451562Y-40513682D01*
X110431365Y-40493485D01*
X110431362Y-40493483D01*
X110431360Y-40493481D01*
X110300138Y-40417720D01*
X110300140Y-40417720D01*
X110238410Y-40401180D01*
X110153766Y-40378500D01*
X110002234Y-40378500D01*
X109917590Y-40401180D01*
X109855860Y-40417720D01*
X109724639Y-40493481D01*
X109617481Y-40600639D01*
X109541720Y-40731860D01*
X109535418Y-40755381D01*
X109529313Y-40778168D01*
X109528471Y-40781309D01*
X109495147Y-40832623D01*
X109438025Y-40854550D01*
X109378925Y-40838714D01*
X109354302Y-40815954D01*
X109307821Y-40755379D01*
X109192825Y-40667139D01*
X109192821Y-40667137D01*
X109058909Y-40611670D01*
X109058908Y-40611669D01*
X108915200Y-40592750D01*
X108785270Y-40609856D01*
X108765058Y-40612517D01*
X108764707Y-40609856D01*
X108714918Y-40607219D01*
X108667390Y-40568687D01*
X108652296Y-40527736D01*
X108651291Y-40520105D01*
X108649330Y-40505205D01*
X108593861Y-40371289D01*
X108505621Y-40256293D01*
X108390625Y-40168053D01*
X108390621Y-40168051D01*
X108256709Y-40112584D01*
X108256708Y-40112583D01*
X108113000Y-40093664D01*
X107969291Y-40112583D01*
X107969290Y-40112584D01*
X107835378Y-40168051D01*
X107835374Y-40168053D01*
X107748268Y-40234893D01*
X107690592Y-40255317D01*
X107631926Y-40237940D01*
X107627732Y-40234893D01*
X107540625Y-40168053D01*
X107540621Y-40168051D01*
X107406709Y-40112584D01*
X107406708Y-40112583D01*
X107263000Y-40093664D01*
X107119291Y-40112583D01*
X107119290Y-40112584D01*
X106985378Y-40168051D01*
X106985374Y-40168053D01*
X106870381Y-40256291D01*
X106870377Y-40256295D01*
X106782139Y-40371288D01*
X106782137Y-40371292D01*
X106726670Y-40505204D01*
X106726669Y-40505205D01*
X106707750Y-40648913D01*
X106707750Y-40648914D01*
X106726669Y-40792622D01*
X106726670Y-40792623D01*
X106774517Y-40908139D01*
X106782139Y-40926539D01*
X106782141Y-40926542D01*
X106782142Y-40926543D01*
X106811062Y-40964233D01*
X106831486Y-41021909D01*
X106814108Y-41080574D01*
X106765567Y-41117822D01*
X106732520Y-41123500D01*
X106555853Y-41123500D01*
X106470147Y-41123500D01*
X106429288Y-41134448D01*
X106387356Y-41145683D01*
X106313142Y-41188531D01*
X106177533Y-41324140D01*
X106148748Y-41373999D01*
X106103279Y-41414941D01*
X106063011Y-41423500D01*
X106055243Y-41423500D01*
X105997052Y-41404593D01*
X105961088Y-41355093D01*
X105957090Y-41311577D01*
X105959196Y-41295586D01*
X105965250Y-41249600D01*
X105958503Y-41198356D01*
X105946330Y-41105891D01*
X105890861Y-40971975D01*
X105802621Y-40856979D01*
X105687625Y-40768739D01*
X105687621Y-40768737D01*
X105553709Y-40713270D01*
X105553708Y-40713269D01*
X105410000Y-40694350D01*
X105266291Y-40713269D01*
X105266290Y-40713270D01*
X105132378Y-40768737D01*
X105132374Y-40768739D01*
X105067911Y-40818204D01*
X105017379Y-40856979D01*
X105017378Y-40856980D01*
X105012232Y-40860929D01*
X105010615Y-40858822D01*
X104966109Y-40881478D01*
X104905680Y-40871883D01*
X104862432Y-40828602D01*
X104855034Y-40809320D01*
X104834281Y-40731865D01*
X104822661Y-40711738D01*
X104758518Y-40600639D01*
X104758516Y-40600637D01*
X104758515Y-40600635D01*
X104651365Y-40493485D01*
X104651362Y-40493483D01*
X104651360Y-40493481D01*
X104520138Y-40417720D01*
X104520140Y-40417720D01*
X104458410Y-40401180D01*
X104373766Y-40378500D01*
X104222234Y-40378500D01*
X104137590Y-40401180D01*
X104075860Y-40417720D01*
X103944639Y-40493481D01*
X103944633Y-40493486D01*
X103924448Y-40513671D01*
X103869931Y-40541447D01*
X103809499Y-40531875D01*
X103766235Y-40488609D01*
X103762981Y-40481549D01*
X103754190Y-40460324D01*
X103754185Y-40460314D01*
X103644750Y-40296537D01*
X103644747Y-40296533D01*
X103505466Y-40157252D01*
X103505462Y-40157249D01*
X103341685Y-40047814D01*
X103341673Y-40047808D01*
X103159691Y-39972429D01*
X103118000Y-39964136D01*
X103118000Y-40767011D01*
X103108060Y-40749795D01*
X103052205Y-40693940D01*
X102983796Y-40654444D01*
X102907496Y-40634000D01*
X102828504Y-40634000D01*
X102752204Y-40654444D01*
X102683795Y-40693940D01*
X102627940Y-40749795D01*
X102618000Y-40767011D01*
X102618000Y-39964136D01*
X102576308Y-39972429D01*
X102394326Y-40047808D01*
X102394314Y-40047814D01*
X102230537Y-40157249D01*
X102230533Y-40157252D01*
X102091252Y-40296533D01*
X102091249Y-40296537D01*
X101981814Y-40460314D01*
X101981808Y-40460326D01*
X101906429Y-40642309D01*
X101906429Y-40642311D01*
X101868000Y-40835506D01*
X101868000Y-41233999D01*
X101868001Y-41234000D01*
X102568000Y-41234000D01*
X102568000Y-41734000D01*
X101868001Y-41734000D01*
X101868000Y-41734001D01*
X101868000Y-42132493D01*
X101906429Y-42325688D01*
X101906429Y-42325690D01*
X101981808Y-42507673D01*
X101981814Y-42507685D01*
X102091249Y-42671462D01*
X102091252Y-42671466D01*
X102230533Y-42810747D01*
X102230537Y-42810750D01*
X102394314Y-42920185D01*
X102394326Y-42920191D01*
X102576304Y-42995568D01*
X102576315Y-42995571D01*
X102618000Y-43003862D01*
X102618000Y-42200988D01*
X102627940Y-42218205D01*
X102683795Y-42274060D01*
X102752204Y-42313556D01*
X102828504Y-42334000D01*
X102907496Y-42334000D01*
X102983796Y-42313556D01*
X103052205Y-42274060D01*
X103108060Y-42218205D01*
X103147556Y-42149796D01*
X103147769Y-42149000D01*
X103687999Y-42149000D01*
X103688000Y-42148999D01*
X103688000Y-41396887D01*
X103706907Y-41338696D01*
X103756407Y-41302732D01*
X103817593Y-41302732D01*
X103857001Y-41326881D01*
X103944635Y-41414515D01*
X103944637Y-41414516D01*
X103944639Y-41414518D01*
X104075861Y-41490279D01*
X104075862Y-41490279D01*
X104075865Y-41490281D01*
X104114624Y-41500666D01*
X104165937Y-41533988D01*
X104187864Y-41591109D01*
X104188000Y-41596292D01*
X104188000Y-41639384D01*
X104187524Y-41649083D01*
X104187500Y-41649326D01*
X104187500Y-42550000D01*
X104168593Y-42608191D01*
X104119093Y-42644155D01*
X104088500Y-42649000D01*
X103118001Y-42649000D01*
X103118000Y-42649001D01*
X103118000Y-43015869D01*
X103134792Y-43042101D01*
X103138000Y-43067099D01*
X103138000Y-43171824D01*
X103137999Y-43171824D01*
X103144401Y-43231370D01*
X103144403Y-43231381D01*
X103194646Y-43366088D01*
X103194647Y-43366090D01*
X103280807Y-43481184D01*
X103280813Y-43481190D01*
X103303051Y-43497837D01*
X103338305Y-43547845D01*
X103337431Y-43609024D01*
X103313727Y-43647094D01*
X103278525Y-43682296D01*
X103278523Y-43682299D01*
X103254453Y-43731535D01*
X103222018Y-43797882D01*
X103217090Y-43831709D01*
X103211100Y-43872821D01*
X103211100Y-44078210D01*
X103192193Y-44136401D01*
X103182104Y-44148214D01*
X103041327Y-44288991D01*
X102986810Y-44316768D01*
X102926378Y-44307197D01*
X102883113Y-44263932D01*
X102873542Y-44203500D01*
X102879859Y-44181102D01*
X102882520Y-44174678D01*
X102898330Y-44136509D01*
X102917250Y-43992800D01*
X102916309Y-43985656D01*
X102898330Y-43849091D01*
X102842861Y-43715175D01*
X102754621Y-43600179D01*
X102639625Y-43511939D01*
X102639621Y-43511937D01*
X102505709Y-43456470D01*
X102505708Y-43456469D01*
X102362000Y-43437550D01*
X102218291Y-43456469D01*
X102218290Y-43456470D01*
X102084378Y-43511937D01*
X102084374Y-43511939D01*
X102030981Y-43552910D01*
X101998259Y-43578019D01*
X101990468Y-43583997D01*
X101932792Y-43604421D01*
X101874126Y-43587044D01*
X101869932Y-43583997D01*
X101862141Y-43578019D01*
X101776025Y-43511939D01*
X101776021Y-43511937D01*
X101642109Y-43456470D01*
X101642108Y-43456469D01*
X101498400Y-43437550D01*
X101354691Y-43456469D01*
X101354690Y-43456470D01*
X101220778Y-43511937D01*
X101220774Y-43511939D01*
X101105781Y-43600177D01*
X101105777Y-43600181D01*
X101017539Y-43715174D01*
X101017537Y-43715178D01*
X100962070Y-43849090D01*
X100962069Y-43849091D01*
X100943150Y-43992799D01*
X100943150Y-43992800D01*
X100962069Y-44136508D01*
X100962070Y-44136509D01*
X101014849Y-44263932D01*
X101017539Y-44270425D01*
X101017541Y-44270428D01*
X101017542Y-44270429D01*
X101105775Y-44385417D01*
X101105777Y-44385418D01*
X101105779Y-44385421D01*
X101109163Y-44388017D01*
X101143821Y-44438438D01*
X101147900Y-44466562D01*
X101147900Y-45633386D01*
X101128993Y-45691577D01*
X101079493Y-45727541D01*
X101018307Y-45727541D01*
X101011026Y-45724855D01*
X100930909Y-45691670D01*
X100930906Y-45691669D01*
X100930905Y-45691669D01*
X100787200Y-45672750D01*
X100643491Y-45691669D01*
X100643490Y-45691670D01*
X100509578Y-45747137D01*
X100509574Y-45747139D01*
X100394581Y-45835377D01*
X100394577Y-45835381D01*
X100306339Y-45950374D01*
X100306337Y-45950378D01*
X100250870Y-46084290D01*
X100250869Y-46084291D01*
X100231950Y-46227999D01*
X100231950Y-46228000D01*
X93760500Y-46228000D01*
X93760500Y-43731535D01*
X93720130Y-43528580D01*
X93640941Y-43337402D01*
X93525977Y-43165345D01*
X93379655Y-43019023D01*
X93379651Y-43019020D01*
X93207597Y-42904058D01*
X93016418Y-42824869D01*
X92813467Y-42784500D01*
X92813465Y-42784500D01*
X92606535Y-42784500D01*
X92606532Y-42784500D01*
X92403581Y-42824869D01*
X92212402Y-42904058D01*
X92040348Y-43019020D01*
X91894020Y-43165348D01*
X91779058Y-43337402D01*
X91699869Y-43528581D01*
X91659500Y-43731532D01*
X91659500Y-46438467D01*
X90470500Y-46438467D01*
X90470500Y-42237315D01*
X94860000Y-42237315D01*
X94892008Y-42439412D01*
X94955243Y-42634027D01*
X95048138Y-42816346D01*
X95168414Y-42981891D01*
X95313108Y-43126585D01*
X95478653Y-43246861D01*
X95660976Y-43339758D01*
X95660979Y-43339760D01*
X95804916Y-43386528D01*
X96556444Y-42635000D01*
X97263554Y-42635000D01*
X96463555Y-43435000D01*
X98356445Y-43435000D01*
X97556446Y-42635000D01*
X98263553Y-42635000D01*
X99015080Y-43386527D01*
X99159027Y-43339756D01*
X99341346Y-43246861D01*
X99506891Y-43126585D01*
X99651585Y-42981891D01*
X99771861Y-42816346D01*
X99864756Y-42634027D01*
X99927991Y-42439412D01*
X99960000Y-42237315D01*
X99960000Y-42032684D01*
X99927991Y-41830587D01*
X99864756Y-41635972D01*
X99771861Y-41453653D01*
X99651585Y-41288108D01*
X99506891Y-41143414D01*
X99341346Y-41023138D01*
X99159029Y-40930244D01*
X99015081Y-40883470D01*
X98263552Y-41635000D01*
X97556445Y-41635000D01*
X98356445Y-40835000D01*
X96463555Y-40835000D01*
X97263555Y-41635000D01*
X96556446Y-41635000D01*
X95804916Y-40883470D01*
X95660972Y-40930243D01*
X95478653Y-41023138D01*
X95313108Y-41143414D01*
X95168414Y-41288108D01*
X95048138Y-41453653D01*
X94955243Y-41635972D01*
X94892008Y-41830587D01*
X94860000Y-42032684D01*
X94860000Y-42237315D01*
X90470500Y-42237315D01*
X90470500Y-38102984D01*
X90470681Y-38097007D01*
X90472677Y-38064001D01*
X90486466Y-37836031D01*
X90487907Y-37824169D01*
X90488454Y-37821186D01*
X90534498Y-37569933D01*
X90537357Y-37558336D01*
X90538708Y-37554001D01*
X90614253Y-37311567D01*
X90618479Y-37300420D01*
X90724567Y-37064703D01*
X90730113Y-37054135D01*
X90863836Y-36832933D01*
X90870616Y-36823110D01*
X91030019Y-36619647D01*
X91037931Y-36610715D01*
X91220715Y-36427931D01*
X91229647Y-36420019D01*
X91433110Y-36260616D01*
X91442933Y-36253836D01*
X91664135Y-36120113D01*
X91674703Y-36114567D01*
X91910420Y-36008479D01*
X91921567Y-36004253D01*
X92168343Y-35927355D01*
X92179933Y-35924498D01*
X92434172Y-35877906D01*
X92446031Y-35876466D01*
X92707008Y-35860681D01*
X92712985Y-35860500D01*
X92757595Y-35860500D01*
X102517821Y-35860500D01*
X102576012Y-35879407D01*
G37*
%TD.AperFunction*%
%TA.AperFunction,Conductor*%
G36*
X127636659Y-37072007D02*
G01*
X127672623Y-37121507D01*
X127672623Y-37182693D01*
X127648472Y-37222104D01*
X127627261Y-37243314D01*
X127545595Y-37381403D01*
X127545595Y-37381404D01*
X127500834Y-37535472D01*
X127500832Y-37535478D01*
X127498069Y-37570599D01*
X127498070Y-37570600D01*
X128419000Y-37570600D01*
X128477191Y-37589507D01*
X128513155Y-37639007D01*
X128518000Y-37669600D01*
X128518000Y-38633444D01*
X128657195Y-38593004D01*
X128657196Y-38593004D01*
X128795285Y-38511338D01*
X128913140Y-38393484D01*
X128915038Y-38395382D01*
X128956397Y-38367249D01*
X129017553Y-38369144D01*
X129027527Y-38373360D01*
X129041482Y-38380182D01*
X129116418Y-38391100D01*
X129116421Y-38391100D01*
X129459578Y-38391100D01*
X129459582Y-38391100D01*
X129534518Y-38380182D01*
X129613289Y-38341672D01*
X129673869Y-38333101D01*
X129726772Y-38360609D01*
X130178504Y-38812341D01*
X130206281Y-38866858D01*
X130207500Y-38882345D01*
X130207500Y-40561866D01*
X130207500Y-40561869D01*
X130207501Y-40561872D01*
X130207796Y-40564616D01*
X130213908Y-40621480D01*
X130213909Y-40621485D01*
X130264202Y-40756329D01*
X130344548Y-40863657D01*
X130350454Y-40871546D01*
X130350457Y-40871548D01*
X130350458Y-40871549D01*
X130465670Y-40957797D01*
X130600511Y-41008089D01*
X130600512Y-41008089D01*
X130600517Y-41008091D01*
X130660127Y-41014500D01*
X131455872Y-41014499D01*
X131515483Y-41008091D01*
X131629343Y-40965624D01*
X131650329Y-40957797D01*
X131650329Y-40957796D01*
X131650331Y-40957796D01*
X131765546Y-40871546D01*
X131851796Y-40756331D01*
X131852151Y-40755381D01*
X131898475Y-40631179D01*
X131902091Y-40621483D01*
X131908500Y-40561873D01*
X131908500Y-40138500D01*
X131927407Y-40080309D01*
X131976907Y-40044345D01*
X132007500Y-40039500D01*
X132533055Y-40039500D01*
X132591246Y-40058407D01*
X132603059Y-40068496D01*
X133303525Y-40768962D01*
X133303524Y-40768962D01*
X133373438Y-40838875D01*
X133459058Y-40888308D01*
X133459056Y-40888308D01*
X133459060Y-40888309D01*
X133459062Y-40888310D01*
X133505455Y-40900741D01*
X133554564Y-40913900D01*
X133554565Y-40913900D01*
X135104563Y-40913900D01*
X135162754Y-40932807D01*
X135198718Y-40982307D01*
X135198718Y-41043493D01*
X135171260Y-41086060D01*
X135073236Y-41175421D01*
X135035277Y-41225687D01*
X134950328Y-41338177D01*
X134950323Y-41338186D01*
X134859419Y-41520747D01*
X134859418Y-41520750D01*
X134803603Y-41716917D01*
X134784785Y-41920000D01*
X134803603Y-42123083D01*
X134859418Y-42319250D01*
X134950327Y-42501821D01*
X135073236Y-42664579D01*
X135223959Y-42801981D01*
X135397363Y-42909348D01*
X135587544Y-42983024D01*
X135788024Y-43020500D01*
X135991976Y-43020500D01*
X136192456Y-42983024D01*
X136382637Y-42909348D01*
X136556041Y-42801981D01*
X136706764Y-42664579D01*
X136829673Y-42501821D01*
X136920582Y-42319250D01*
X136976397Y-42123083D01*
X136995215Y-41920000D01*
X136976397Y-41716917D01*
X136920582Y-41520750D01*
X136829673Y-41338179D01*
X136706764Y-41175421D01*
X136608740Y-41086060D01*
X136578475Y-41032886D01*
X136585246Y-40972077D01*
X136626466Y-40926860D01*
X136675437Y-40913900D01*
X138208055Y-40913900D01*
X138266246Y-40932807D01*
X138278059Y-40942896D01*
X144301725Y-46966562D01*
X144301724Y-46966562D01*
X144371638Y-47036475D01*
X144457258Y-47085908D01*
X144457262Y-47085910D01*
X144505012Y-47098705D01*
X144505013Y-47098705D01*
X144552764Y-47111500D01*
X144552765Y-47111500D01*
X149785501Y-47111500D01*
X149843692Y-47130407D01*
X149879656Y-47179907D01*
X149884501Y-47210500D01*
X149884501Y-47408145D01*
X149890740Y-47455544D01*
X149890740Y-47455546D01*
X149939251Y-47559576D01*
X149939252Y-47559577D01*
X149939253Y-47559579D01*
X149993172Y-47613498D01*
X150020948Y-47668013D01*
X150011377Y-47728445D01*
X149968112Y-47771710D01*
X149923167Y-47782500D01*
X139749189Y-47782500D01*
X139690998Y-47763593D01*
X139679185Y-47753504D01*
X136925857Y-45000175D01*
X136898080Y-44945658D01*
X136907240Y-44886042D01*
X136920582Y-44859250D01*
X136976397Y-44663083D01*
X136995215Y-44460000D01*
X136976397Y-44256917D01*
X136920582Y-44060750D01*
X136829673Y-43878179D01*
X136706764Y-43715421D01*
X136556041Y-43578019D01*
X136382637Y-43470652D01*
X136192456Y-43396976D01*
X136192455Y-43396975D01*
X136192453Y-43396975D01*
X135991976Y-43359500D01*
X135788024Y-43359500D01*
X135587546Y-43396975D01*
X135540221Y-43415309D01*
X135397363Y-43470652D01*
X135246777Y-43563891D01*
X135223959Y-43578019D01*
X135073237Y-43715420D01*
X134950328Y-43878177D01*
X134950323Y-43878186D01*
X134865260Y-44049017D01*
X134859418Y-44060750D01*
X134803603Y-44256917D01*
X134784785Y-44460000D01*
X134803603Y-44663083D01*
X134859418Y-44859250D01*
X134950327Y-45041821D01*
X135073236Y-45204579D01*
X135223959Y-45341981D01*
X135397363Y-45449348D01*
X135587544Y-45523024D01*
X135788024Y-45560500D01*
X135991976Y-45560500D01*
X136192456Y-45523024D01*
X136323228Y-45472362D01*
X136384316Y-45468973D01*
X136428992Y-45494674D01*
X137803530Y-46869212D01*
X139055815Y-48121496D01*
X139083592Y-48176013D01*
X139074021Y-48236445D01*
X139030756Y-48279710D01*
X138985811Y-48290500D01*
X137717190Y-48290500D01*
X137658999Y-48271593D01*
X137647186Y-48261504D01*
X136925857Y-47540175D01*
X136898080Y-47485658D01*
X136907240Y-47426042D01*
X136920582Y-47399250D01*
X136976397Y-47203083D01*
X136995215Y-47000000D01*
X136976397Y-46796917D01*
X136920582Y-46600750D01*
X136829673Y-46418179D01*
X136706764Y-46255421D01*
X136556041Y-46118019D01*
X136382637Y-46010652D01*
X136192456Y-45936976D01*
X136192455Y-45936975D01*
X136192453Y-45936975D01*
X135991976Y-45899500D01*
X135788024Y-45899500D01*
X135587546Y-45936975D01*
X135552957Y-45950375D01*
X135397363Y-46010652D01*
X135255498Y-46098491D01*
X135223959Y-46118019D01*
X135103317Y-46227999D01*
X135073236Y-46255421D01*
X135059287Y-46273893D01*
X134950328Y-46418177D01*
X134950323Y-46418186D01*
X134859419Y-46600747D01*
X134859418Y-46600750D01*
X134803603Y-46796917D01*
X134784785Y-47000000D01*
X134803603Y-47203083D01*
X134859418Y-47399250D01*
X134950327Y-47581821D01*
X135073236Y-47744579D01*
X135223959Y-47881981D01*
X135397363Y-47989348D01*
X135587544Y-48063024D01*
X135788024Y-48100500D01*
X135991976Y-48100500D01*
X136192456Y-48063024D01*
X136323228Y-48012362D01*
X136384316Y-48008973D01*
X136428992Y-48034674D01*
X137315787Y-48921469D01*
X137315789Y-48921470D01*
X137385763Y-48961870D01*
X137385772Y-48961875D01*
X137395712Y-48967614D01*
X137484856Y-48991500D01*
X137484858Y-48991500D01*
X154351142Y-48991500D01*
X154351144Y-48991500D01*
X154440288Y-48967614D01*
X154450233Y-48961872D01*
X154520212Y-48921470D01*
X155065470Y-48376212D01*
X155077717Y-48355000D01*
X156040495Y-48355000D01*
X156082969Y-48501197D01*
X156082969Y-48501198D01*
X156165278Y-48640374D01*
X156279625Y-48754721D01*
X156418802Y-48837030D01*
X156574079Y-48882143D01*
X156574087Y-48882144D01*
X156595000Y-48883789D01*
X157095000Y-48883789D01*
X157115912Y-48882144D01*
X157115920Y-48882143D01*
X157271192Y-48837032D01*
X157278874Y-48832489D01*
X157338585Y-48819138D01*
X157379671Y-48832486D01*
X157421807Y-48857406D01*
X157575872Y-48902165D01*
X157575878Y-48902167D01*
X157610999Y-48904930D01*
X157611000Y-48904930D01*
X158111000Y-48904930D01*
X158146121Y-48902167D01*
X158146127Y-48902165D01*
X158300195Y-48857404D01*
X158300196Y-48857404D01*
X158438285Y-48775738D01*
X158551738Y-48662285D01*
X158633404Y-48524196D01*
X158633404Y-48524195D01*
X158673844Y-48385000D01*
X158111001Y-48385000D01*
X158111000Y-48385001D01*
X158111000Y-48904930D01*
X157611000Y-48904930D01*
X157611000Y-48385001D01*
X157610999Y-48385000D01*
X157095001Y-48385000D01*
X157095000Y-48385001D01*
X157095000Y-48883789D01*
X156595000Y-48883789D01*
X156595000Y-48355001D01*
X156594999Y-48355000D01*
X156040495Y-48355000D01*
X155077717Y-48355000D01*
X155111614Y-48296288D01*
X155113165Y-48290500D01*
X155114066Y-48287138D01*
X155131922Y-48220498D01*
X155135500Y-48207144D01*
X155135500Y-47571332D01*
X155144775Y-47529495D01*
X155179259Y-47455545D01*
X155185500Y-47408139D01*
X155185499Y-46006862D01*
X155179259Y-45959455D01*
X155154274Y-45905875D01*
X155144275Y-45884431D01*
X155135000Y-45842592D01*
X155135000Y-45474912D01*
X155134999Y-45474911D01*
X155059894Y-45484799D01*
X155059894Y-45484800D01*
X154920022Y-45542736D01*
X154920018Y-45542738D01*
X154799903Y-45634905D01*
X154764710Y-45680769D01*
X154714284Y-45715424D01*
X154686175Y-45719500D01*
X154671868Y-45719500D01*
X154671854Y-45719501D01*
X154624458Y-45725740D01*
X154624452Y-45725741D01*
X154576838Y-45747944D01*
X154516109Y-45755400D01*
X154493162Y-45747944D01*
X154445551Y-45725743D01*
X154445547Y-45725742D01*
X154445545Y-45725741D01*
X154423289Y-45722811D01*
X154423016Y-45722775D01*
X154367791Y-45696433D01*
X154338597Y-45642661D01*
X154337788Y-45611698D01*
X154340250Y-45593000D01*
X154334284Y-45547688D01*
X154321330Y-45449291D01*
X154265861Y-45315375D01*
X154177621Y-45200379D01*
X154062625Y-45112139D01*
X154062621Y-45112137D01*
X153928709Y-45056670D01*
X153928708Y-45056669D01*
X153785000Y-45037750D01*
X153641291Y-45056669D01*
X153641290Y-45056670D01*
X153507378Y-45112137D01*
X153507374Y-45112139D01*
X153392381Y-45200377D01*
X153392377Y-45200381D01*
X153304139Y-45315374D01*
X153304137Y-45315378D01*
X153248670Y-45449290D01*
X153248669Y-45449291D01*
X153232199Y-45574399D01*
X153229750Y-45593000D01*
X153230222Y-45596591D01*
X153232212Y-45611705D01*
X153221059Y-45671865D01*
X153176675Y-45713981D01*
X153146978Y-45722776D01*
X153124457Y-45725740D01*
X153124452Y-45725741D01*
X153076838Y-45747944D01*
X153016109Y-45755400D01*
X152993162Y-45747944D01*
X152945551Y-45725743D01*
X152945546Y-45725741D01*
X152945545Y-45725741D01*
X152933755Y-45724188D01*
X152922500Y-45722707D01*
X152867276Y-45696364D01*
X152838082Y-45642593D01*
X152837273Y-45611628D01*
X152839726Y-45593001D01*
X152839726Y-45592999D01*
X152820806Y-45449291D01*
X152765337Y-45315375D01*
X152677097Y-45200379D01*
X152562101Y-45112139D01*
X152562097Y-45112137D01*
X152428185Y-45056670D01*
X152428184Y-45056669D01*
X152284476Y-45037750D01*
X152140767Y-45056669D01*
X152140766Y-45056670D01*
X152006854Y-45112137D01*
X152006850Y-45112139D01*
X151891857Y-45200377D01*
X151891853Y-45200381D01*
X151863144Y-45237796D01*
X151812719Y-45272451D01*
X151751554Y-45270849D01*
X151706060Y-45237796D01*
X151683686Y-45208638D01*
X151677349Y-45200379D01*
X151562353Y-45112139D01*
X151562349Y-45112137D01*
X151428437Y-45056670D01*
X151428436Y-45056669D01*
X151284728Y-45037750D01*
X151141019Y-45056669D01*
X151141018Y-45056670D01*
X151007106Y-45112137D01*
X151007102Y-45112139D01*
X150892109Y-45200377D01*
X150892105Y-45200381D01*
X150803867Y-45315374D01*
X150803865Y-45315378D01*
X150748398Y-45449290D01*
X150748397Y-45449291D01*
X150729478Y-45592999D01*
X150729478Y-45593003D01*
X150731944Y-45611738D01*
X150720793Y-45671899D01*
X150676410Y-45714015D01*
X150646711Y-45722811D01*
X150624458Y-45725740D01*
X150624452Y-45725741D01*
X150576838Y-45747944D01*
X150516109Y-45755400D01*
X150493162Y-45747944D01*
X150445551Y-45725743D01*
X150445547Y-45725742D01*
X150445545Y-45725741D01*
X150398139Y-45719500D01*
X150398137Y-45719500D01*
X150171866Y-45719500D01*
X150171854Y-45719501D01*
X150124455Y-45725740D01*
X150124453Y-45725740D01*
X150020423Y-45774251D01*
X150020421Y-45774253D01*
X149939253Y-45855421D01*
X149890741Y-45959455D01*
X149888779Y-45974362D01*
X149884500Y-46006862D01*
X149884500Y-46261500D01*
X149865593Y-46319691D01*
X149816093Y-46355655D01*
X149785500Y-46360500D01*
X144798745Y-46360500D01*
X144740554Y-46341593D01*
X144728741Y-46331504D01*
X143097237Y-44700000D01*
X145680210Y-44700000D01*
X145681855Y-44720912D01*
X145681856Y-44720920D01*
X145726969Y-44876197D01*
X145726969Y-44876198D01*
X145809278Y-45015374D01*
X145923625Y-45129721D01*
X146062802Y-45212030D01*
X146208999Y-45254504D01*
X146209000Y-45254504D01*
X146209000Y-44700001D01*
X146208999Y-44700000D01*
X145680210Y-44700000D01*
X143097237Y-44700000D01*
X138635163Y-40237926D01*
X138635163Y-40237925D01*
X138549541Y-40188491D01*
X138549537Y-40188489D01*
X138497395Y-40174517D01*
X138497395Y-40174518D01*
X138473259Y-40168051D01*
X138454036Y-40162900D01*
X138454035Y-40162900D01*
X137339000Y-40162900D01*
X137280809Y-40143993D01*
X137244845Y-40094493D01*
X137240000Y-40063900D01*
X137240000Y-39630001D01*
X137239999Y-39630000D01*
X136323012Y-39630000D01*
X136355925Y-39572993D01*
X136390000Y-39445826D01*
X136390000Y-39314174D01*
X136355925Y-39187007D01*
X136323012Y-39130000D01*
X137239999Y-39130000D01*
X137240000Y-39129999D01*
X137240000Y-38957000D01*
X138387495Y-38957000D01*
X138429969Y-39103197D01*
X138429969Y-39103198D01*
X138512278Y-39242374D01*
X138626625Y-39356721D01*
X138765802Y-39439030D01*
X138921079Y-39484143D01*
X138921087Y-39484144D01*
X138942000Y-39485789D01*
X138942000Y-38957001D01*
X138941999Y-38957000D01*
X138387495Y-38957000D01*
X137240000Y-38957000D01*
X137240000Y-38482175D01*
X137233598Y-38422629D01*
X137233596Y-38422618D01*
X137183353Y-38287911D01*
X137183352Y-38287908D01*
X137178053Y-38280830D01*
X137158315Y-38222916D01*
X137176388Y-38164461D01*
X137225369Y-38127793D01*
X137257305Y-38122500D01*
X138367766Y-38122500D01*
X138425957Y-38141407D01*
X138461921Y-38190907D01*
X138461921Y-38252093D01*
X138452979Y-38271895D01*
X138429969Y-38310802D01*
X138387495Y-38456999D01*
X138387496Y-38457000D01*
X139975993Y-38457000D01*
X140034184Y-38475907D01*
X140044831Y-38485000D01*
X140745500Y-38485000D01*
X140803691Y-38503907D01*
X140839655Y-38553407D01*
X140844500Y-38584000D01*
X140844500Y-38886000D01*
X140825593Y-38944191D01*
X140776093Y-38980155D01*
X140745500Y-38985000D01*
X139442001Y-38985000D01*
X139442000Y-38985001D01*
X139442000Y-39485789D01*
X139462912Y-39484144D01*
X139462917Y-39484143D01*
X139554879Y-39457426D01*
X139616034Y-39459348D01*
X139664381Y-39496848D01*
X139681500Y-39552495D01*
X139681500Y-39866520D01*
X139681501Y-39866523D01*
X139696352Y-39960299D01*
X139696354Y-39960304D01*
X139753950Y-40073342D01*
X139843658Y-40163050D01*
X139956696Y-40220646D01*
X140050481Y-40235500D01*
X140608309Y-40235499D01*
X140666500Y-40254406D01*
X140678313Y-40264495D01*
X141245880Y-40832062D01*
X141273657Y-40886579D01*
X141274876Y-40902066D01*
X141274876Y-41122770D01*
X141255969Y-41180961D01*
X141245880Y-41192774D01*
X141100646Y-41338007D01*
X141055375Y-41398718D01*
X141013603Y-41520401D01*
X141013603Y-41649061D01*
X141055375Y-41770744D01*
X141063355Y-41781445D01*
X141100645Y-41831454D01*
X141343298Y-42074107D01*
X141383770Y-42104285D01*
X141404007Y-42119376D01*
X141525691Y-42161149D01*
X141635851Y-42161149D01*
X141694042Y-42180056D01*
X141730006Y-42229556D01*
X141734851Y-42260149D01*
X141734851Y-42370309D01*
X141776623Y-42491992D01*
X141797440Y-42519909D01*
X141821893Y-42552702D01*
X142064546Y-42795355D01*
X142101620Y-42823000D01*
X142125255Y-42840624D01*
X142246939Y-42882397D01*
X142321998Y-42882397D01*
X142380189Y-42901304D01*
X142415634Y-42949253D01*
X142452375Y-43056280D01*
X142452376Y-43056282D01*
X142452377Y-43056283D01*
X142493627Y-43111603D01*
X142497646Y-43116992D01*
X142642880Y-43262226D01*
X142670657Y-43316743D01*
X142671876Y-43332230D01*
X142671876Y-43373520D01*
X142694102Y-43456470D01*
X142695762Y-43462664D01*
X142715176Y-43496290D01*
X142741906Y-43542589D01*
X142800157Y-43600839D01*
X142827935Y-43655355D01*
X142828308Y-43683761D01*
X142827750Y-43688000D01*
X142846669Y-43831708D01*
X142846670Y-43831709D01*
X142898272Y-43956291D01*
X142902139Y-43965625D01*
X142990379Y-44080621D01*
X143105375Y-44168861D01*
X143239291Y-44224330D01*
X143383000Y-44243250D01*
X143526709Y-44224330D01*
X143660625Y-44168861D01*
X143775621Y-44080621D01*
X143863861Y-43965625D01*
X143919330Y-43831709D01*
X143938250Y-43688000D01*
X143937499Y-43682299D01*
X143919330Y-43544291D01*
X143863861Y-43410375D01*
X143775621Y-43295379D01*
X143681544Y-43223191D01*
X143646890Y-43172767D01*
X143648492Y-43111603D01*
X143685739Y-43063061D01*
X143741813Y-43045650D01*
X143859196Y-43045650D01*
X143859198Y-43045649D01*
X143964295Y-43018665D01*
X144025360Y-43022507D01*
X144072504Y-43061508D01*
X144074129Y-43064159D01*
X144100278Y-43108374D01*
X144202245Y-43210341D01*
X144230022Y-43264858D01*
X144230022Y-43295833D01*
X144219500Y-43362263D01*
X144219500Y-43703737D01*
X144233983Y-43795174D01*
X144233984Y-43795178D01*
X144269352Y-43864590D01*
X144290141Y-43905391D01*
X144377609Y-43992859D01*
X144487825Y-44049017D01*
X144579265Y-44063500D01*
X144980734Y-44063499D01*
X144980737Y-44063499D01*
X145007332Y-44059286D01*
X145072175Y-44049017D01*
X145182391Y-43992859D01*
X145269859Y-43905391D01*
X145326017Y-43795175D01*
X145340500Y-43703735D01*
X145340500Y-43703732D01*
X145340663Y-43702703D01*
X145368440Y-43648186D01*
X145422957Y-43620409D01*
X145483389Y-43629980D01*
X145493445Y-43635874D01*
X145510237Y-43647094D01*
X145561060Y-43681052D01*
X145616608Y-43692101D01*
X145634115Y-43695584D01*
X145634120Y-43695584D01*
X145634126Y-43695586D01*
X145634127Y-43695586D01*
X145759310Y-43695586D01*
X145817501Y-43714493D01*
X145853465Y-43763993D01*
X145853465Y-43825179D01*
X145829314Y-43864590D01*
X145809278Y-43884625D01*
X145726969Y-44023801D01*
X145726969Y-44023802D01*
X145681855Y-44179087D01*
X145680209Y-44200000D01*
X146610000Y-44200000D01*
X146668191Y-44218907D01*
X146704155Y-44268407D01*
X146709000Y-44299000D01*
X146709000Y-45254504D01*
X146855197Y-45212030D01*
X146855198Y-45212030D01*
X146994375Y-45129720D01*
X146994377Y-45129719D01*
X147096341Y-45027755D01*
X147150858Y-44999977D01*
X147181827Y-44999977D01*
X147248265Y-45010500D01*
X147589734Y-45010499D01*
X147589737Y-45010499D01*
X147616332Y-45006286D01*
X147681175Y-44996017D01*
X147774415Y-44948508D01*
X147834844Y-44938937D01*
X147889361Y-44966713D01*
X147909086Y-44994887D01*
X147912947Y-45003169D01*
X147920398Y-45063899D01*
X147912944Y-45086838D01*
X147890743Y-45134448D01*
X147890741Y-45134453D01*
X147890741Y-45134455D01*
X147885496Y-45174300D01*
X147884500Y-45181862D01*
X147884500Y-45408133D01*
X147884501Y-45408145D01*
X147890740Y-45455544D01*
X147890740Y-45455546D01*
X147939251Y-45559576D01*
X147939252Y-45559577D01*
X147939253Y-45559579D01*
X148020421Y-45640747D01*
X148124455Y-45689259D01*
X148171861Y-45695500D01*
X149573138Y-45695499D01*
X149620545Y-45689259D01*
X149620546Y-45689259D01*
X149688652Y-45657500D01*
X149724579Y-45640747D01*
X149805747Y-45559579D01*
X149854259Y-45455545D01*
X149858349Y-45424476D01*
X149884688Y-45369253D01*
X149938458Y-45340057D01*
X149943568Y-45339247D01*
X150003709Y-45331330D01*
X150137625Y-45275861D01*
X150252621Y-45187621D01*
X150340861Y-45072625D01*
X150396330Y-44938709D01*
X150415250Y-44795000D01*
X150396330Y-44651291D01*
X150340861Y-44517375D01*
X150252621Y-44402379D01*
X150137625Y-44314139D01*
X150137621Y-44314137D01*
X150003709Y-44258670D01*
X149974248Y-44254791D01*
X149919023Y-44228449D01*
X149889829Y-44174678D01*
X149897816Y-44114016D01*
X149917165Y-44086637D01*
X150289310Y-43714493D01*
X150421898Y-43581906D01*
X150476414Y-43554129D01*
X150491901Y-43552910D01*
X154451509Y-43552910D01*
X154509700Y-43571817D01*
X154521513Y-43581906D01*
X155355504Y-44415897D01*
X155383281Y-44470414D01*
X155384500Y-44485901D01*
X155384500Y-47408134D01*
X155384501Y-47408145D01*
X155390740Y-47455543D01*
X155390741Y-47455545D01*
X155425223Y-47529492D01*
X155425724Y-47530565D01*
X155435000Y-47572405D01*
X155435000Y-47940087D01*
X155510104Y-47930199D01*
X155649977Y-47872263D01*
X155649981Y-47872261D01*
X155770089Y-47780099D01*
X155770099Y-47780089D01*
X155805287Y-47734232D01*
X155855711Y-47699576D01*
X155883828Y-47695499D01*
X155898138Y-47695499D01*
X155944060Y-47689454D01*
X156004220Y-47700605D01*
X156046337Y-47744988D01*
X156054322Y-47805650D01*
X156052049Y-47815226D01*
X156040494Y-47854998D01*
X156040496Y-47855000D01*
X157626993Y-47855000D01*
X157685184Y-47873907D01*
X157696997Y-47883996D01*
X157698001Y-47885000D01*
X158673844Y-47885000D01*
X158673844Y-47884999D01*
X158644607Y-47784363D01*
X158645750Y-47748000D01*
X160391069Y-47748000D01*
X160393832Y-47783121D01*
X160393834Y-47783127D01*
X160438595Y-47937195D01*
X160438595Y-47937196D01*
X160520261Y-48075285D01*
X160633714Y-48188738D01*
X160771804Y-48270404D01*
X160910999Y-48310844D01*
X160911000Y-48310844D01*
X160911000Y-47748001D01*
X160910999Y-47748000D01*
X160391069Y-47748000D01*
X158645750Y-47748000D01*
X158646529Y-47723208D01*
X158684030Y-47674862D01*
X158726752Y-47658590D01*
X158766709Y-47653330D01*
X158900625Y-47597861D01*
X159015621Y-47509621D01*
X159103861Y-47394625D01*
X159159330Y-47260709D01*
X159161003Y-47247999D01*
X160391069Y-47247999D01*
X160391070Y-47248000D01*
X160910999Y-47248000D01*
X160911000Y-47247999D01*
X160911000Y-46685154D01*
X160771805Y-46725594D01*
X160771803Y-46725595D01*
X160633714Y-46807261D01*
X160520261Y-46920714D01*
X160438595Y-47058803D01*
X160438595Y-47058804D01*
X160393834Y-47212872D01*
X160393832Y-47212878D01*
X160391069Y-47247999D01*
X159161003Y-47247999D01*
X159178250Y-47117000D01*
X159174155Y-47085899D01*
X159159330Y-46973291D01*
X159103861Y-46839375D01*
X159015621Y-46724379D01*
X158910597Y-46643791D01*
X158875943Y-46593367D01*
X158877545Y-46532203D01*
X158880052Y-46526231D01*
X158880581Y-46524520D01*
X158880580Y-46524520D01*
X158880582Y-46524518D01*
X158891500Y-46449582D01*
X158891500Y-46314900D01*
X158910407Y-46256709D01*
X158920490Y-46244902D01*
X159197480Y-45967913D01*
X159243546Y-45888123D01*
X159265228Y-45863407D01*
X159265031Y-45863210D01*
X159268044Y-45860196D01*
X159269026Y-45859077D01*
X159269621Y-45858621D01*
X159357861Y-45743625D01*
X159413330Y-45609709D01*
X159432250Y-45466000D01*
X159430873Y-45455544D01*
X159424632Y-45408138D01*
X159413330Y-45322291D01*
X159396799Y-45282383D01*
X159392001Y-45221387D01*
X159423971Y-45169219D01*
X159480499Y-45145805D01*
X159488265Y-45145500D01*
X166001198Y-45145500D01*
X166059389Y-45164407D01*
X166095353Y-45213907D01*
X166095353Y-45275093D01*
X166059389Y-45324593D01*
X166014119Y-45342653D01*
X165904223Y-45357119D01*
X165904222Y-45357120D01*
X165766051Y-45414351D01*
X165647400Y-45505396D01*
X165647396Y-45505400D01*
X165556351Y-45624051D01*
X165499121Y-45762217D01*
X165499119Y-45762225D01*
X165484500Y-45873271D01*
X165484500Y-47048500D01*
X165465593Y-47106691D01*
X165416093Y-47142655D01*
X165385500Y-47147500D01*
X165265990Y-47147500D01*
X165207799Y-47128593D01*
X165177050Y-47091982D01*
X165176582Y-47091025D01*
X165174076Y-47085898D01*
X165083102Y-46994924D01*
X164967518Y-46938418D01*
X164892582Y-46927500D01*
X164549418Y-46927500D01*
X164474482Y-46938418D01*
X164358899Y-46994923D01*
X164358898Y-46994923D01*
X164358898Y-46994924D01*
X164281001Y-47072820D01*
X164226487Y-47100596D01*
X164166055Y-47091025D01*
X164140999Y-47072821D01*
X164063102Y-46994924D01*
X163947518Y-46938418D01*
X163872582Y-46927500D01*
X163529418Y-46927500D01*
X163454482Y-46938418D01*
X163338894Y-46994925D01*
X163334502Y-46999318D01*
X163279984Y-47027093D01*
X163225125Y-47018400D01*
X163224620Y-47019622D01*
X163084709Y-46961670D01*
X163084708Y-46961669D01*
X162941000Y-46942750D01*
X162797291Y-46961669D01*
X162797290Y-46961670D01*
X162657380Y-47019622D01*
X162656419Y-47017303D01*
X162607106Y-47027764D01*
X162551221Y-47002854D01*
X162547511Y-46999333D01*
X162543102Y-46994924D01*
X162427518Y-46938418D01*
X162352582Y-46927500D01*
X162009418Y-46927500D01*
X161964456Y-46934050D01*
X161934480Y-46938418D01*
X161920539Y-46945234D01*
X161859957Y-46953804D01*
X161805907Y-46925128D01*
X161804309Y-46923285D01*
X161688285Y-46807261D01*
X161550196Y-46725595D01*
X161550194Y-46725594D01*
X161411000Y-46685154D01*
X161411000Y-48310844D01*
X161550195Y-48270404D01*
X161550196Y-48270404D01*
X161688285Y-48188738D01*
X161806140Y-48070884D01*
X161808038Y-48072782D01*
X161849397Y-48044649D01*
X161910553Y-48046544D01*
X161920527Y-48050760D01*
X161934482Y-48057582D01*
X162009418Y-48068500D01*
X162009421Y-48068500D01*
X162352578Y-48068500D01*
X162352582Y-48068500D01*
X162427518Y-48057582D01*
X162543102Y-48001076D01*
X162547490Y-47996687D01*
X162602004Y-47968908D01*
X162656875Y-47977595D01*
X162657380Y-47976378D01*
X162663375Y-47978861D01*
X162797291Y-48034330D01*
X162941000Y-48053250D01*
X163084709Y-48034330D01*
X163175596Y-47996684D01*
X163224621Y-47976378D01*
X163225586Y-47978709D01*
X163274813Y-47968226D01*
X163330718Y-47993091D01*
X163334487Y-47996665D01*
X163338898Y-48001076D01*
X163454482Y-48057582D01*
X163529418Y-48068500D01*
X163529421Y-48068500D01*
X163872578Y-48068500D01*
X163872582Y-48068500D01*
X163947518Y-48057582D01*
X164063102Y-48001076D01*
X164140998Y-47923179D01*
X164195513Y-47895404D01*
X164255945Y-47904975D01*
X164281000Y-47923178D01*
X164358898Y-48001076D01*
X164474482Y-48057582D01*
X164549418Y-48068500D01*
X164549421Y-48068500D01*
X164892578Y-48068500D01*
X164892582Y-48068500D01*
X164967518Y-48057582D01*
X165083102Y-48001076D01*
X165174076Y-47910102D01*
X165177050Y-47904017D01*
X165219594Y-47860045D01*
X165265990Y-47848500D01*
X165385501Y-47848500D01*
X165443692Y-47867407D01*
X165479656Y-47916907D01*
X165484501Y-47947500D01*
X165484501Y-49122729D01*
X165484586Y-49124027D01*
X165484501Y-49124361D01*
X165484501Y-49125967D01*
X165484093Y-49125967D01*
X165469524Y-49183330D01*
X165422481Y-49222453D01*
X165385798Y-49229500D01*
X143908912Y-49229500D01*
X143693714Y-49265410D01*
X143487352Y-49336253D01*
X143330824Y-49420963D01*
X143295475Y-49440093D01*
X143265805Y-49463186D01*
X143240996Y-49482495D01*
X143183462Y-49503315D01*
X143124678Y-49486341D01*
X143110191Y-49474377D01*
X143031314Y-49395500D01*
X143031311Y-49395498D01*
X143031309Y-49395496D01*
X142917189Y-49329609D01*
X142917191Y-49329609D01*
X142867799Y-49316375D01*
X142789892Y-49295500D01*
X142658108Y-49295500D01*
X142580200Y-49316375D01*
X142530809Y-49329609D01*
X142416690Y-49395496D01*
X142411540Y-49399449D01*
X142410183Y-49397680D01*
X142364465Y-49420963D01*
X142304036Y-49411378D01*
X142286874Y-49398909D01*
X142286460Y-49399449D01*
X142281309Y-49395496D01*
X142167189Y-49329609D01*
X142167191Y-49329609D01*
X142117799Y-49316375D01*
X142039892Y-49295500D01*
X141908108Y-49295500D01*
X141830200Y-49316375D01*
X141780809Y-49329609D01*
X141666690Y-49395496D01*
X141661540Y-49399449D01*
X141660183Y-49397680D01*
X141614465Y-49420963D01*
X141554036Y-49411378D01*
X141536874Y-49398909D01*
X141536460Y-49399449D01*
X141531309Y-49395496D01*
X141417189Y-49329609D01*
X141417191Y-49329609D01*
X141367799Y-49316375D01*
X141289892Y-49295500D01*
X141158108Y-49295500D01*
X141080200Y-49316375D01*
X141030809Y-49329609D01*
X140916690Y-49395496D01*
X140911540Y-49399449D01*
X140910183Y-49397680D01*
X140864465Y-49420963D01*
X140804036Y-49411378D01*
X140786874Y-49398909D01*
X140786460Y-49399449D01*
X140781309Y-49395496D01*
X140667189Y-49329609D01*
X140667191Y-49329609D01*
X140617799Y-49316375D01*
X140539892Y-49295500D01*
X140408108Y-49295500D01*
X140330200Y-49316375D01*
X140280809Y-49329609D01*
X140166690Y-49395496D01*
X140161540Y-49399449D01*
X140160183Y-49397680D01*
X140114465Y-49420963D01*
X140054036Y-49411378D01*
X140036874Y-49398909D01*
X140036460Y-49399449D01*
X140031309Y-49395496D01*
X139917189Y-49329609D01*
X139917191Y-49329609D01*
X139867799Y-49316375D01*
X139789892Y-49295500D01*
X139658108Y-49295500D01*
X139580200Y-49316375D01*
X139530809Y-49329609D01*
X139416690Y-49395496D01*
X139416685Y-49395500D01*
X139337812Y-49474373D01*
X139283295Y-49502150D01*
X139222863Y-49492578D01*
X139207002Y-49482494D01*
X139152528Y-49440095D01*
X139152525Y-49440093D01*
X138960647Y-49336253D01*
X138841936Y-49295500D01*
X138754289Y-49265411D01*
X138754286Y-49265410D01*
X138754285Y-49265410D01*
X138539088Y-49229500D01*
X138469562Y-49229500D01*
X131987093Y-49229500D01*
X131928902Y-49210593D01*
X131892938Y-49161093D01*
X131892938Y-49099907D01*
X131894335Y-49095904D01*
X131922089Y-49021490D01*
X131922088Y-49021490D01*
X131922091Y-49021485D01*
X131928500Y-48961875D01*
X131928499Y-45611878D01*
X131928500Y-45611873D01*
X131928499Y-42966128D01*
X131928337Y-42964616D01*
X131922091Y-42906515D01*
X131921175Y-42904058D01*
X131871797Y-42771669D01*
X131785550Y-42656457D01*
X131785549Y-42656456D01*
X131785547Y-42656453D01*
X131780814Y-42652910D01*
X131670330Y-42570202D01*
X131535490Y-42519910D01*
X131535485Y-42519909D01*
X131535483Y-42519908D01*
X131535479Y-42519908D01*
X131504251Y-42516550D01*
X131475875Y-42513500D01*
X131475873Y-42513500D01*
X131475871Y-42513500D01*
X128425878Y-42513500D01*
X128425873Y-42513500D01*
X126080129Y-42513500D01*
X126079593Y-42513500D01*
X126077471Y-42513786D01*
X126020516Y-42519908D01*
X126020512Y-42519909D01*
X125885669Y-42570202D01*
X125770457Y-42656449D01*
X125770449Y-42656457D01*
X125684202Y-42771669D01*
X125633910Y-42906509D01*
X125633908Y-42906520D01*
X125627500Y-42966127D01*
X125627500Y-43289300D01*
X125608593Y-43347491D01*
X125559093Y-43383455D01*
X125528500Y-43388300D01*
X123744144Y-43388300D01*
X123651856Y-43388300D01*
X123562712Y-43412186D01*
X123562711Y-43412186D01*
X123562709Y-43412187D01*
X123482790Y-43458329D01*
X123417529Y-43523590D01*
X123371387Y-43603509D01*
X123371386Y-43603511D01*
X123371386Y-43603512D01*
X123349884Y-43683761D01*
X123347500Y-43692657D01*
X123347500Y-49125433D01*
X123345864Y-49125433D01*
X123336169Y-49177740D01*
X123291786Y-49219857D01*
X123249167Y-49229500D01*
X122701003Y-49229500D01*
X122642812Y-49210593D01*
X122606848Y-49161093D01*
X122602458Y-49125968D01*
X122602300Y-49125968D01*
X122602299Y-49124706D01*
X122602215Y-49124026D01*
X122602298Y-49122740D01*
X122602300Y-49122727D01*
X122602299Y-45873274D01*
X122587680Y-45762222D01*
X122534315Y-45633386D01*
X122530448Y-45624051D01*
X122530447Y-45624050D01*
X122530447Y-45624049D01*
X122439402Y-45505398D01*
X122320751Y-45414353D01*
X122320750Y-45414352D01*
X122320748Y-45414351D01*
X122182582Y-45357121D01*
X122182574Y-45357119D01*
X122071527Y-45342500D01*
X121362076Y-45342500D01*
X121362070Y-45342501D01*
X121251023Y-45357119D01*
X121251022Y-45357120D01*
X121112851Y-45414351D01*
X120994200Y-45505396D01*
X120994196Y-45505400D01*
X120903151Y-45624051D01*
X120845921Y-45762217D01*
X120845919Y-45762225D01*
X120831300Y-45873271D01*
X120831300Y-49122729D01*
X120831386Y-49124027D01*
X120831300Y-49124361D01*
X120831301Y-49125967D01*
X120830893Y-49125967D01*
X120816324Y-49183330D01*
X120769281Y-49222453D01*
X120732598Y-49229500D01*
X120161003Y-49229500D01*
X120102812Y-49210593D01*
X120066848Y-49161093D01*
X120062458Y-49125968D01*
X120062300Y-49125968D01*
X120062299Y-49124706D01*
X120062215Y-49124026D01*
X120062298Y-49122740D01*
X120062300Y-49122727D01*
X120062299Y-45873274D01*
X120047680Y-45762222D01*
X119994315Y-45633386D01*
X119990448Y-45624051D01*
X119990446Y-45624047D01*
X119947758Y-45568415D01*
X119927334Y-45510740D01*
X119927300Y-45508148D01*
X119927300Y-45096300D01*
X119946207Y-45038109D01*
X119995707Y-45002145D01*
X120026300Y-44997300D01*
X120787004Y-44997300D01*
X120845195Y-45016207D01*
X120846332Y-45017046D01*
X120881574Y-45043428D01*
X121009686Y-45091212D01*
X121066315Y-45097300D01*
X121607284Y-45097299D01*
X121663914Y-45091212D01*
X121792026Y-45043428D01*
X121901487Y-44961487D01*
X121983428Y-44852026D01*
X122031212Y-44723914D01*
X122037300Y-44667285D01*
X122037299Y-44536485D01*
X122044835Y-44498599D01*
X122058458Y-44465713D01*
X122087300Y-44320718D01*
X122087300Y-44172882D01*
X122058458Y-44027887D01*
X122044833Y-43994993D01*
X122037299Y-43957112D01*
X122037299Y-43826321D01*
X122037299Y-43826316D01*
X122031212Y-43769686D01*
X121983428Y-43641574D01*
X121901487Y-43532113D01*
X121833464Y-43481192D01*
X121792028Y-43450173D01*
X121792026Y-43450172D01*
X121663914Y-43402388D01*
X121663913Y-43402387D01*
X121625695Y-43398279D01*
X121607285Y-43396300D01*
X121607281Y-43396300D01*
X121066321Y-43396300D01*
X121066315Y-43396301D01*
X121009688Y-43402387D01*
X121009686Y-43402388D01*
X120881571Y-43450173D01*
X120846333Y-43476553D01*
X120788418Y-43496290D01*
X120787004Y-43496300D01*
X120026300Y-43496300D01*
X119968109Y-43477393D01*
X119932145Y-43427893D01*
X119927300Y-43397300D01*
X119927300Y-42449899D01*
X119946207Y-42391708D01*
X119995707Y-42355744D01*
X120026300Y-42350899D01*
X121443467Y-42350899D01*
X121443472Y-42350899D01*
X121503083Y-42344491D01*
X121586024Y-42313556D01*
X121637929Y-42294197D01*
X121637929Y-42294196D01*
X121637931Y-42294196D01*
X121753146Y-42207946D01*
X121839396Y-42092731D01*
X121857199Y-42045000D01*
X121889689Y-41957888D01*
X121889690Y-41957885D01*
X121889691Y-41957883D01*
X121896100Y-41898273D01*
X121896099Y-40829543D01*
X121915006Y-40771353D01*
X121925089Y-40759546D01*
X122120649Y-40563986D01*
X125398001Y-40563986D01*
X125408492Y-40666687D01*
X125408495Y-40666699D01*
X125463643Y-40833124D01*
X125555680Y-40982340D01*
X125679659Y-41106319D01*
X125828875Y-41198356D01*
X125995306Y-41253506D01*
X126098013Y-41263999D01*
X126248000Y-41263999D01*
X126248000Y-41263998D01*
X126748000Y-41263998D01*
X126748001Y-41263999D01*
X126897986Y-41263999D01*
X127000687Y-41253507D01*
X127000699Y-41253504D01*
X127167124Y-41198356D01*
X127316340Y-41106319D01*
X127440319Y-40982340D01*
X127532356Y-40833124D01*
X127587506Y-40666693D01*
X127598000Y-40563987D01*
X127598000Y-39914001D01*
X127597999Y-39914000D01*
X126748001Y-39914000D01*
X126748000Y-39914001D01*
X126748000Y-41263998D01*
X126248000Y-41263998D01*
X126248000Y-39914001D01*
X126247999Y-39914000D01*
X125398002Y-39914000D01*
X125398001Y-39914001D01*
X125398001Y-40563986D01*
X122120649Y-40563986D01*
X123270637Y-39413999D01*
X125398000Y-39413999D01*
X125398001Y-39414000D01*
X126247999Y-39414000D01*
X126248000Y-39413999D01*
X126748000Y-39413999D01*
X126748001Y-39414000D01*
X127597998Y-39414000D01*
X127597999Y-39413999D01*
X127597999Y-38764013D01*
X127587507Y-38661312D01*
X127587505Y-38661304D01*
X127568647Y-38604395D01*
X127568291Y-38543211D01*
X127603965Y-38493502D01*
X127662045Y-38474256D01*
X127720345Y-38492823D01*
X127732626Y-38503250D01*
X127740714Y-38511338D01*
X127878804Y-38593004D01*
X128017999Y-38633444D01*
X128018000Y-38633444D01*
X128018000Y-38070601D01*
X128017999Y-38070600D01*
X127498069Y-38070600D01*
X127500832Y-38105721D01*
X127500834Y-38105727D01*
X127516292Y-38158935D01*
X127514370Y-38220091D01*
X127476869Y-38268436D01*
X127418113Y-38285506D01*
X127360545Y-38264780D01*
X127351219Y-38256559D01*
X127316340Y-38221680D01*
X127167124Y-38129643D01*
X127000693Y-38074493D01*
X126897987Y-38064000D01*
X126748001Y-38064000D01*
X126748000Y-38064001D01*
X126748000Y-39413999D01*
X126248000Y-39413999D01*
X126248000Y-38064001D01*
X126247999Y-38064000D01*
X126098013Y-38064000D01*
X126098013Y-38064001D01*
X125995312Y-38074492D01*
X125995300Y-38074495D01*
X125828875Y-38129643D01*
X125679659Y-38221680D01*
X125555680Y-38345659D01*
X125463643Y-38494875D01*
X125408493Y-38661306D01*
X125398000Y-38764012D01*
X125398000Y-39413999D01*
X123270637Y-39413999D01*
X125602541Y-37082096D01*
X125657058Y-37054319D01*
X125672545Y-37053100D01*
X127578468Y-37053100D01*
X127636659Y-37072007D01*
G37*
%TD.AperFunction*%
%TA.AperFunction,Conductor*%
G36*
X186692992Y-35860681D02*
G01*
X186953966Y-35876466D01*
X186965829Y-35877906D01*
X187220062Y-35924497D01*
X187231660Y-35927356D01*
X187478426Y-36004251D01*
X187489584Y-36008482D01*
X187722794Y-36113441D01*
X187725287Y-36114563D01*
X187735870Y-36120117D01*
X187785763Y-36150279D01*
X187957058Y-36253831D01*
X187966896Y-36260622D01*
X188018241Y-36300848D01*
X188115601Y-36377125D01*
X188170343Y-36420012D01*
X188179292Y-36427939D01*
X188362060Y-36610707D01*
X188369987Y-36619656D01*
X188529377Y-36823103D01*
X188536168Y-36832941D01*
X188669880Y-37054126D01*
X188675436Y-37064712D01*
X188728474Y-37182557D01*
X188779305Y-37295500D01*
X188781512Y-37300402D01*
X188785751Y-37311581D01*
X188862642Y-37558336D01*
X188865503Y-37569943D01*
X188912092Y-37824169D01*
X188913533Y-37836036D01*
X188929319Y-38097006D01*
X188929500Y-38102984D01*
X188929500Y-46987015D01*
X188929319Y-46992991D01*
X188928614Y-47004651D01*
X188913533Y-47253963D01*
X188912092Y-47265830D01*
X188865503Y-47520056D01*
X188862642Y-47531663D01*
X188785751Y-47778418D01*
X188781512Y-47789597D01*
X188675436Y-48025287D01*
X188669880Y-48035873D01*
X188536168Y-48257058D01*
X188529377Y-48266896D01*
X188369987Y-48470343D01*
X188362060Y-48479292D01*
X188179292Y-48662060D01*
X188170343Y-48669987D01*
X187966896Y-48829377D01*
X187957058Y-48836168D01*
X187735873Y-48969880D01*
X187725287Y-48975436D01*
X187489597Y-49081512D01*
X187478418Y-49085751D01*
X187231663Y-49162642D01*
X187220056Y-49165503D01*
X186965830Y-49212092D01*
X186953963Y-49213533D01*
X186707287Y-49228454D01*
X186692991Y-49229319D01*
X186687015Y-49229500D01*
X180103912Y-49229500D01*
X179888714Y-49265410D01*
X179682352Y-49336253D01*
X179525824Y-49420963D01*
X179490475Y-49440093D01*
X179460805Y-49463186D01*
X179435996Y-49482495D01*
X179378462Y-49503315D01*
X179319678Y-49486341D01*
X179305191Y-49474377D01*
X179226314Y-49395500D01*
X179226311Y-49395498D01*
X179226309Y-49395496D01*
X179112189Y-49329609D01*
X179112191Y-49329609D01*
X179062799Y-49316375D01*
X178984892Y-49295500D01*
X178853108Y-49295500D01*
X178775200Y-49316375D01*
X178725809Y-49329609D01*
X178611690Y-49395496D01*
X178606540Y-49399449D01*
X178605183Y-49397680D01*
X178559465Y-49420963D01*
X178499036Y-49411378D01*
X178481874Y-49398909D01*
X178481460Y-49399449D01*
X178476309Y-49395496D01*
X178362189Y-49329609D01*
X178362191Y-49329609D01*
X178312799Y-49316375D01*
X178234892Y-49295500D01*
X178103108Y-49295500D01*
X178025200Y-49316375D01*
X177975809Y-49329609D01*
X177861690Y-49395496D01*
X177856540Y-49399449D01*
X177855183Y-49397680D01*
X177809465Y-49420963D01*
X177749036Y-49411378D01*
X177731874Y-49398909D01*
X177731460Y-49399449D01*
X177726309Y-49395496D01*
X177612189Y-49329609D01*
X177612191Y-49329609D01*
X177562799Y-49316375D01*
X177484892Y-49295500D01*
X177353108Y-49295500D01*
X177275200Y-49316375D01*
X177225809Y-49329609D01*
X177111690Y-49395496D01*
X177106540Y-49399449D01*
X177105183Y-49397680D01*
X177059465Y-49420963D01*
X176999036Y-49411378D01*
X176981874Y-49398909D01*
X176981460Y-49399449D01*
X176976309Y-49395496D01*
X176862189Y-49329609D01*
X176862191Y-49329609D01*
X176812799Y-49316375D01*
X176734892Y-49295500D01*
X176603108Y-49295500D01*
X176525200Y-49316375D01*
X176475809Y-49329609D01*
X176361690Y-49395496D01*
X176356540Y-49399449D01*
X176355183Y-49397680D01*
X176309465Y-49420963D01*
X176249036Y-49411378D01*
X176231874Y-49398909D01*
X176231460Y-49399449D01*
X176226309Y-49395496D01*
X176112189Y-49329609D01*
X176112191Y-49329609D01*
X176062799Y-49316375D01*
X175984892Y-49295500D01*
X175853108Y-49295500D01*
X175775200Y-49316375D01*
X175725809Y-49329609D01*
X175611690Y-49395496D01*
X175611685Y-49395500D01*
X175532812Y-49474373D01*
X175478295Y-49502150D01*
X175417863Y-49492578D01*
X175402002Y-49482494D01*
X175347528Y-49440095D01*
X175347525Y-49440093D01*
X175155647Y-49336253D01*
X175036936Y-49295500D01*
X174949289Y-49265411D01*
X174949286Y-49265410D01*
X174949285Y-49265410D01*
X174734088Y-49229500D01*
X174664562Y-49229500D01*
X172434203Y-49229500D01*
X172376012Y-49210593D01*
X172340048Y-49161093D01*
X172335658Y-49125968D01*
X172335500Y-49125968D01*
X172335499Y-49124706D01*
X172335415Y-49124026D01*
X172335498Y-49122740D01*
X172335500Y-49122727D01*
X172335499Y-45873274D01*
X172320880Y-45762222D01*
X172267515Y-45633386D01*
X172263648Y-45624051D01*
X172263647Y-45624050D01*
X172263647Y-45624049D01*
X172172602Y-45505398D01*
X172053951Y-45414353D01*
X172053950Y-45414352D01*
X172053948Y-45414351D01*
X171915782Y-45357121D01*
X171915774Y-45357119D01*
X171805889Y-45342653D01*
X171750664Y-45316312D01*
X171721469Y-45262541D01*
X171729455Y-45201879D01*
X171771572Y-45157497D01*
X171818811Y-45145500D01*
X176258810Y-45145500D01*
X176317001Y-45164407D01*
X176328814Y-45174496D01*
X178465504Y-47311186D01*
X178493281Y-47365703D01*
X178494500Y-47381190D01*
X178494500Y-47994672D01*
X178494501Y-47994684D01*
X178509033Y-48067736D01*
X178509035Y-48067742D01*
X178564397Y-48150599D01*
X178564399Y-48150601D01*
X178647260Y-48205966D01*
X178702808Y-48217015D01*
X178720315Y-48220498D01*
X178720320Y-48220498D01*
X178720326Y-48220500D01*
X178720327Y-48220500D01*
X179769673Y-48220500D01*
X179769674Y-48220500D01*
X179842740Y-48205966D01*
X179925601Y-48150601D01*
X179980966Y-48067740D01*
X179989431Y-48025184D01*
X180019327Y-47971802D01*
X180074892Y-47946186D01*
X180086528Y-47945500D01*
X184403472Y-47945500D01*
X184461663Y-47964407D01*
X184497627Y-48013907D01*
X184500567Y-48025175D01*
X184509033Y-48067736D01*
X184509034Y-48067740D01*
X184509035Y-48067742D01*
X184564397Y-48150599D01*
X184564399Y-48150601D01*
X184647260Y-48205966D01*
X184702808Y-48217015D01*
X184720315Y-48220498D01*
X184720320Y-48220498D01*
X184720326Y-48220500D01*
X184720327Y-48220500D01*
X185769673Y-48220500D01*
X185769674Y-48220500D01*
X185842740Y-48205966D01*
X185925601Y-48150601D01*
X185980966Y-48067740D01*
X185995500Y-47994674D01*
X185995500Y-47195326D01*
X185980966Y-47122260D01*
X185925601Y-47039399D01*
X185925599Y-47039397D01*
X185842742Y-46984035D01*
X185842740Y-46984034D01*
X185842737Y-46984033D01*
X185842736Y-46984033D01*
X185769684Y-46969501D01*
X185769674Y-46969500D01*
X184720326Y-46969500D01*
X184720325Y-46969500D01*
X184720315Y-46969501D01*
X184647263Y-46984033D01*
X184647257Y-46984035D01*
X184564400Y-47039397D01*
X184564397Y-47039400D01*
X184509035Y-47122257D01*
X184509034Y-47122259D01*
X184509034Y-47122260D01*
X184500568Y-47164815D01*
X184470673Y-47218198D01*
X184415108Y-47243814D01*
X184403472Y-47244500D01*
X180086528Y-47244500D01*
X180028337Y-47225593D01*
X179992373Y-47176093D01*
X179989432Y-47164824D01*
X179980966Y-47122260D01*
X179925601Y-47039399D01*
X179925599Y-47039397D01*
X179842742Y-46984035D01*
X179842740Y-46984034D01*
X179842737Y-46984033D01*
X179842736Y-46984033D01*
X179769684Y-46969501D01*
X179769674Y-46969500D01*
X179769673Y-46969500D01*
X179156190Y-46969500D01*
X179097999Y-46950593D01*
X179086186Y-46940504D01*
X177873223Y-45727541D01*
X176660212Y-44514530D01*
X176580288Y-44468386D01*
X176580287Y-44468385D01*
X176580286Y-44468385D01*
X176573480Y-44466562D01*
X176570308Y-44465712D01*
X176491144Y-44444500D01*
X176491142Y-44444500D01*
X161903190Y-44444500D01*
X161844999Y-44425593D01*
X161809035Y-44376093D01*
X161809035Y-44314907D01*
X161833186Y-44275496D01*
X162420682Y-43688000D01*
X177498750Y-43688000D01*
X177517669Y-43831708D01*
X177517670Y-43831709D01*
X177569272Y-43956291D01*
X177573139Y-43965625D01*
X177661379Y-44080621D01*
X177776375Y-44168861D01*
X177910291Y-44224330D01*
X178054000Y-44243250D01*
X178197709Y-44224330D01*
X178331625Y-44168861D01*
X178335232Y-44166092D01*
X178392908Y-44145669D01*
X178451574Y-44163046D01*
X178488821Y-44211588D01*
X178493681Y-44239871D01*
X178494024Y-44239838D01*
X178494491Y-44244584D01*
X178494500Y-44244635D01*
X178494500Y-44244672D01*
X178494501Y-44244684D01*
X178509033Y-44317736D01*
X178509035Y-44317742D01*
X178564397Y-44400599D01*
X178564399Y-44400601D01*
X178647260Y-44455966D01*
X178696251Y-44465711D01*
X178720315Y-44470498D01*
X178720320Y-44470498D01*
X178720326Y-44470500D01*
X178720327Y-44470500D01*
X179769673Y-44470500D01*
X179769674Y-44470500D01*
X179842740Y-44455966D01*
X179925601Y-44400601D01*
X179980966Y-44317740D01*
X179984458Y-44300183D01*
X180014354Y-44246802D01*
X180069919Y-44221186D01*
X180081555Y-44220500D01*
X184408445Y-44220500D01*
X184466636Y-44239407D01*
X184502600Y-44288907D01*
X184505539Y-44300173D01*
X184506937Y-44307197D01*
X184509034Y-44317741D01*
X184509035Y-44317742D01*
X184564397Y-44400599D01*
X184564399Y-44400601D01*
X184647260Y-44455966D01*
X184696251Y-44465711D01*
X184720315Y-44470498D01*
X184720320Y-44470498D01*
X184720326Y-44470500D01*
X184720327Y-44470500D01*
X185769673Y-44470500D01*
X185769674Y-44470500D01*
X185842740Y-44455966D01*
X185925601Y-44400601D01*
X185980966Y-44317740D01*
X185995500Y-44244674D01*
X185995500Y-43445326D01*
X185980966Y-43372260D01*
X185954219Y-43332230D01*
X185925602Y-43289400D01*
X185925599Y-43289397D01*
X185842742Y-43234035D01*
X185842740Y-43234034D01*
X185842737Y-43234033D01*
X185842736Y-43234033D01*
X185769684Y-43219501D01*
X185769674Y-43219500D01*
X184720326Y-43219500D01*
X184720325Y-43219500D01*
X184720315Y-43219501D01*
X184647263Y-43234033D01*
X184647257Y-43234035D01*
X184564400Y-43289397D01*
X184564397Y-43289400D01*
X184509035Y-43372257D01*
X184509034Y-43372258D01*
X184508588Y-43374500D01*
X184505541Y-43389816D01*
X184475646Y-43443198D01*
X184420081Y-43468814D01*
X184408445Y-43469500D01*
X180081555Y-43469500D01*
X180023364Y-43450593D01*
X179987400Y-43401093D01*
X179984460Y-43389826D01*
X179980966Y-43372260D01*
X179954219Y-43332230D01*
X179925602Y-43289400D01*
X179925599Y-43289397D01*
X179842742Y-43234035D01*
X179842740Y-43234034D01*
X179842737Y-43234033D01*
X179842736Y-43234033D01*
X179769684Y-43219501D01*
X179769674Y-43219500D01*
X179769673Y-43219500D01*
X179719500Y-43219500D01*
X179661309Y-43200593D01*
X179625345Y-43151093D01*
X179620500Y-43120500D01*
X179620500Y-41969500D01*
X179639407Y-41911309D01*
X179688907Y-41875345D01*
X179719500Y-41870500D01*
X179769673Y-41870500D01*
X179769674Y-41870500D01*
X179842740Y-41855966D01*
X179925601Y-41800601D01*
X179980966Y-41717740D01*
X179984458Y-41700183D01*
X180014354Y-41646802D01*
X180069919Y-41621186D01*
X180081555Y-41620500D01*
X184408445Y-41620500D01*
X184466636Y-41639407D01*
X184502600Y-41688907D01*
X184505539Y-41700173D01*
X184508319Y-41714145D01*
X184509034Y-41717741D01*
X184509035Y-41717742D01*
X184564397Y-41800599D01*
X184564400Y-41800602D01*
X184610576Y-41831455D01*
X184647260Y-41855966D01*
X184702808Y-41867015D01*
X184720315Y-41870498D01*
X184720320Y-41870498D01*
X184720326Y-41870500D01*
X184720327Y-41870500D01*
X185769673Y-41870500D01*
X185769674Y-41870500D01*
X185842740Y-41855966D01*
X185925601Y-41800601D01*
X185980966Y-41717740D01*
X185995500Y-41644674D01*
X185995500Y-40845326D01*
X185980966Y-40772260D01*
X185963930Y-40746763D01*
X185925602Y-40689400D01*
X185925599Y-40689397D01*
X185842742Y-40634035D01*
X185842740Y-40634034D01*
X185842737Y-40634033D01*
X185842736Y-40634033D01*
X185769684Y-40619501D01*
X185769674Y-40619500D01*
X184720326Y-40619500D01*
X184720325Y-40619500D01*
X184720315Y-40619501D01*
X184647263Y-40634033D01*
X184647257Y-40634035D01*
X184564400Y-40689397D01*
X184564397Y-40689400D01*
X184509035Y-40772257D01*
X184509034Y-40772258D01*
X184509034Y-40772260D01*
X184505541Y-40789816D01*
X184475646Y-40843198D01*
X184420081Y-40868814D01*
X184408445Y-40869500D01*
X180081555Y-40869500D01*
X180023364Y-40850593D01*
X179987400Y-40801093D01*
X179984460Y-40789826D01*
X179980966Y-40772260D01*
X179963930Y-40746763D01*
X179925602Y-40689400D01*
X179925599Y-40689397D01*
X179842742Y-40634035D01*
X179842740Y-40634034D01*
X179842737Y-40634033D01*
X179842736Y-40634033D01*
X179769684Y-40619501D01*
X179769674Y-40619500D01*
X178720326Y-40619500D01*
X178720325Y-40619500D01*
X178694953Y-40624547D01*
X178647260Y-40634034D01*
X178647259Y-40634034D01*
X178643753Y-40634732D01*
X178582991Y-40627541D01*
X178545185Y-40596963D01*
X178482192Y-40512815D01*
X178482184Y-40512807D01*
X178367090Y-40426647D01*
X178367088Y-40426646D01*
X178232381Y-40376403D01*
X178232370Y-40376401D01*
X178172824Y-40370000D01*
X177875001Y-40370000D01*
X177875000Y-40370001D01*
X177875000Y-42119999D01*
X177875001Y-42120000D01*
X178172824Y-42120000D01*
X178232370Y-42113598D01*
X178232381Y-42113596D01*
X178367088Y-42063353D01*
X178367090Y-42063352D01*
X178482184Y-41977192D01*
X178482190Y-41977186D01*
X178545184Y-41893037D01*
X178595193Y-41857783D01*
X178643754Y-41855268D01*
X178647258Y-41855965D01*
X178647260Y-41855966D01*
X178678037Y-41862088D01*
X178720318Y-41870499D01*
X178720324Y-41870499D01*
X178720326Y-41870500D01*
X178770500Y-41870500D01*
X178828691Y-41889407D01*
X178864655Y-41938907D01*
X178869500Y-41969500D01*
X178869500Y-43120500D01*
X178850593Y-43178691D01*
X178801093Y-43214655D01*
X178770500Y-43219500D01*
X178720326Y-43219500D01*
X178720325Y-43219500D01*
X178720315Y-43219501D01*
X178647263Y-43234033D01*
X178647257Y-43234035D01*
X178592211Y-43270816D01*
X178537210Y-43287500D01*
X178469960Y-43287500D01*
X178411769Y-43268593D01*
X178409693Y-43267042D01*
X178331629Y-43207142D01*
X178331628Y-43207141D01*
X178331625Y-43207139D01*
X178331622Y-43207138D01*
X178331621Y-43207137D01*
X178197709Y-43151670D01*
X178197708Y-43151669D01*
X178054000Y-43132750D01*
X177910291Y-43151669D01*
X177910290Y-43151670D01*
X177776378Y-43207137D01*
X177776374Y-43207139D01*
X177661381Y-43295377D01*
X177661377Y-43295381D01*
X177573139Y-43410374D01*
X177573137Y-43410378D01*
X177517670Y-43544290D01*
X177517669Y-43544291D01*
X177498750Y-43687999D01*
X177498750Y-43688000D01*
X162420682Y-43688000D01*
X164440858Y-41667824D01*
X170624999Y-41667824D01*
X170631401Y-41727370D01*
X170631403Y-41727381D01*
X170681646Y-41862088D01*
X170681647Y-41862090D01*
X170767807Y-41977184D01*
X170767815Y-41977192D01*
X170882909Y-42063352D01*
X170882911Y-42063353D01*
X171017618Y-42113596D01*
X171017629Y-42113598D01*
X171077176Y-42120000D01*
X171374999Y-42120000D01*
X171375000Y-42119999D01*
X171875000Y-42119999D01*
X171875001Y-42120000D01*
X172172824Y-42120000D01*
X172232370Y-42113598D01*
X172232381Y-42113596D01*
X172367088Y-42063353D01*
X172367090Y-42063352D01*
X172482184Y-41977192D01*
X172482192Y-41977184D01*
X172568352Y-41862090D01*
X172568353Y-41862088D01*
X172618596Y-41727381D01*
X172618598Y-41727370D01*
X172625000Y-41667824D01*
X176624999Y-41667824D01*
X176631401Y-41727370D01*
X176631403Y-41727381D01*
X176681646Y-41862088D01*
X176681647Y-41862090D01*
X176767807Y-41977184D01*
X176767815Y-41977192D01*
X176882909Y-42063352D01*
X176882911Y-42063353D01*
X177017618Y-42113596D01*
X177017629Y-42113598D01*
X177077176Y-42120000D01*
X177374999Y-42120000D01*
X177375000Y-42119999D01*
X177375000Y-41495001D01*
X177374999Y-41495000D01*
X176625001Y-41495000D01*
X176625000Y-41495001D01*
X176625000Y-41667824D01*
X176624999Y-41667824D01*
X172625000Y-41667824D01*
X172625000Y-41495001D01*
X172624999Y-41495000D01*
X171875001Y-41495000D01*
X171875000Y-41495001D01*
X171875000Y-42119999D01*
X171375000Y-42119999D01*
X171375000Y-41495001D01*
X171374999Y-41495000D01*
X170625001Y-41495000D01*
X170625000Y-41495001D01*
X170625000Y-41667824D01*
X170624999Y-41667824D01*
X164440858Y-41667824D01*
X165113683Y-40994999D01*
X170625000Y-40994999D01*
X170625001Y-40995000D01*
X171374999Y-40995000D01*
X171375000Y-40994999D01*
X171875000Y-40994999D01*
X171875001Y-40995000D01*
X172624999Y-40995000D01*
X172625000Y-40994999D01*
X176625000Y-40994999D01*
X176625001Y-40995000D01*
X177374999Y-40995000D01*
X177375000Y-40994999D01*
X177375000Y-40370001D01*
X177374999Y-40370000D01*
X177077176Y-40370000D01*
X177017629Y-40376401D01*
X177017618Y-40376403D01*
X176882911Y-40426646D01*
X176882909Y-40426647D01*
X176767815Y-40512807D01*
X176767807Y-40512815D01*
X176681647Y-40627909D01*
X176681646Y-40627911D01*
X176631403Y-40762618D01*
X176631401Y-40762629D01*
X176625000Y-40822175D01*
X176625000Y-40994999D01*
X172625000Y-40994999D01*
X172625000Y-40822175D01*
X172618598Y-40762629D01*
X172618596Y-40762618D01*
X172568353Y-40627911D01*
X172568352Y-40627909D01*
X172482192Y-40512815D01*
X172482184Y-40512807D01*
X172367090Y-40426647D01*
X172367088Y-40426646D01*
X172232381Y-40376403D01*
X172232370Y-40376401D01*
X172172824Y-40370000D01*
X171875001Y-40370000D01*
X171875000Y-40370001D01*
X171875000Y-40994999D01*
X171375000Y-40994999D01*
X171375000Y-40370001D01*
X171374999Y-40370000D01*
X171077176Y-40370000D01*
X171017629Y-40376401D01*
X171017618Y-40376403D01*
X170882911Y-40426646D01*
X170882909Y-40426647D01*
X170767815Y-40512807D01*
X170767807Y-40512815D01*
X170681647Y-40627909D01*
X170681646Y-40627911D01*
X170631403Y-40762618D01*
X170631401Y-40762629D01*
X170625000Y-40822175D01*
X170625000Y-40994999D01*
X165113683Y-40994999D01*
X166613186Y-39495496D01*
X166667703Y-39467719D01*
X166683190Y-39466500D01*
X177681493Y-39466500D01*
X177681495Y-39466500D01*
X177770639Y-39442614D01*
X177786531Y-39433438D01*
X177786533Y-39433438D01*
X177818951Y-39414721D01*
X177850563Y-39396470D01*
X179097537Y-38149496D01*
X179152054Y-38121719D01*
X179167541Y-38120500D01*
X179769673Y-38120500D01*
X179769674Y-38120500D01*
X179842740Y-38105966D01*
X179925601Y-38050601D01*
X179980966Y-37967740D01*
X179989431Y-37925184D01*
X180019327Y-37871802D01*
X180074892Y-37846186D01*
X180086528Y-37845500D01*
X184403472Y-37845500D01*
X184461663Y-37864407D01*
X184497627Y-37913907D01*
X184500567Y-37925175D01*
X184506719Y-37956100D01*
X184509034Y-37967740D01*
X184509035Y-37967742D01*
X184564397Y-38050599D01*
X184564400Y-38050602D01*
X184633850Y-38097006D01*
X184647260Y-38105966D01*
X184702808Y-38117015D01*
X184720315Y-38120498D01*
X184720320Y-38120498D01*
X184720326Y-38120500D01*
X184720327Y-38120500D01*
X185769673Y-38120500D01*
X185769674Y-38120500D01*
X185842740Y-38105966D01*
X185925601Y-38050601D01*
X185980966Y-37967740D01*
X185995500Y-37894674D01*
X185995500Y-37095326D01*
X185980966Y-37022260D01*
X185972683Y-37009864D01*
X185925602Y-36939400D01*
X185925599Y-36939397D01*
X185842742Y-36884035D01*
X185842740Y-36884034D01*
X185842737Y-36884033D01*
X185842736Y-36884033D01*
X185769684Y-36869501D01*
X185769674Y-36869500D01*
X184720326Y-36869500D01*
X184720325Y-36869500D01*
X184720315Y-36869501D01*
X184647263Y-36884033D01*
X184647257Y-36884035D01*
X184564400Y-36939397D01*
X184564397Y-36939400D01*
X184509035Y-37022257D01*
X184509034Y-37022259D01*
X184509033Y-37022263D01*
X184500568Y-37064815D01*
X184470673Y-37118198D01*
X184415108Y-37143814D01*
X184403472Y-37144500D01*
X180086528Y-37144500D01*
X180028337Y-37125593D01*
X179992373Y-37076093D01*
X179989432Y-37064824D01*
X179980966Y-37022260D01*
X179972683Y-37009864D01*
X179925602Y-36939400D01*
X179925599Y-36939397D01*
X179842742Y-36884035D01*
X179842740Y-36884034D01*
X179842737Y-36884033D01*
X179842736Y-36884033D01*
X179769684Y-36869501D01*
X179769674Y-36869500D01*
X178720326Y-36869500D01*
X178720325Y-36869500D01*
X178720315Y-36869501D01*
X178647263Y-36884033D01*
X178647257Y-36884035D01*
X178564400Y-36939397D01*
X178564397Y-36939400D01*
X178517316Y-37009864D01*
X178469266Y-37047744D01*
X178408128Y-37050146D01*
X178357254Y-37016154D01*
X178352684Y-37009864D01*
X178305602Y-36939400D01*
X178305599Y-36939397D01*
X178222742Y-36884035D01*
X178222740Y-36884034D01*
X178222737Y-36884033D01*
X178222736Y-36884033D01*
X178149684Y-36869501D01*
X178149674Y-36869500D01*
X177100326Y-36869500D01*
X177100325Y-36869500D01*
X177100315Y-36869501D01*
X177027263Y-36884033D01*
X177027257Y-36884035D01*
X176944400Y-36939397D01*
X176944397Y-36939400D01*
X176889035Y-37022257D01*
X176889033Y-37022262D01*
X176875595Y-37089816D01*
X176845698Y-37143199D01*
X176790132Y-37168814D01*
X176778498Y-37169500D01*
X172471502Y-37169500D01*
X172413311Y-37150593D01*
X172377347Y-37101093D01*
X172374405Y-37089816D01*
X172362652Y-37030737D01*
X172360966Y-37022260D01*
X172352683Y-37009864D01*
X172305602Y-36939400D01*
X172305599Y-36939397D01*
X172222742Y-36884035D01*
X172222740Y-36884034D01*
X172222737Y-36884033D01*
X172222736Y-36884033D01*
X172149684Y-36869501D01*
X172149674Y-36869500D01*
X171100326Y-36869500D01*
X171100325Y-36869500D01*
X171100315Y-36869501D01*
X171027263Y-36884033D01*
X171027257Y-36884035D01*
X170944400Y-36939397D01*
X170944397Y-36939400D01*
X170889035Y-37022257D01*
X170889033Y-37022262D01*
X170875595Y-37089816D01*
X170845698Y-37143199D01*
X170790132Y-37168814D01*
X170778498Y-37169500D01*
X168557035Y-37169500D01*
X168498844Y-37150593D01*
X168487031Y-37140504D01*
X168025527Y-36679000D01*
X167535062Y-36188535D01*
X167535059Y-36188533D01*
X167535058Y-36188532D01*
X167535057Y-36188531D01*
X167460842Y-36145683D01*
X167460844Y-36145683D01*
X167428721Y-36137076D01*
X167378053Y-36123500D01*
X167378051Y-36123500D01*
X158047275Y-36123500D01*
X158003795Y-36113441D01*
X157903518Y-36064418D01*
X157855798Y-36057465D01*
X157800943Y-36030366D01*
X157772491Y-35976198D01*
X157781313Y-35915652D01*
X157824038Y-35871854D01*
X157870073Y-35860500D01*
X186642405Y-35860500D01*
X186687015Y-35860500D01*
X186692992Y-35860681D01*
G37*
%TD.AperFunction*%
%TA.AperFunction,Conductor*%
G36*
X157021313Y-36793407D02*
G01*
X157052062Y-36830019D01*
X157103921Y-36936098D01*
X157103923Y-36936100D01*
X157103924Y-36936102D01*
X157181820Y-37013998D01*
X157209596Y-37068513D01*
X157200025Y-37128945D01*
X157181821Y-37154000D01*
X157119322Y-37216500D01*
X157103923Y-37231899D01*
X157049852Y-37342504D01*
X157047418Y-37347482D01*
X157036500Y-37422418D01*
X157036500Y-37765582D01*
X157047418Y-37840518D01*
X157103924Y-37956102D01*
X157194898Y-38047076D01*
X157194899Y-38047076D01*
X157194900Y-38047077D01*
X157200979Y-38050049D01*
X157244954Y-38092591D01*
X157256500Y-38138990D01*
X157256500Y-38210242D01*
X157237593Y-38268433D01*
X157227504Y-38280245D01*
X157175142Y-38332607D01*
X157175141Y-38332609D01*
X157118983Y-38442823D01*
X157104500Y-38534263D01*
X157104500Y-38549016D01*
X157085593Y-38607207D01*
X157043385Y-38640480D01*
X156919878Y-38691637D01*
X156919874Y-38691639D01*
X156804881Y-38779877D01*
X156804877Y-38779881D01*
X156716639Y-38894874D01*
X156716637Y-38894878D01*
X156661170Y-39028790D01*
X156661169Y-39028791D01*
X156642250Y-39172498D01*
X156656742Y-39282578D01*
X156645592Y-39342739D01*
X156601210Y-39384856D01*
X156558591Y-39394500D01*
X156496866Y-39394500D01*
X156496854Y-39394501D01*
X156449455Y-39400740D01*
X156449453Y-39400740D01*
X156345423Y-39449251D01*
X156264253Y-39530421D01*
X156215741Y-39634455D01*
X156209500Y-39681862D01*
X156209500Y-39696170D01*
X156190593Y-39754361D01*
X156170768Y-39774711D01*
X156124908Y-39809901D01*
X156124905Y-39809903D01*
X156032738Y-39930018D01*
X156032736Y-39930022D01*
X155974800Y-40069894D01*
X155974799Y-40069894D01*
X155964911Y-40144999D01*
X155964912Y-40145000D01*
X156332595Y-40145000D01*
X156374432Y-40154275D01*
X156449455Y-40189259D01*
X156496861Y-40195500D01*
X157133241Y-40195499D01*
X157133251Y-40195500D01*
X157144773Y-40195500D01*
X157248500Y-40195500D01*
X157306691Y-40214407D01*
X157342655Y-40263907D01*
X157347500Y-40294500D01*
X157347500Y-40295500D01*
X157328593Y-40353691D01*
X157279093Y-40389655D01*
X157248500Y-40394500D01*
X156496865Y-40394500D01*
X156496854Y-40394501D01*
X156449456Y-40400740D01*
X156410419Y-40418943D01*
X156374432Y-40435724D01*
X156332595Y-40445000D01*
X155964912Y-40445000D01*
X155974800Y-40520105D01*
X156032736Y-40659977D01*
X156032738Y-40659981D01*
X156124900Y-40780089D01*
X156124910Y-40780099D01*
X156170767Y-40815286D01*
X156205423Y-40865710D01*
X156209500Y-40893822D01*
X156209500Y-40908131D01*
X156209501Y-40908145D01*
X156215740Y-40955541D01*
X156215741Y-40955547D01*
X156237944Y-41003162D01*
X156245400Y-41063891D01*
X156237944Y-41086838D01*
X156215743Y-41134448D01*
X156215741Y-41134453D01*
X156215741Y-41134455D01*
X156209619Y-41180961D01*
X156209500Y-41181862D01*
X156209500Y-41408133D01*
X156209501Y-41408145D01*
X156215740Y-41455541D01*
X156215741Y-41455547D01*
X156237944Y-41503162D01*
X156245400Y-41563891D01*
X156237944Y-41586838D01*
X156215743Y-41634448D01*
X156215741Y-41634453D01*
X156215741Y-41634455D01*
X156215019Y-41639944D01*
X156209500Y-41681862D01*
X156209500Y-41908133D01*
X156209501Y-41908145D01*
X156215740Y-41955541D01*
X156215741Y-41955547D01*
X156237944Y-42003162D01*
X156245400Y-42063891D01*
X156237944Y-42086838D01*
X156215743Y-42134448D01*
X156215741Y-42134453D01*
X156215741Y-42134455D01*
X156215670Y-42134999D01*
X156209500Y-42181862D01*
X156209500Y-42408133D01*
X156209501Y-42408145D01*
X156215740Y-42455541D01*
X156215741Y-42455547D01*
X156237944Y-42503162D01*
X156245400Y-42563891D01*
X156237944Y-42586838D01*
X156215743Y-42634448D01*
X156215741Y-42634453D01*
X156215741Y-42634455D01*
X156212845Y-42656457D01*
X156209500Y-42681862D01*
X156209500Y-42908133D01*
X156209501Y-42908145D01*
X156215740Y-42955541D01*
X156215741Y-42955547D01*
X156237944Y-43003162D01*
X156245400Y-43063891D01*
X156237944Y-43086838D01*
X156215743Y-43134448D01*
X156215741Y-43134453D01*
X156215741Y-43134455D01*
X156210822Y-43171824D01*
X156209500Y-43181862D01*
X156209500Y-43408133D01*
X156209501Y-43408145D01*
X156215740Y-43455541D01*
X156215741Y-43455547D01*
X156237944Y-43503162D01*
X156245400Y-43563891D01*
X156237944Y-43586838D01*
X156215743Y-43634448D01*
X156215741Y-43634456D01*
X156209500Y-43681862D01*
X156209500Y-43898100D01*
X156190593Y-43956291D01*
X156141093Y-43992255D01*
X156079907Y-43992255D01*
X156040498Y-43968105D01*
X154904323Y-42831930D01*
X154904320Y-42831928D01*
X154904318Y-42831926D01*
X154813001Y-42779204D01*
X154813003Y-42779204D01*
X154773480Y-42768614D01*
X154711137Y-42751910D01*
X154711135Y-42751910D01*
X150784500Y-42751910D01*
X150726309Y-42733003D01*
X150690345Y-42683503D01*
X150685500Y-42652910D01*
X150685500Y-38331500D01*
X150704407Y-38273309D01*
X150753907Y-38237345D01*
X150784500Y-38232500D01*
X150785500Y-38232500D01*
X150843691Y-38251407D01*
X150879655Y-38300907D01*
X150884500Y-38331500D01*
X150884500Y-39083134D01*
X150884501Y-39083145D01*
X150890740Y-39130543D01*
X150890741Y-39130545D01*
X150921677Y-39196888D01*
X150925724Y-39205565D01*
X150935000Y-39247405D01*
X150935000Y-39615087D01*
X151010104Y-39605199D01*
X151149977Y-39547263D01*
X151149981Y-39547261D01*
X151270089Y-39455099D01*
X151270099Y-39455089D01*
X151305287Y-39409232D01*
X151355711Y-39374576D01*
X151383828Y-39370499D01*
X151398138Y-39370499D01*
X151445545Y-39364259D01*
X151493161Y-39342054D01*
X151553888Y-39334598D01*
X151576836Y-39342053D01*
X151624455Y-39364259D01*
X151671861Y-39370500D01*
X151898138Y-39370499D01*
X151945545Y-39364259D01*
X151993161Y-39342054D01*
X152053888Y-39334598D01*
X152076836Y-39342053D01*
X152124455Y-39364259D01*
X152171861Y-39370500D01*
X152398138Y-39370499D01*
X152445545Y-39364259D01*
X152493161Y-39342054D01*
X152553888Y-39334598D01*
X152576836Y-39342053D01*
X152624455Y-39364259D01*
X152671861Y-39370500D01*
X152898138Y-39370499D01*
X152945545Y-39364259D01*
X152993161Y-39342054D01*
X153053888Y-39334598D01*
X153076836Y-39342053D01*
X153124455Y-39364259D01*
X153171861Y-39370500D01*
X153398138Y-39370499D01*
X153445545Y-39364259D01*
X153493161Y-39342054D01*
X153553888Y-39334598D01*
X153576836Y-39342053D01*
X153624455Y-39364259D01*
X153671861Y-39370500D01*
X153898138Y-39370499D01*
X153945545Y-39364259D01*
X153993161Y-39342054D01*
X154053888Y-39334598D01*
X154076836Y-39342053D01*
X154124455Y-39364259D01*
X154171861Y-39370500D01*
X154398138Y-39370499D01*
X154445545Y-39364259D01*
X154493161Y-39342054D01*
X154553888Y-39334598D01*
X154576836Y-39342053D01*
X154624455Y-39364259D01*
X154671861Y-39370500D01*
X154898138Y-39370499D01*
X154945545Y-39364259D01*
X154993161Y-39342054D01*
X155053888Y-39334598D01*
X155076836Y-39342053D01*
X155124455Y-39364259D01*
X155171861Y-39370500D01*
X155398138Y-39370499D01*
X155445545Y-39364259D01*
X155493161Y-39342054D01*
X155553888Y-39334598D01*
X155576836Y-39342053D01*
X155624455Y-39364259D01*
X155671861Y-39370500D01*
X155898138Y-39370499D01*
X155945545Y-39364259D01*
X155945546Y-39364259D01*
X156027392Y-39326093D01*
X156049579Y-39315747D01*
X156130747Y-39234579D01*
X156179259Y-39130545D01*
X156185500Y-39083139D01*
X156185499Y-37681862D01*
X156179259Y-37634455D01*
X156179259Y-37634453D01*
X156130748Y-37530423D01*
X156130747Y-37530422D01*
X156130747Y-37530421D01*
X156049579Y-37449253D01*
X155945545Y-37400741D01*
X155898139Y-37394500D01*
X155898137Y-37394500D01*
X155671866Y-37394500D01*
X155671854Y-37394501D01*
X155624458Y-37400740D01*
X155624452Y-37400741D01*
X155576838Y-37422944D01*
X155516109Y-37430400D01*
X155493162Y-37422944D01*
X155445551Y-37400743D01*
X155445547Y-37400742D01*
X155445545Y-37400741D01*
X155398139Y-37394500D01*
X155398137Y-37394500D01*
X155171866Y-37394500D01*
X155171854Y-37394501D01*
X155124458Y-37400740D01*
X155124452Y-37400741D01*
X155076838Y-37422944D01*
X155016109Y-37430400D01*
X154993162Y-37422944D01*
X154945551Y-37400743D01*
X154945547Y-37400742D01*
X154945545Y-37400741D01*
X154898139Y-37394500D01*
X154898137Y-37394500D01*
X154671866Y-37394500D01*
X154671854Y-37394501D01*
X154624458Y-37400740D01*
X154624452Y-37400741D01*
X154576838Y-37422944D01*
X154516109Y-37430400D01*
X154493162Y-37422944D01*
X154445551Y-37400743D01*
X154445547Y-37400742D01*
X154445545Y-37400741D01*
X154398139Y-37394500D01*
X154398137Y-37394500D01*
X154171866Y-37394500D01*
X154171854Y-37394501D01*
X154124458Y-37400740D01*
X154124452Y-37400741D01*
X154076838Y-37422944D01*
X154016109Y-37430400D01*
X153993162Y-37422944D01*
X153945551Y-37400743D01*
X153945547Y-37400742D01*
X153945545Y-37400741D01*
X153898139Y-37394500D01*
X153898137Y-37394500D01*
X153671866Y-37394500D01*
X153671854Y-37394501D01*
X153624458Y-37400740D01*
X153624452Y-37400741D01*
X153576838Y-37422944D01*
X153516109Y-37430400D01*
X153493162Y-37422944D01*
X153445551Y-37400743D01*
X153445547Y-37400742D01*
X153445545Y-37400741D01*
X153398139Y-37394500D01*
X153398137Y-37394500D01*
X153171866Y-37394500D01*
X153171854Y-37394501D01*
X153124458Y-37400740D01*
X153124452Y-37400741D01*
X153076838Y-37422944D01*
X153016109Y-37430400D01*
X152993162Y-37422944D01*
X152945551Y-37400743D01*
X152945547Y-37400742D01*
X152945545Y-37400741D01*
X152898139Y-37394500D01*
X152898138Y-37394500D01*
X152709500Y-37394500D01*
X152651309Y-37375593D01*
X152615345Y-37326093D01*
X152610500Y-37295500D01*
X152610500Y-36873500D01*
X152629407Y-36815309D01*
X152678907Y-36779345D01*
X152709500Y-36774500D01*
X156963122Y-36774500D01*
X157021313Y-36793407D01*
G37*
%TD.AperFunction*%
%TA.AperFunction,Conductor*%
G36*
X167217556Y-36793407D02*
G01*
X167229369Y-36803496D01*
X168120735Y-37694862D01*
X168120734Y-37694862D01*
X168164856Y-37738983D01*
X168181338Y-37755465D01*
X168255562Y-37798318D01*
X168338347Y-37820500D01*
X170778498Y-37820500D01*
X170836689Y-37839407D01*
X170872653Y-37888907D01*
X170875595Y-37900184D01*
X170889033Y-37967737D01*
X170889035Y-37967742D01*
X170944397Y-38050599D01*
X170944400Y-38050602D01*
X171013850Y-38097006D01*
X171027260Y-38105966D01*
X171082808Y-38117015D01*
X171100315Y-38120498D01*
X171100320Y-38120498D01*
X171100326Y-38120500D01*
X171100327Y-38120500D01*
X172149673Y-38120500D01*
X172149674Y-38120500D01*
X172222740Y-38105966D01*
X172305601Y-38050601D01*
X172360966Y-37967740D01*
X172369431Y-37925186D01*
X172374405Y-37900184D01*
X172404302Y-37846801D01*
X172459868Y-37821186D01*
X172471502Y-37820500D01*
X176778498Y-37820500D01*
X176836689Y-37839407D01*
X176872653Y-37888907D01*
X176875595Y-37900184D01*
X176889033Y-37967737D01*
X176889035Y-37967742D01*
X176944397Y-38050599D01*
X176944400Y-38050602D01*
X177013850Y-38097006D01*
X177027260Y-38105966D01*
X177082808Y-38117015D01*
X177100315Y-38120498D01*
X177100320Y-38120498D01*
X177100326Y-38120500D01*
X177896161Y-38120500D01*
X177954352Y-38139407D01*
X177990316Y-38188907D01*
X177990316Y-38250093D01*
X177966165Y-38289504D01*
X177519165Y-38736504D01*
X177464648Y-38764281D01*
X177449161Y-38765500D01*
X166450856Y-38765500D01*
X166385545Y-38783000D01*
X166361712Y-38789386D01*
X166281788Y-38835530D01*
X161201814Y-43915504D01*
X161147297Y-43943281D01*
X161131810Y-43944500D01*
X158284500Y-43944500D01*
X158226309Y-43925593D01*
X158190345Y-43876093D01*
X158185500Y-43845501D01*
X158185499Y-43681866D01*
X158185498Y-43681854D01*
X158180923Y-43647094D01*
X158179259Y-43634455D01*
X158157054Y-43586838D01*
X158149598Y-43526110D01*
X158157051Y-43503168D01*
X158179259Y-43455545D01*
X158185500Y-43408139D01*
X158185499Y-43181862D01*
X158179259Y-43134455D01*
X158157054Y-43086838D01*
X158149598Y-43026110D01*
X158157051Y-43003168D01*
X158179259Y-42955545D01*
X158185500Y-42908139D01*
X158185499Y-42681862D01*
X158179259Y-42634455D01*
X158157054Y-42586838D01*
X158149598Y-42526110D01*
X158157048Y-42503175D01*
X158158337Y-42500411D01*
X158200059Y-42455664D01*
X158260119Y-42443984D01*
X158315574Y-42469837D01*
X158318037Y-42472215D01*
X158385898Y-42540076D01*
X158501482Y-42596582D01*
X158576418Y-42607500D01*
X158576421Y-42607500D01*
X158919578Y-42607500D01*
X158919582Y-42607500D01*
X158994518Y-42596582D01*
X159110102Y-42540076D01*
X159187998Y-42462179D01*
X159242513Y-42434404D01*
X159302945Y-42443975D01*
X159328000Y-42462178D01*
X159405898Y-42540076D01*
X159521482Y-42596582D01*
X159596418Y-42607500D01*
X159596421Y-42607500D01*
X159939578Y-42607500D01*
X159939582Y-42607500D01*
X160014518Y-42596582D01*
X160113159Y-42548358D01*
X160173739Y-42539788D01*
X160227789Y-42568463D01*
X160248102Y-42599415D01*
X160248727Y-42600925D01*
X160254618Y-42615146D01*
X160342858Y-42730142D01*
X160457854Y-42818382D01*
X160591770Y-42873851D01*
X160735479Y-42892771D01*
X160879188Y-42873851D01*
X161013104Y-42818382D01*
X161128100Y-42730142D01*
X161216340Y-42615146D01*
X161271809Y-42481230D01*
X161286141Y-42372368D01*
X161312481Y-42317146D01*
X161366251Y-42287951D01*
X161371340Y-42287144D01*
X161480230Y-42272809D01*
X161614146Y-42217340D01*
X161729142Y-42129100D01*
X161817382Y-42014104D01*
X161872851Y-41880188D01*
X161891771Y-41736479D01*
X161889303Y-41717736D01*
X161872851Y-41592770D01*
X161817382Y-41458854D01*
X161729142Y-41343858D01*
X161614146Y-41255618D01*
X161614142Y-41255616D01*
X161480230Y-41200149D01*
X161480229Y-41200148D01*
X161336521Y-41181229D01*
X161192814Y-41200148D01*
X161192812Y-41200149D01*
X161131157Y-41225687D01*
X161126799Y-41227492D01*
X161065802Y-41232291D01*
X161018913Y-41206032D01*
X160848393Y-41035512D01*
X160824832Y-41021909D01*
X160768469Y-40989367D01*
X160767604Y-40989136D01*
X160767599Y-40989133D01*
X160767599Y-40989135D01*
X160679325Y-40965482D01*
X160679323Y-40965482D01*
X160385815Y-40965482D01*
X160327624Y-40946575D01*
X160291660Y-40897075D01*
X160286815Y-40866482D01*
X160286815Y-40821702D01*
X160286815Y-40821699D01*
X160275897Y-40746763D01*
X160219391Y-40631179D01*
X160128417Y-40540205D01*
X160128415Y-40540204D01*
X160122616Y-40534405D01*
X160124807Y-40532213D01*
X160096914Y-40494473D01*
X160091815Y-40463112D01*
X160091815Y-40459371D01*
X160110722Y-40401180D01*
X160124722Y-40387297D01*
X160124301Y-40386876D01*
X160130099Y-40381077D01*
X160130102Y-40381076D01*
X160221076Y-40290102D01*
X160277582Y-40174518D01*
X160288500Y-40099582D01*
X160288500Y-39656418D01*
X160277582Y-39581482D01*
X160221076Y-39465898D01*
X160130102Y-39374924D01*
X160014518Y-39318418D01*
X159939582Y-39307500D01*
X159596418Y-39307500D01*
X159539808Y-39315748D01*
X159521482Y-39318418D01*
X159414101Y-39370913D01*
X159353519Y-39379484D01*
X159299469Y-39350808D01*
X159272597Y-39295839D01*
X159283167Y-39235574D01*
X159285408Y-39231576D01*
X159327031Y-39161195D01*
X159372144Y-39005912D01*
X159373791Y-38985000D01*
X158444000Y-38985000D01*
X158385809Y-38966093D01*
X158349845Y-38916593D01*
X158345000Y-38886000D01*
X158345000Y-37930494D01*
X158845000Y-37930494D01*
X158845000Y-38484999D01*
X158845001Y-38485000D01*
X159373789Y-38485000D01*
X159372144Y-38464087D01*
X159372143Y-38464079D01*
X159327030Y-38308802D01*
X159327030Y-38308801D01*
X159244721Y-38169625D01*
X159130374Y-38055278D01*
X158991198Y-37972969D01*
X158991194Y-37972968D01*
X158845000Y-37930494D01*
X158345000Y-37930494D01*
X158345000Y-37930493D01*
X158344999Y-37930493D01*
X158292777Y-37945665D01*
X158231622Y-37943743D01*
X158183277Y-37906242D01*
X158166207Y-37847486D01*
X158167189Y-37836345D01*
X158177500Y-37765582D01*
X158177500Y-37422418D01*
X158166582Y-37347482D01*
X158110076Y-37231898D01*
X158032179Y-37154001D01*
X158004404Y-37099487D01*
X158013975Y-37039055D01*
X158032178Y-37013999D01*
X158110076Y-36936102D01*
X158133492Y-36888204D01*
X158161938Y-36830019D01*
X158204481Y-36786045D01*
X158250878Y-36774500D01*
X167159365Y-36774500D01*
X167217556Y-36793407D01*
G37*
%TD.AperFunction*%
%TA.AperFunction,Conductor*%
G36*
X144989191Y-41269907D02*
G01*
X145025155Y-41319407D01*
X145030000Y-41350000D01*
X145030000Y-42724000D01*
X145011093Y-42782191D01*
X144961593Y-42818155D01*
X144931000Y-42823000D01*
X144629000Y-42823000D01*
X144570809Y-42804093D01*
X144534845Y-42754593D01*
X144530000Y-42724000D01*
X144530000Y-41350000D01*
X144548907Y-41291809D01*
X144598407Y-41255845D01*
X144629000Y-41251000D01*
X144931000Y-41251000D01*
X144989191Y-41269907D01*
G37*
%TD.AperFunction*%
%TA.AperFunction,Conductor*%
G36*
X131078046Y-37072007D02*
G01*
X131089859Y-37082096D01*
X131985325Y-37977562D01*
X131985324Y-37977562D01*
X132055238Y-38047475D01*
X132140858Y-38096908D01*
X132140862Y-38096910D01*
X132188612Y-38109705D01*
X132188613Y-38109705D01*
X132236364Y-38122500D01*
X132236365Y-38122500D01*
X134522695Y-38122500D01*
X134580886Y-38141407D01*
X134616850Y-38190907D01*
X134616850Y-38252093D01*
X134601947Y-38280830D01*
X134596647Y-38287908D01*
X134596646Y-38287911D01*
X134546403Y-38422618D01*
X134546401Y-38422629D01*
X134540000Y-38482175D01*
X134540000Y-39129999D01*
X134540001Y-39130000D01*
X135456988Y-39130000D01*
X135424075Y-39187007D01*
X135390000Y-39314174D01*
X135390000Y-39445826D01*
X135424075Y-39572993D01*
X135456988Y-39630000D01*
X134540001Y-39630000D01*
X134540000Y-39630001D01*
X134540000Y-40063900D01*
X134521093Y-40122091D01*
X134471593Y-40158055D01*
X134441000Y-40162900D01*
X133800545Y-40162900D01*
X133742354Y-40143993D01*
X133730541Y-40133904D01*
X132960163Y-39363526D01*
X132960163Y-39363525D01*
X132874541Y-39314091D01*
X132874537Y-39314089D01*
X132809480Y-39296657D01*
X132809479Y-39296657D01*
X132779038Y-39288500D01*
X132779036Y-39288500D01*
X132779035Y-39288500D01*
X132007499Y-39288500D01*
X131949308Y-39269593D01*
X131913344Y-39220093D01*
X131908499Y-39189500D01*
X131908499Y-38766133D01*
X131908499Y-38766128D01*
X131902091Y-38706517D01*
X131885231Y-38661312D01*
X131851797Y-38571670D01*
X131765549Y-38456458D01*
X131765548Y-38456457D01*
X131765546Y-38456454D01*
X131747340Y-38442825D01*
X131650329Y-38370202D01*
X131515488Y-38319910D01*
X131515483Y-38319909D01*
X131515481Y-38319908D01*
X131515477Y-38319908D01*
X131484249Y-38316550D01*
X131455873Y-38313500D01*
X131455870Y-38313500D01*
X130782745Y-38313500D01*
X130724554Y-38294593D01*
X130712741Y-38284504D01*
X129948363Y-37520126D01*
X129948363Y-37520125D01*
X129862741Y-37470691D01*
X129862737Y-37470689D01*
X129801248Y-37454213D01*
X129749934Y-37420889D01*
X129746150Y-37414952D01*
X129745842Y-37415173D01*
X129741079Y-37408502D01*
X129741076Y-37408499D01*
X129741076Y-37408498D01*
X129650102Y-37317524D01*
X129534518Y-37261018D01*
X129459582Y-37250100D01*
X129459578Y-37250100D01*
X129459345Y-37250066D01*
X129404488Y-37222966D01*
X129376036Y-37168798D01*
X129384858Y-37108252D01*
X129427582Y-37064455D01*
X129473618Y-37053100D01*
X131019855Y-37053100D01*
X131078046Y-37072007D01*
G37*
%TD.AperFunction*%
%TA.AperFunction,Conductor*%
G36*
X157402118Y-35879407D02*
G01*
X157438082Y-35928907D01*
X157438082Y-35990093D01*
X157402118Y-36039593D01*
X157358201Y-36057465D01*
X157310482Y-36064418D01*
X157210205Y-36113441D01*
X157166725Y-36123500D01*
X152550532Y-36123500D01*
X152550516Y-36123499D01*
X152544453Y-36123499D01*
X152458747Y-36123499D01*
X152458744Y-36123499D01*
X152375962Y-36145681D01*
X152375958Y-36145683D01*
X152301738Y-36188534D01*
X152246778Y-36243492D01*
X152246779Y-36243493D01*
X152246776Y-36243496D01*
X152246775Y-36243495D01*
X152024535Y-36465737D01*
X152024531Y-36465742D01*
X151981682Y-36539960D01*
X151981681Y-36539960D01*
X151981682Y-36539961D01*
X151959500Y-36622747D01*
X151959500Y-37295500D01*
X151940593Y-37353691D01*
X151891093Y-37389655D01*
X151860500Y-37394500D01*
X151797894Y-37394500D01*
X151739703Y-37375593D01*
X151703739Y-37326093D01*
X151703739Y-37264907D01*
X151707030Y-37256199D01*
X151752144Y-37100912D01*
X151753791Y-37080000D01*
X150824000Y-37080000D01*
X150765809Y-37061093D01*
X150729845Y-37011593D01*
X150725000Y-36981000D01*
X150725000Y-36679000D01*
X150743907Y-36620809D01*
X150793407Y-36584845D01*
X150824000Y-36580000D01*
X151753789Y-36580000D01*
X151752144Y-36559087D01*
X151752143Y-36559079D01*
X151707030Y-36403802D01*
X151707030Y-36403801D01*
X151624721Y-36264625D01*
X151510374Y-36150278D01*
X151371197Y-36067969D01*
X151325074Y-36054569D01*
X151274469Y-36020178D01*
X151253743Y-35962610D01*
X151270813Y-35903854D01*
X151319159Y-35866353D01*
X151352694Y-35860500D01*
X157343927Y-35860500D01*
X157402118Y-35879407D01*
G37*
%TD.AperFunction*%
%TD*%
M02*
