M48
; DRILL file {KiCad 8.0.1} date 2024-04-01T19:00:05-0400
; FORMAT={-:-/ absolute / inch / decimal}
; #@! TF.CreationDate,2024-04-01T19:00:05-04:00
; #@! TF.GenerationSoftware,Kicad,Pcbnew,8.0.1
; #@! TF.FileFunction,Plated,1,2,PTH
FMAT,2
INCH
; #@! TA.AperFunction,Plated,PTH,ViaDrill
T1C0.0118
; #@! TA.AperFunction,Plated,PTH,ComponentDrill
T2C0.0236
; #@! TA.AperFunction,Plated,PTH,ComponentDrill
T3C0.0394
; #@! TA.AperFunction,Plated,PTH,ComponentDrill
T4C0.1260
%
G90
G05
T1
X3.914Y-1.779
X3.968Y-1.82
X3.977Y-1.643
X3.996Y-1.732
X3.996Y-1.834
X4.03Y-1.732
X4.084Y-1.786
X4.086Y-1.854
X4.101Y-1.545
X4.122Y-1.854
X4.15Y-1.624
X4.21Y-1.86
X4.223Y-1.6004
X4.248Y-1.86
X4.2564Y-1.6004
X4.288Y-1.62
X4.294Y-1.864
X4.349Y-1.719
X4.386Y-1.912
X4.418Y-1.912
X4.45Y-1.912
X4.461Y-1.45
X4.512Y-1.714
X4.544Y-1.526
X4.554Y-1.812
X4.554Y-1.898
X4.617Y-1.64
X4.639Y-1.733
X4.673Y-1.627
X4.683Y-1.531
X4.692Y-1.82
X4.692Y-1.92
X4.692Y-2.06
X4.692Y-2.16
X4.768Y-1.626
X4.769Y-1.687
X4.837Y-1.659
X4.845Y-1.478
X4.892Y-1.82
X4.892Y-1.92
X4.892Y-2.06
X4.892Y-2.16
X4.907Y-1.533
X4.979Y-1.656
X4.983Y-1.478
X5.045Y-1.587
X5.088Y-1.541
X5.111Y-1.655
X5.153Y-1.484
X5.212Y-1.757
X5.271Y-1.562
X5.271Y-1.722
X5.283Y-1.633
X5.412Y-1.7
X5.445Y-1.885
X5.476Y-1.574
X5.528Y-1.719
X5.574Y-1.672
X5.619Y-1.525
X5.645Y-1.61
X5.645Y-1.72
X5.6565Y-1.4876
X5.71Y-1.479
X5.72Y-1.75
X5.724Y-1.539
X5.849Y-1.487
X5.862Y-1.538
X5.8881Y-1.8679
X5.9Y-1.7636
X5.94Y-1.73
X5.95Y-1.655
X5.9561Y-1.795
X5.9955Y-1.795
X6.0545Y-1.795
X6.075Y-1.73
X6.1578Y-1.8389
X6.165Y-1.5
X6.1889Y-1.5422
X6.245Y-1.855
X6.25Y-1.48
X6.255Y-1.79
X6.29Y-1.53
X6.29Y-1.87
X6.295Y-1.8
X6.3Y-1.69
X6.3282Y-1.6668
X6.3518Y-1.6432
X6.365Y-1.68
X6.37Y-1.61
X6.415Y-1.87
X6.435Y-1.915
X6.455Y-1.69
X6.47Y-1.805
X6.8Y-1.69
X6.815Y-1.8
X6.875Y-1.455
X6.875Y-1.51
X6.875Y-1.575
X6.995Y-1.76
X7.01Y-1.72
X7.025Y-1.675
X7.1Y-1.675
X7.175Y-1.55
X7.175Y-1.8
X7.3Y-1.675
T3
X5.35Y-1.5504
X5.35Y-1.6504
X5.35Y-1.7504
X5.35Y-1.8504
T4
X3.75Y-2.23
X3.75Y-5.13
X7.25Y-2.23
X7.25Y-5.13
T2
G00X4.0499Y-1.4805
M15
G01X4.0499Y-1.4569
M16
G05
G00X4.0499Y-1.6549
M15
G01X4.0499Y-1.6116
M16
G05
G00X4.3901Y-1.4805
M15
G01X4.3901Y-1.4569
M16
G05
G00X4.3901Y-1.6549
M15
G01X4.3901Y-1.6116
M16
G05
T3
G00X3.65Y-1.7258
M15
G01X3.65Y-1.8242
M16
G05
G00X3.8843Y-1.6589
M15
G01X3.7858Y-1.6589
M16
G05
G00X3.8843Y-1.8911
M15
G01X3.7858Y-1.8911
M16
G05
M30
