%TF.GenerationSoftware,KiCad,Pcbnew,8.0.1*%
%TF.CreationDate,2024-04-01T19:00:03-04:00*%
%TF.ProjectId,Reflow Plate,5265666c-6f77-4205-906c-6174652e6b69,rev?*%
%TF.SameCoordinates,Original*%
%TF.FileFunction,Legend,Bot*%
%TF.FilePolarity,Positive*%
%FSLAX46Y46*%
G04 Gerber Fmt 4.6, Leading zero omitted, Abs format (unit mm)*
G04 Created by KiCad (PCBNEW 8.0.1) date 2024-04-01 19:00:03*
%MOMM*%
%LPD*%
G01*
G04 APERTURE LIST*
G04 Aperture macros list*
%AMRoundRect*
0 Rectangle with rounded corners*
0 $1 Rounding radius*
0 $2 $3 $4 $5 $6 $7 $8 $9 X,Y pos of 4 corners*
0 Add a 4 corners polygon primitive as box body*
4,1,4,$2,$3,$4,$5,$6,$7,$8,$9,$2,$3,0*
0 Add four circle primitives for the rounded corners*
1,1,$1+$1,$2,$3*
1,1,$1+$1,$4,$5*
1,1,$1+$1,$6,$7*
1,1,$1+$1,$8,$9*
0 Add four rect primitives between the rounded corners*
20,1,$1+$1,$2,$3,$4,$5,0*
20,1,$1+$1,$4,$5,$6,$7,0*
20,1,$1+$1,$6,$7,$8,$9,0*
20,1,$1+$1,$8,$9,$2,$3,0*%
G04 Aperture macros list end*
%ADD10C,0.150000*%
%ADD11C,0.120000*%
%ADD12R,1.700000X1.700000*%
%ADD13O,1.700000X1.700000*%
%ADD14C,5.700000*%
%ADD15RoundRect,0.317500X-0.317500X-1.587500X0.317500X-1.587500X0.317500X1.587500X-0.317500X1.587500X0*%
%ADD16O,4.100000X1.600000*%
%ADD17O,1.600000X4.100000*%
%ADD18RoundRect,0.317500X0.317500X1.587500X-0.317500X1.587500X-0.317500X-1.587500X0.317500X-1.587500X0*%
%ADD19C,0.650000*%
%ADD20O,1.000000X2.100000*%
%ADD21O,1.000000X1.600000*%
%ADD22RoundRect,0.250000X0.262500X0.450000X-0.262500X0.450000X-0.262500X-0.450000X0.262500X-0.450000X0*%
G04 APERTURE END LIST*
D10*
G36*
X143727808Y-90606000D02*
G01*
X143775965Y-90594318D01*
X143791800Y-90587681D01*
X143835713Y-90565172D01*
X143865561Y-90546893D01*
X143904764Y-90515892D01*
X143918318Y-90501219D01*
X143948391Y-90460761D01*
X143958373Y-90444311D01*
X143979394Y-90399981D01*
X143984507Y-90385204D01*
X143993509Y-90336017D01*
X143993544Y-90333180D01*
X143993544Y-89470759D01*
X143954954Y-89481261D01*
X143917585Y-89495916D01*
X143873568Y-89519248D01*
X143865073Y-89524981D01*
X143826147Y-89555664D01*
X143814270Y-89566990D01*
X143781444Y-89603692D01*
X143773482Y-89614129D01*
X143749266Y-89657984D01*
X143748813Y-89659314D01*
X143741974Y-89677632D01*
X143734891Y-89697172D01*
X143730006Y-89718421D01*
X143727808Y-89733808D01*
X143727808Y-90606000D01*
G37*
G36*
X143609350Y-90335623D02*
G01*
X143608648Y-90350750D01*
X143598115Y-90400347D01*
X143588315Y-90426657D01*
X143565875Y-90470200D01*
X143547119Y-90497375D01*
X143514340Y-90534192D01*
X143490732Y-90554777D01*
X143447417Y-90582064D01*
X143437892Y-90587193D01*
X143419574Y-90594764D01*
X143401256Y-90602580D01*
X143391242Y-90606000D01*
X142472644Y-90606000D01*
X142472644Y-90387158D01*
X142873691Y-90387158D01*
X143382937Y-90387158D01*
X143382937Y-89879377D01*
X142873691Y-90387158D01*
X142472644Y-90387158D01*
X142472644Y-90225469D01*
X142696371Y-90225469D01*
X143225401Y-89699370D01*
X142806036Y-89699370D01*
X142768911Y-89707919D01*
X142733740Y-89729656D01*
X142706873Y-89762140D01*
X142696371Y-89802196D01*
X142696371Y-90225469D01*
X142472644Y-90225469D01*
X142472644Y-89730145D01*
X142477529Y-89709872D01*
X142485345Y-89680808D01*
X142487268Y-89675121D01*
X142509281Y-89631471D01*
X142516899Y-89619857D01*
X142548115Y-89580668D01*
X142557801Y-89570395D01*
X142595254Y-89536949D01*
X142601547Y-89532159D01*
X142645812Y-89507395D01*
X142671702Y-89496893D01*
X142696371Y-89489077D01*
X142740090Y-89480528D01*
X142747173Y-89480528D01*
X142752547Y-89480528D01*
X143609350Y-89480528D01*
X143609350Y-90335623D01*
G37*
G36*
X142348080Y-90335623D02*
G01*
X142347378Y-90350750D01*
X142336845Y-90400347D01*
X142327045Y-90426657D01*
X142304605Y-90470200D01*
X142285849Y-90497375D01*
X142253070Y-90534192D01*
X142229462Y-90554777D01*
X142186147Y-90582064D01*
X142176622Y-90587193D01*
X142158304Y-90594764D01*
X142139985Y-90602580D01*
X142129972Y-90606000D01*
X141211374Y-90606000D01*
X141211374Y-90387158D01*
X141612421Y-90387158D01*
X142121667Y-90387158D01*
X142121667Y-89879377D01*
X141612421Y-90387158D01*
X141211374Y-90387158D01*
X141211374Y-90225469D01*
X141435101Y-90225469D01*
X141964131Y-89699370D01*
X141544766Y-89699370D01*
X141507641Y-89707919D01*
X141472470Y-89729656D01*
X141445603Y-89762140D01*
X141435101Y-89802196D01*
X141435101Y-90225469D01*
X141211374Y-90225469D01*
X141211374Y-89730145D01*
X141216259Y-89709872D01*
X141224075Y-89680808D01*
X141225998Y-89675121D01*
X141248011Y-89631471D01*
X141255629Y-89619857D01*
X141286845Y-89580668D01*
X141296531Y-89570395D01*
X141333984Y-89536949D01*
X141340277Y-89532159D01*
X141384542Y-89507395D01*
X141410432Y-89496893D01*
X141435101Y-89489077D01*
X141478820Y-89480528D01*
X141485903Y-89480528D01*
X141491276Y-89480528D01*
X142348080Y-89480528D01*
X142348080Y-90335623D01*
G37*
G36*
X140473517Y-90606000D02*
G01*
X140500808Y-90557585D01*
X140527910Y-90509428D01*
X140554824Y-90461529D01*
X140581548Y-90413887D01*
X140608084Y-90366503D01*
X140616887Y-90350766D01*
X140643420Y-90303290D01*
X140670262Y-90255385D01*
X140697413Y-90207051D01*
X140724873Y-90158287D01*
X140752642Y-90109094D01*
X140761967Y-90092601D01*
X140923656Y-90265525D01*
X140923656Y-90606000D01*
X140969707Y-90586385D01*
X140989113Y-90569607D01*
X141020712Y-90531156D01*
X141041870Y-90496334D01*
X141062987Y-90450268D01*
X141077041Y-90407674D01*
X141087310Y-90358559D01*
X141089741Y-90324632D01*
X141089741Y-89431191D01*
X140925122Y-89431191D01*
X140929274Y-90023480D01*
X140893304Y-89985175D01*
X140856562Y-89946097D01*
X140819047Y-89906247D01*
X140797871Y-89883773D01*
X140763601Y-89847427D01*
X140729178Y-89810928D01*
X140694602Y-89774276D01*
X140659874Y-89737472D01*
X140625161Y-89700530D01*
X140590631Y-89663711D01*
X140556284Y-89627013D01*
X140522121Y-89590438D01*
X140488156Y-89554152D01*
X140454649Y-89518569D01*
X140417501Y-89479378D01*
X140389009Y-89449510D01*
X140379239Y-89452441D01*
X140365317Y-89460256D01*
X140351151Y-89469293D01*
X140315071Y-89502843D01*
X140308897Y-89513013D01*
X140287624Y-89558214D01*
X140277878Y-89583110D01*
X140313558Y-89619589D01*
X140348792Y-89656120D01*
X140383580Y-89692702D01*
X140417921Y-89729336D01*
X140451815Y-89766021D01*
X140463014Y-89778260D01*
X140496385Y-89814674D01*
X140529635Y-89850640D01*
X140568275Y-89892037D01*
X140606752Y-89932826D01*
X140639602Y-89967304D01*
X140613968Y-90012150D01*
X140587990Y-90058025D01*
X140570481Y-90089182D01*
X140545493Y-90133669D01*
X140521374Y-90176717D01*
X140495919Y-90222245D01*
X140493300Y-90226935D01*
X140468702Y-90270583D01*
X140442441Y-90316897D01*
X140417704Y-90360304D01*
X140398290Y-90394241D01*
X140370980Y-90442006D01*
X140345557Y-90486630D01*
X140318708Y-90533895D01*
X140294559Y-90576511D01*
X140277878Y-90606000D01*
X140473517Y-90606000D01*
G37*
G36*
X138351779Y-90606000D02*
G01*
X138590893Y-90606000D01*
X138626064Y-90606000D01*
X139328018Y-89670305D01*
X139333635Y-90606000D01*
X139380394Y-90591079D01*
X139392742Y-90584750D01*
X139434397Y-90559181D01*
X139458932Y-90541275D01*
X139494426Y-90506440D01*
X139506803Y-90490473D01*
X139532799Y-90448567D01*
X139542707Y-90428679D01*
X139560619Y-90382334D01*
X139565910Y-90364199D01*
X139574012Y-90314424D01*
X139574214Y-90306314D01*
X139578611Y-89396020D01*
X139304082Y-89391868D01*
X139269888Y-89398951D01*
X139230320Y-89415071D01*
X139198080Y-89431924D01*
X139181716Y-89440961D01*
X139144637Y-89476560D01*
X139107894Y-89514234D01*
X139071486Y-89553984D01*
X139035415Y-89595811D01*
X139004046Y-89633867D01*
X138972770Y-89673021D01*
X138941588Y-89713274D01*
X138910500Y-89754626D01*
X138892777Y-89778749D01*
X138861612Y-89821580D01*
X138830306Y-89865229D01*
X138798860Y-89909696D01*
X138767274Y-89954982D01*
X138749162Y-89981226D01*
X138717262Y-90027599D01*
X138685035Y-90074392D01*
X138657151Y-90114835D01*
X138629027Y-90155587D01*
X138600662Y-90196648D01*
X138590893Y-89396020D01*
X138542991Y-89412278D01*
X138525436Y-89422154D01*
X138483833Y-89451756D01*
X138456559Y-89476376D01*
X138421860Y-89514037D01*
X138398185Y-89545253D01*
X138373112Y-89589789D01*
X138364480Y-89615595D01*
X138358862Y-89635867D01*
X138353244Y-89659070D01*
X138351779Y-89667618D01*
X138350313Y-89675923D01*
X138351779Y-90606000D01*
G37*
G36*
X137440265Y-89629761D02*
G01*
X137440265Y-90606000D01*
X137686461Y-90606000D01*
X137686461Y-89629761D01*
X138175924Y-89629761D01*
X138175924Y-89386251D01*
X137249022Y-89386251D01*
X137241939Y-89386983D01*
X137234856Y-89387716D01*
X137211653Y-89390647D01*
X137186985Y-89394799D01*
X137161095Y-89403836D01*
X137132274Y-89415804D01*
X137089034Y-89439865D01*
X137071702Y-89452441D01*
X137033514Y-89486591D01*
X137015526Y-89506662D01*
X136985869Y-89547144D01*
X136973272Y-89569189D01*
X136955000Y-89615351D01*
X136952023Y-89629761D01*
X137440265Y-89629761D01*
G37*
G36*
X135552512Y-89898428D02*
G01*
X135799930Y-89898428D01*
X135799930Y-89761896D01*
X135800662Y-89753592D01*
X135804326Y-89739426D01*
X135820446Y-89709140D01*
X135849267Y-89680319D01*
X135864898Y-89670549D01*
X135881751Y-89663466D01*
X135901290Y-89657849D01*
X135916922Y-89654918D01*
X136545603Y-89654918D01*
X136545603Y-90268456D01*
X136538520Y-90289461D01*
X136522400Y-90321212D01*
X136494312Y-90347102D01*
X136461339Y-90363955D01*
X136430320Y-90368351D01*
X136430320Y-90369572D01*
X136427390Y-90369572D01*
X135799930Y-90369572D01*
X135799930Y-90139007D01*
X135552512Y-90139007D01*
X135552512Y-90608930D01*
X136554152Y-90608930D01*
X136564654Y-90606000D01*
X136585170Y-90598916D01*
X136605687Y-90590612D01*
X136615945Y-90584995D01*
X136633042Y-90574492D01*
X136651116Y-90562280D01*
X136690275Y-90530717D01*
X136725028Y-90492466D01*
X136745638Y-90461163D01*
X136767641Y-90415217D01*
X136781960Y-90367719D01*
X136784717Y-90351254D01*
X136787648Y-90334646D01*
X136789113Y-90321701D01*
X136789113Y-89414339D01*
X135860502Y-89414339D01*
X135847801Y-89417270D01*
X135798393Y-89425750D01*
X135794312Y-89427039D01*
X135769155Y-89434122D01*
X135743754Y-89443892D01*
X135699424Y-89468713D01*
X135682693Y-89480528D01*
X135644866Y-89513103D01*
X135622854Y-89538170D01*
X135606734Y-89561373D01*
X135591835Y-89581889D01*
X135582798Y-89600207D01*
X135574982Y-89618281D01*
X135573517Y-89623411D01*
X135570830Y-89628295D01*
X135565212Y-89649300D01*
X135559595Y-89669084D01*
X135554710Y-89695218D01*
X135552512Y-89712559D01*
X135552512Y-89898428D01*
G37*
G36*
X145425051Y-91309761D02*
G01*
X145425051Y-92286000D01*
X145671248Y-92286000D01*
X145671248Y-91309761D01*
X146160711Y-91309761D01*
X146160711Y-91066251D01*
X145233809Y-91066251D01*
X145226726Y-91066983D01*
X145219643Y-91067716D01*
X145196440Y-91070647D01*
X145171771Y-91074799D01*
X145145882Y-91083836D01*
X145117061Y-91095804D01*
X145073821Y-91119865D01*
X145056489Y-91132441D01*
X145018301Y-91166591D01*
X145000313Y-91186662D01*
X144970655Y-91227144D01*
X144958059Y-91249189D01*
X144939786Y-91295351D01*
X144936810Y-91309761D01*
X145425051Y-91309761D01*
G37*
G36*
X143542916Y-92280382D02*
G01*
X143789113Y-92280382D01*
X143789113Y-91807772D01*
X144533320Y-91807772D01*
X144533320Y-92280382D01*
X144580839Y-92267305D01*
X144594625Y-92260598D01*
X144636925Y-92234903D01*
X144659838Y-92218588D01*
X144695809Y-92184510D01*
X144708443Y-92169251D01*
X144736158Y-92127109D01*
X144745079Y-92109656D01*
X144763626Y-92062853D01*
X144768282Y-92047618D01*
X144776457Y-91998358D01*
X144776586Y-91991931D01*
X144776586Y-91080417D01*
X144531855Y-91080417D01*
X144531855Y-91565727D01*
X143789113Y-91565727D01*
X143789113Y-91090187D01*
X143741999Y-91104230D01*
X143722190Y-91114122D01*
X143680588Y-91141060D01*
X143653314Y-91163459D01*
X143618615Y-91198132D01*
X143594939Y-91227451D01*
X143569294Y-91269640D01*
X143559769Y-91294129D01*
X143548533Y-91334918D01*
X143544381Y-91359586D01*
X143542916Y-91378637D01*
X143542916Y-92280382D01*
G37*
G36*
X142144625Y-91437744D02*
G01*
X142390822Y-91437744D01*
X142391555Y-91423822D01*
X142395219Y-91408191D01*
X142410606Y-91374485D01*
X142441625Y-91340535D01*
X142476796Y-91322950D01*
X142507815Y-91316600D01*
X143135030Y-91316600D01*
X143135030Y-91560110D01*
X142517584Y-91560110D01*
X142517584Y-91802154D01*
X143135030Y-91802154D01*
X143135030Y-91938442D01*
X143123795Y-91979475D01*
X143095707Y-92013913D01*
X143058582Y-92037116D01*
X143018282Y-92045420D01*
X142392288Y-92045420D01*
X142392288Y-91924520D01*
X142146091Y-91924520D01*
X142146091Y-92286000D01*
X143095707Y-92286000D01*
X143125993Y-92281115D01*
X143160431Y-92270612D01*
X143190718Y-92259377D01*
X143208303Y-92250829D01*
X143250378Y-92224631D01*
X143280110Y-92198805D01*
X143313367Y-92161023D01*
X143335065Y-92129928D01*
X143358304Y-92086250D01*
X143370236Y-92056167D01*
X143381476Y-92007093D01*
X143382692Y-91986314D01*
X143382692Y-91074799D01*
X142452860Y-91074799D01*
X142401386Y-91080783D01*
X142354843Y-91095837D01*
X142348080Y-91098735D01*
X142302272Y-91122644D01*
X142259736Y-91152911D01*
X142248184Y-91162727D01*
X142211446Y-91200066D01*
X142181159Y-91241987D01*
X142173690Y-91254806D01*
X142153822Y-91301122D01*
X142144881Y-91352509D01*
X142144625Y-91363006D01*
X142144625Y-91437744D01*
G37*
G36*
X141999789Y-91991931D02*
G01*
X141999581Y-92000006D01*
X141991241Y-92048351D01*
X141986585Y-92063800D01*
X141968038Y-92110877D01*
X141958058Y-92130331D01*
X141931401Y-92171450D01*
X141920304Y-92185371D01*
X141884263Y-92221275D01*
X141864184Y-92236245D01*
X141820515Y-92262796D01*
X141804685Y-92270292D01*
X141757745Y-92286000D01*
X141757745Y-91803376D01*
X141152755Y-92286000D01*
X140774423Y-92286000D01*
X141373551Y-91803376D01*
X140788345Y-91803376D01*
X140788345Y-91558644D01*
X141030390Y-91558644D01*
X141757745Y-91558644D01*
X141757745Y-91313913D01*
X141147138Y-91313913D01*
X141108547Y-91322461D01*
X141070445Y-91344932D01*
X141041625Y-91379370D01*
X141030390Y-91422113D01*
X141030390Y-91558644D01*
X140788345Y-91558644D01*
X140788345Y-91360319D01*
X140788788Y-91346329D01*
X140797309Y-91298203D01*
X140816677Y-91251387D01*
X140823951Y-91238396D01*
X140853376Y-91196054D01*
X140888973Y-91158575D01*
X140900170Y-91148748D01*
X140941644Y-91118260D01*
X140986670Y-91093850D01*
X140990009Y-91092332D01*
X141039121Y-91075349D01*
X141089496Y-91069182D01*
X141999789Y-91069182D01*
X141999789Y-91991931D01*
G37*
G36*
X140103488Y-92286000D02*
G01*
X140144277Y-92286000D01*
X140379238Y-91294129D01*
X140383390Y-92286000D01*
X140432227Y-92275159D01*
X140448359Y-92269879D01*
X140493487Y-92248413D01*
X140518457Y-92231045D01*
X140554698Y-92198146D01*
X140586022Y-92158319D01*
X140590264Y-92150933D01*
X140607248Y-92102479D01*
X140611269Y-92059342D01*
X140607117Y-91067472D01*
X140355302Y-91067472D01*
X140340404Y-91066983D01*
X140344067Y-91066251D01*
X140353348Y-91066251D01*
X140355302Y-91067472D01*
X140198987Y-91070403D01*
X140187114Y-91121302D01*
X140175125Y-91171236D01*
X140163020Y-91220204D01*
X140156244Y-91246990D01*
X140143628Y-91294820D01*
X140130510Y-91342689D01*
X140116890Y-91390596D01*
X140109106Y-91417228D01*
X140094547Y-91465502D01*
X140079447Y-91514703D01*
X140063807Y-91564832D01*
X140054884Y-91593083D01*
X140038382Y-91645116D01*
X140023228Y-91693151D01*
X140007615Y-91742866D01*
X139993579Y-91787744D01*
X139878296Y-91071868D01*
X139844591Y-91071868D01*
X139793780Y-91071307D01*
X139785484Y-91071136D01*
X139735139Y-91070461D01*
X139714409Y-91070403D01*
X139664098Y-91070403D01*
X139646265Y-91070403D01*
X139596906Y-91071047D01*
X139594242Y-91071136D01*
X139571527Y-91071868D01*
X139523322Y-91081757D01*
X139477252Y-91106029D01*
X139448673Y-91136593D01*
X139425004Y-91180149D01*
X139408747Y-91228310D01*
X139398398Y-91278630D01*
X139396649Y-91290710D01*
X139390955Y-91341894D01*
X139387307Y-91397749D01*
X139385793Y-91450454D01*
X139385844Y-91506736D01*
X139386147Y-91523473D01*
X139387060Y-91575205D01*
X139387784Y-91629101D01*
X139388319Y-91685160D01*
X139388665Y-91743383D01*
X139388810Y-91793556D01*
X139388833Y-91824381D01*
X139388086Y-91874758D01*
X139387857Y-91927156D01*
X139388101Y-91976544D01*
X139388606Y-92025660D01*
X139389273Y-92077483D01*
X139390055Y-92126997D01*
X139391314Y-92177983D01*
X139391520Y-92208575D01*
X139391520Y-92257938D01*
X139391520Y-92286000D01*
X139636251Y-92291617D01*
X139644800Y-91285825D01*
X139882448Y-92286000D01*
X140103488Y-92286000D01*
G37*
G36*
X138944556Y-92286000D02*
G01*
X138992320Y-92273360D01*
X139010745Y-92265483D01*
X139055271Y-92241414D01*
X139085240Y-92221275D01*
X139123567Y-92188699D01*
X139139461Y-92171450D01*
X139169812Y-92130331D01*
X139181471Y-92110877D01*
X139202460Y-92064982D01*
X139208338Y-92046886D01*
X139217057Y-91997968D01*
X139217375Y-91987779D01*
X139217375Y-91045246D01*
X139178785Y-91057214D01*
X139139950Y-91071868D01*
X139097135Y-91096736D01*
X139086705Y-91104353D01*
X139048249Y-91136818D01*
X139034437Y-91150759D01*
X139001831Y-91189456D01*
X138992427Y-91202782D01*
X138968972Y-91246193D01*
X138967026Y-91251875D01*
X138959943Y-91272392D01*
X138952860Y-91292664D01*
X138947487Y-91316111D01*
X138944556Y-91332231D01*
X138944556Y-92286000D01*
G37*
G36*
X137587542Y-91432127D02*
G01*
X137832274Y-91432127D01*
X137835937Y-91414541D01*
X137840822Y-91394025D01*
X137871395Y-91353484D01*
X137887961Y-91340780D01*
X137934123Y-91320859D01*
X137949022Y-91319531D01*
X138569643Y-91319531D01*
X138569643Y-91457284D01*
X138555355Y-91504773D01*
X138544242Y-91520054D01*
X138505390Y-91551307D01*
X138485135Y-91558644D01*
X138482204Y-91560110D01*
X137587542Y-91560110D01*
X137587542Y-92284534D01*
X138531541Y-92284534D01*
X138560362Y-92279649D01*
X138594800Y-92268414D01*
X138625819Y-92255713D01*
X138642672Y-92247898D01*
X138685679Y-92221871D01*
X138712525Y-92198805D01*
X138745343Y-92162208D01*
X138767235Y-92131394D01*
X138791086Y-92087630D01*
X138803139Y-92057388D01*
X138814599Y-92008430D01*
X138815840Y-91987779D01*
X138815840Y-91918903D01*
X138569643Y-91918903D01*
X138562560Y-91966774D01*
X138535693Y-92006830D01*
X138497103Y-92034185D01*
X138454116Y-92043955D01*
X137833739Y-92043955D01*
X137833739Y-91910354D01*
X137844242Y-91873229D01*
X137871108Y-91838791D01*
X137908478Y-91813390D01*
X137950487Y-91803376D01*
X138518840Y-91802154D01*
X138568684Y-91794581D01*
X138597731Y-91784569D01*
X138643165Y-91762507D01*
X138681995Y-91737430D01*
X138720707Y-91705801D01*
X138755267Y-91670019D01*
X138783594Y-91628364D01*
X138798743Y-91589663D01*
X138801674Y-91580626D01*
X138807291Y-91562308D01*
X138812909Y-91541059D01*
X138815840Y-91522008D01*
X138815840Y-91078951D01*
X137892846Y-91078951D01*
X137841555Y-91084935D01*
X137792139Y-91101415D01*
X137788799Y-91102887D01*
X137743632Y-91126916D01*
X137701737Y-91157117D01*
X137690369Y-91166879D01*
X137653964Y-91204218D01*
X137623824Y-91246139D01*
X137616363Y-91258958D01*
X137596661Y-91305040D01*
X137587796Y-91355658D01*
X137587542Y-91365937D01*
X137587542Y-91432127D01*
G37*
G36*
X136682134Y-91309761D02*
G01*
X136682134Y-92286000D01*
X136928331Y-92286000D01*
X136928331Y-91309761D01*
X137417794Y-91309761D01*
X137417794Y-91066251D01*
X136490892Y-91066251D01*
X136483809Y-91066983D01*
X136476726Y-91067716D01*
X136453523Y-91070647D01*
X136428854Y-91074799D01*
X136402965Y-91083836D01*
X136374144Y-91095804D01*
X136330904Y-91119865D01*
X136313572Y-91132441D01*
X136275384Y-91166591D01*
X136257396Y-91186662D01*
X136227738Y-91227144D01*
X136215142Y-91249189D01*
X136196869Y-91295351D01*
X136193893Y-91309761D01*
X136682134Y-91309761D01*
G37*
G36*
X136036600Y-91997549D02*
G01*
X136035432Y-92018400D01*
X136024632Y-92068135D01*
X136013175Y-92098814D01*
X135990194Y-92143362D01*
X135968663Y-92174958D01*
X135935484Y-92212971D01*
X135905704Y-92238516D01*
X135863432Y-92263529D01*
X135854395Y-92269147D01*
X135834611Y-92277695D01*
X135814339Y-92285511D01*
X135803104Y-92288930D01*
X134809769Y-92288930D01*
X134809769Y-92046886D01*
X135054500Y-92046886D01*
X135679273Y-92046886D01*
X135715177Y-92038581D01*
X135753034Y-92015378D01*
X135782588Y-91981429D01*
X135794556Y-91941373D01*
X135794556Y-91320996D01*
X135172713Y-91320996D01*
X135134123Y-91329545D01*
X135096021Y-91352748D01*
X135066468Y-91387186D01*
X135054500Y-91429196D01*
X135054500Y-92046886D01*
X134809769Y-92046886D01*
X134809769Y-91377172D01*
X134810200Y-91363158D01*
X134818501Y-91314592D01*
X134837368Y-91266774D01*
X134844451Y-91253409D01*
X134873088Y-91209638D01*
X134907710Y-91170542D01*
X134921365Y-91157732D01*
X134962772Y-91126049D01*
X135005407Y-91102154D01*
X135015667Y-91097484D01*
X135063606Y-91081763D01*
X135115072Y-91076020D01*
X136036600Y-91076020D01*
X136036600Y-91997549D01*
G37*
G36*
X134630494Y-91991931D02*
G01*
X134630286Y-92000006D01*
X134621946Y-92048351D01*
X134617290Y-92063800D01*
X134598743Y-92110877D01*
X134588763Y-92130331D01*
X134562106Y-92171450D01*
X134551008Y-92185371D01*
X134514967Y-92221275D01*
X134494889Y-92236245D01*
X134451220Y-92262796D01*
X134435390Y-92270292D01*
X134388450Y-92286000D01*
X134388450Y-91803376D01*
X133783460Y-92286000D01*
X133405128Y-92286000D01*
X134004256Y-91803376D01*
X133419050Y-91803376D01*
X133419050Y-91558644D01*
X133661094Y-91558644D01*
X134388450Y-91558644D01*
X134388450Y-91313913D01*
X133777842Y-91313913D01*
X133739252Y-91322461D01*
X133701150Y-91344932D01*
X133672330Y-91379370D01*
X133661094Y-91422113D01*
X133661094Y-91558644D01*
X133419050Y-91558644D01*
X133419050Y-91360319D01*
X133419492Y-91346329D01*
X133428014Y-91298203D01*
X133447382Y-91251387D01*
X133454656Y-91238396D01*
X133484081Y-91196054D01*
X133519678Y-91158575D01*
X133530875Y-91148748D01*
X133572348Y-91118260D01*
X133617375Y-91093850D01*
X133620714Y-91092332D01*
X133669826Y-91075349D01*
X133720201Y-91069182D01*
X134630494Y-91069182D01*
X134630494Y-91991931D01*
G37*
D11*
%TO.C,TH1*%
X139472936Y-92737000D02*
X139927064Y-92737000D01*
X139472936Y-94207000D02*
X139927064Y-94207000D01*
%TD*%
%LPC*%
D12*
%TO.C,J7*%
X135890000Y-39380000D03*
D13*
X135890000Y-41920000D03*
X135890000Y-44460000D03*
X135890000Y-47000000D03*
%TD*%
D14*
%TO.C,REF\u002A\u002A*%
X95250000Y-130302000D03*
%TD*%
D15*
%TO.C,J3*%
X119176800Y-53594000D03*
X121716800Y-53594000D03*
X124256800Y-53594000D03*
%TD*%
D14*
%TO.C,REF\u002A\u002A*%
X95250000Y-56642000D03*
%TD*%
%TO.C,REF\u002A\u002A*%
X184150000Y-56642000D03*
%TD*%
D16*
%TO.C,J1*%
X97410000Y-48035000D03*
X97410000Y-42135000D03*
D17*
X92710000Y-45085000D03*
%TD*%
D15*
%TO.C,J4*%
X166370000Y-53594000D03*
X168910000Y-53594000D03*
X171450000Y-53594000D03*
%TD*%
D18*
%TO.C,J6*%
X171450000Y-47498000D03*
X168910000Y-47498000D03*
X166370000Y-47498000D03*
%TD*%
D14*
%TO.C,REF\u002A\u002A*%
X184150000Y-130302000D03*
%TD*%
D18*
%TO.C,J5*%
X124256800Y-47498000D03*
X121716800Y-47498000D03*
X119176800Y-47498000D03*
%TD*%
D19*
%TO.C,J2*%
X110078000Y-40954000D03*
X104298000Y-40954000D03*
D20*
X111508000Y-41484000D03*
D21*
X111508000Y-37304000D03*
D20*
X102868000Y-41484000D03*
D21*
X102868000Y-37304000D03*
%TD*%
D22*
%TO.C,TH1*%
X140612500Y-93472000D03*
X138787500Y-93472000D03*
%TD*%
%LPD*%
M02*
