M48
; DRILL file {KiCad 8.0.1} date 2024-03-31T20:21:16-0400
; FORMAT={-:-/ absolute / inch / decimal}
; #@! TF.CreationDate,2024-03-31T20:21:16-04:00
; #@! TF.GenerationSoftware,Kicad,Pcbnew,8.0.1
; #@! TF.FileFunction,NonPlated,1,2,NPTH
FMAT,2
INCH
; #@! TA.AperFunction,NonPlated,NPTH,ComponentDrill
T1C0.0197
; #@! TA.AperFunction,NonPlated,NPTH,ComponentDrill
T2C0.0256
%
G90
G05
T1
X4.1609Y-1.9605
X4.1609Y-2.0195
X4.1905Y-1.9605
X4.1905Y-2.0195
X4.22Y-1.9605
X4.22Y-2.0195
X4.2495Y-1.9605
X4.2495Y-2.0195
X4.2791Y-1.9605
X4.2791Y-2.0195
X5.5009Y-1.9605
X5.5009Y-2.0195
X5.5305Y-1.9605
X5.5305Y-2.0195
X5.56Y-1.9605
X5.56Y-2.0195
X5.5895Y-1.9605
X5.5895Y-2.0195
X5.6191Y-1.9605
X5.6191Y-2.0195
X6.9259Y-1.9605
X6.9259Y-2.0195
X6.9555Y-1.9605
X6.9555Y-2.0195
X6.985Y-1.9605
X6.985Y-2.0195
X7.0145Y-1.9605
X7.0145Y-2.0195
X7.0441Y-1.9605
X7.0441Y-2.0195
T2
X4.1062Y-1.6124
X4.3338Y-1.6124
M30
