%TF.GenerationSoftware,KiCad,Pcbnew,8.0.1*%
%TF.CreationDate,2024-03-31T20:21:14-04:00*%
%TF.ProjectId,Reflow Plate,5265666c-6f77-4205-906c-6174652e6b69,rev?*%
%TF.SameCoordinates,Original*%
%TF.FileFunction,Profile,NP*%
%FSLAX46Y46*%
G04 Gerber Fmt 4.6, Leading zero omitted, Abs format (unit mm)*
G04 Created by KiCad (PCBNEW 8.0.1) date 2024-03-31 20:21:14*
%MOMM*%
%LPD*%
G01*
G04 APERTURE LIST*
%TA.AperFunction,Profile*%
%ADD10C,0.100000*%
%TD*%
G04 APERTURE END LIST*
D10*
X104394000Y-49530000D02*
G75*
G02*
X104394000Y-51562000I0J-1016000D01*
G01*
X189230000Y-130302000D02*
X189230000Y-56642000D01*
X186690000Y-35560000D02*
G75*
G02*
X189230000Y-38100000I0J-2540000D01*
G01*
X109982000Y-49530000D02*
X138430000Y-49530000D01*
X174625000Y-49530000D02*
G75*
G02*
X174625000Y-51562000I0J-1016000D01*
G01*
X174625000Y-51562000D02*
X144018000Y-51562000D01*
X144018000Y-49530000D02*
X174625000Y-49530000D01*
X95250000Y-135382000D02*
G75*
G02*
X90170000Y-130302000I0J5080000D01*
G01*
X95250000Y-135382000D02*
X184150000Y-135382000D01*
X144018000Y-51562000D02*
G75*
G02*
X144018000Y-49530000I0J1016000D01*
G01*
X184150000Y-51562000D02*
X180213000Y-51562000D01*
X90170000Y-38100000D02*
G75*
G02*
X92710000Y-35560000I2540000J0D01*
G01*
X92710000Y-35560000D02*
X186690000Y-35560000D01*
X189230000Y-46990000D02*
G75*
G02*
X186690000Y-49530000I-2540000J0D01*
G01*
X180213000Y-51562000D02*
G75*
G02*
X180213000Y-49530000I0J1016000D01*
G01*
X104394000Y-49530000D02*
X92710000Y-49530000D01*
X138430000Y-51562000D02*
X109982000Y-51562000D01*
X90170000Y-56642000D02*
X90170000Y-130302000D01*
X90170000Y-56642000D02*
G75*
G02*
X95250000Y-51562000I5080000J0D01*
G01*
X180213000Y-49530000D02*
X186690000Y-49530000D01*
X184150000Y-51562000D02*
G75*
G02*
X189230000Y-56642000I0J-5080000D01*
G01*
X109982000Y-51562000D02*
G75*
G02*
X109982000Y-49530000I0J1016000D01*
G01*
X92710000Y-49530000D02*
G75*
G02*
X90170000Y-46990000I0J2540000D01*
G01*
X90170000Y-46990000D02*
X90170000Y-38100000D01*
X138430000Y-49530000D02*
G75*
G02*
X138430000Y-51562000I0J-1016000D01*
G01*
X189230000Y-38100000D02*
X189230000Y-46990000D01*
X95250000Y-51562000D02*
X104394000Y-51562000D01*
X189230000Y-130302000D02*
G75*
G02*
X184150000Y-135382000I-5080000J0D01*
G01*
M02*
